<mxfile host="65bd71144e">
    <diagram id="ZC6PafSODY_O-T9ZUMLZ" name="Page-1">
        <mxGraphModel dx="977" dy="669" grid="1" gridSize="10" guides="1" tooltips="1" connect="1" arrows="1" fold="1" page="1" pageScale="1" pageWidth="850" pageHeight="1100" math="0" shadow="0">
            <root>
                <mxCell id="0"/>
                <mxCell id="1" parent="0"/>
                <mxCell id="2" value="http://ics2o.mths.ca" style="swimlane;whiteSpace=wrap;html=1;" parent="1" vertex="1">
                    <mxGeometry x="40" y="280" width="816.38" height="480" as="geometry"/>
                </mxCell>
                <mxCell id="3" value="" style="shape=image;verticalLabelPosition=bottom;labelBackgroundColor=default;verticalAlign=top;aspect=fixed;imageAspect=0;image=data:image/png,iVBORw0KGgoAAAANSUhEUgAAAggAAAElCAYAAACBJhoWAAAAAXNSR0IArs4c6QAAIABJREFUeF7sXQd4W9X1/72n97Ql770dO3tvRgYh7L3LXv8yW1bLKpRCoUChFFpoGS17tpAADXsECIQQsvf03kuytvTm/7tXtmM7HpIsOU6im89fbOmOc8+9753fPefcc5hjFi5SES9xDsQ5EOdAnAPhc0CRobbtBLQmMNYCgGHC7yPeIs6BEcoBJg4QRujKxMmKcyDOgZHPAVWFatsFiF7AnAXGnDXyaY5TGOdAiByIA4QQGRWvFudAnANxDvTJAQISmjYCvAFMytg4k+IcOGQ4EAcIh8xSxicS50CcAweKA2rLNgAqmLSJB4qE+LhxDkSdA3GAEHWWxjuMcyDOgcOBA6q9HDCmgtFZg34IsggmfdLhMPX4HA8TDsQBwmGy0PFpxjkQ50A0OUDMCpuDWoPU8VCd1YDoiwOEaLI43tcB50BIAIFhVejSPeCtAbC8DEVmIXt4BNoMkL3aAz6JWBKg0UvQmAQ6hOzRQvZzsRwu3necA3EOHCQcUF31gKcRTGIxVG8LIPkPW4CgTfGC0QQvxAltBqgyO+AqEnlCiiJoILbrD5IVB1idBM4kgshEyctD9vLDQjujAVgNoEiAqgzLkHSQQQGCNtmHpKmNYLg+qFIBT1Ui3HuToSqH1vUeAoQsY1phyHb3WA1fvQWuXSlQRM3wrVJ8pDgH4hw48BwQfYDooWYFUlTBCdj2grHmBwGCqoBJm3Dg6TwAFKQdXQ2NUaQjt67Mg+QZ+OCYeVwZwIAeMu3rsg8AxWEOyaiwjG6DKd9B6e4sgRYjHNvSKdCJRWG1KrTpfuRPSoRP8sEoZMDoyUFDXSNaW9sgiUGex6oMCBA4awCpc2u7xiZCUZUZip5Yrdz1uaciEa49KbGicfj7ZYDk2bXQJgSCLwKVIZpEOm9ShHY9bGuyAfJ5vMQ5EOfAsHNAFdyAzwbGmjdssQfU9grAbwcSCsAYUqASsNC2i15vhLvxsL7FEC5AyFhUATAqBQjtG0f41VAqD+qgTfAH97nKQO0mD1SJRfOKApD/o1mIRiZ7LuAKtGPS7FKU7ajDKXMuQUHqGHhtIqqravDpJ5/CbrdHc9gefQ0IEBInNUGfFTxBe2sscO5I72psyHIhYVJz198tKwoOGfW7MdcB6/hWOjfJrUXrqlz6e9q8ahCTAynOnanwVifEbGHiHcc5EOdA/xyg1wrJiT11PMANk4pa9AadETU6qinoAggaHSAHAGNaELAchiVcgHAwsYgzCUg9qoaSLAc0aFuVR8FA0sw6aBODh0jnrhR4qxKjOi1DjoCU8YDX7cekWaXYvaUGpx91OeaMXwRVYtDU0IK1a9bg/SXvQyWIJQZlQICQenQVOGNQIDZ/VwAl0M3+zqjIOLYcTAdoIidqwW7oQSJv9VOAQYQqsdUQ9Xy/qidGhT7DDV2Kj57UBYcOvnrrfqiMMwfAaoPmDsEWHM9YaAdvFeDakbpP9c8AunQ39KneoCqr1QB/o5lYVQZlY+qRNeDMQb+Dlh/yuvwsGE5G+sKqIH12okXIGbSveIU4B+IciDIHSNyBZgIQVDCZ06Pc+cDdqa07KBhgMqZCJdoEolUghdEErzgSQ/FhWMIFCMR0TYoisvQQpk3qOJ0D1Cehu8maCGhWF9RYSy5tD/MunxCAPssFDS9DdGnhrUno2/+hu3whfnR+Hr4mE8ReMquvpUua1gBdmpd+ZVub3SV3iD9C+oKqrnk0f1MUtZUn2oPUmQEovABrogUGgw4+p4JLj78Fo7LHgeN4OGxuNDQ04eEHH4Is79PoR42IwXwQUubUgiwAKQGbHq4daT0EfHczA0FUnYvKaiUkzWgAbwkK2a6igoII27qsHup5ssDWMW09zBakDXF08dYSm3/Q5kdK4tRG6NM9dCxi60qeXQ+NLghiWn7Ip0BEl+KFdUIzNPqeTCPoz7k1HYE2Y1d/6cdUgO3wr2j8qpjSlb6wktIieXi0rszvMYXUo6qpkwrZ2NHcENFc1HhfcQ4c0hzoDhAyphLb337TpYKc5cAkl0aVFZ2OiSCaC0dlMIIiKQlFYAxJUR3rYOosXIDQ2wch5YiaLnnR47BJDqILK8HwCjXzElU+OaiSQycR3FwvGUNM4J6qBLj37jN561I9SJjQ0gUyuvOVgBMij+jhlwHSF1RSR3xS7BuyKBggB+HOc2XT8qIeh9ZOWdFd/kRj3fhkAalTFbgcHuTkp8HvE5FkzMYVJ92GRHMyBQgaaBHwCVi6dCk++t9HUJToey8OqEEw5DgpY3sw1MNThEcEPbEf9dAqEMTBKUg9ogYaQ1Bok5M20RpoE/1dp/LuNnxdqpcuNF0AFfCRU77CQJvmhabDz8FdkQh3h49DF0BQya0CHpx5n5MGAQhEsKfMqqP9KRKLQJOJ/k5ABaEtaC/KhyoFkX76om4A4csgQMhYTDQjKgKtRtjX97SPpcypA99hi2paXtjVTzQ2RbyPOAfiHAiNA2rzVuICDyZ1HMD11FySHoKBi9Cv06AacIAh7TRh3sIKOKHa9wK8GRCJ+ZXp8ElIDo3wQ7TWUAGCNtWL5OkNlDvdfdoIEEibHzyld76P6Tt+Tm2XjPE3maiTINE+U0dJFWjfnAF/E9EYA52HOvLud5UlQRE4EO12p8MhcTQkYID4RBANcXeAIDp09MBIiiIxaF5e3GMFE6c1QN+pXehDix7pchtLPUjIY6l5oag0B15PAFmWUpw09xfITMkBz/PQ80ZIfgUOpxN33XEXbDZbpMP1227gWwysCuvYVhhznX13oIKq7Z27U7qAQndQ4Wsww7E1nQpdRqMgZW4tPX1TtPV9AWQfRxeaaCmIRoAgR9ERtCeSjZE8t5aCBIIKyWmd1OkECPQloDLwVFrhq7NSbYMqapA0o56qq8jfLSvyu9RR5BpO8ozgBuzuOUv8CjpvaDR/W0Bp7US3ZOO1b8rsMffkWXVd6rBOjUXUVyXeYZwDcQ4MyAHV3QS46wBLLhjTPt+ozkZBUwC5dkg0DL3MiooEtXlLMMhRuD4Dkg+0b/qS0oFJGjV8PhAjeE8MFSAQLW76MZVUSJOr5C3f59N3MbkOSW7RkUIOawQkmIrssJTaKBAggp18RgoBDsQ8TP7vkhkAMheX0+/JQZVonTuLdXxLUBsssMH3PBMEEyzRVoCAjHR6tb0ToFC6VhT0WAWiqTbmuIL0bchEoMU05FUi5gXLFAdMiTqIgoyconS47V7kp4zFvMmnojh3NPRaAzgND0VgIIkS3nrrbXzy8SdR1yIwN95446DeDcT+oytogKBpg8PbAkHaZy+iglpiYaqbBz1ngS3he8DsoMg6qfE4MPI+hE7s+iSWAin+ZhMCgg/uvG/o35xsgbVxQQ/mCkllcBuDD6O+bhaMyIAreS1EQ3DDWJAPvm5yVxtBdcOd+y39W/UbIJWN6tGfdsxuqJwAqCwS608Ai77thbacj6k6g/dlwmKb2aMPZ+oqSLo2+lli0yKw0j5zxZB3RryDOAfiHAiNAyqw6/t3ISsqRs09HTp9T0fFhh2rYKsvR+b4o5GS1fOlLvo92L3yA6QUTERmyZTQxuuoJQZ82P3DUnBaPUYffRYYhoUQEKDVhamJCGvUkV+5PWM5FC5obrE2LQAnWQYkuusd60+DpW0OrRvIXwWPHHy3GurnQq+kojXhG2gswZgJyc0nACKPtpSvweh9gKyBuGscBQqdhctqBJMcdDBPqD8WGtUAV/7XEOWgzwMxGwv1qdAISTBrk2A2JA2YgFPR+NCe+TVty0gGJDUd22Ne7oRNEMxBB0ZL22zw/v3Barir1yzvgZxkg17Pw2DSg+c5CAEZOVn5WDDxTJRmT4SON1D5RUGCqKLd4cBbb7yJpuamcIcbsD6jKMqgAKF7D6qqYO3uL/Cf7x5Dg42oXoLNzz7qJpwz71Zc97fpcPnslPDnbl4Pgzao5umrbKv6EQ+/fTH9alz+HNx70Ts9qn2/dQme++i39LMLFtyB04+4Hn9dcg3W7fmSfnbH+a9gSvE+ULGl4ns8+p/LBmUQy2rwz1+vgaUfm+EVj4+BKAuYOuoY3H7eSz36u//1c7Cnbj397PlbNsKsj99kGJTh8QpxDsSAA7ddeTo2rv4Bl1z3G1z569+B6aYpWPfjt7j9l+dg+tz5ePxfS8CwPf0UTp1dgKLScXj6zc8GpKyloQ6yLCEjO4/2YW9rwTnzxsCSkIQPV5Xhq4/exZ/vvhHPvbcco8YcvnkYbn1uAZrbqykvH736M+SljRmQr5f+eRQUVcGkonm464LXaN3NFSvw5/9cHpQnR9+CY6deiBufCYKHMbkzcd8l79LfL3usFDKJGDRIuffidzAubw6+2fQOXv3yfohS8HDavUwZtRA3nvYUTP28x9s9Lbjx6dm0iUlvxQu3bOrR/qml12HN7s/pZ/de9DbG5c8djKwBv5dkCTc9eQ7aXE1gifUq2ULNCxaLCRarGQsnnovijPFIMCZDq9GD1Wig5XRU3rIsA02UnWQZtZ/7EZvLV2DJD0/Ryeh4I3534Rs9JkYWd9mqZ/Gf7x6nn5dmT8MDl7+PXz45FR5/OyX4+Vs2DAgQdlSvxoNvXkDbj86dgfsvXdJjjO82v4vnP76dfnbRot/h1DnX4In3ftkFEB7/5ZfISd3nhLS18gc8/PYltH6iOR2l2X17OBPUf+0pj8Gg6xu8XPPUVLh97chPH0s3e/dy+7+OQ13rHtr2xdu2DmkzxBvHORDnQOQc8Hk9OG/heHjdbiw4/jT84alXunWm4jdXnokNq7/HopPPxr1/+XePgf5y38345L3Xcd9fX8TCE8/ql4iTZ+TB7/PizIuuxk33PoaG2ipcdNxU5BeV4tVPfsbK5Z/g3hsvxjmXXotf/e7RyCdzkLe85dn5XQDhz//3+aAA4ZJHi7sAwt2/eL1j9mqH/HCgJHsazjzqV/jLu1fT7x647H2U5kyjvxOAIMkiOI2WHuKYfm6mnXX0r1GYEQxc5Re82Fu/AZ+vfRnr937d41pgijULT9+4qs8VIKDi8sf3gZ2XfrMNeu0+M8KNT8+BnZi7APzlmq+RndJTax3usn67/iO89tUT4HgNPC4fUjITYG9xIT0rmZoPJmYvQEnuOKRbc5GelA1yvmcYJagJYVloOa4HUA53/N71+wUI5HT/p7cuovWJsH/hlo09GEM+r2jcintePpXWmVR4NO6+8A08+MYF2FGzmqre/vGr1Ug0p3WNuXzj2/h49Qv079+e9yIsxhRc+9Q0EK1ERlIBnrzuux70vfH1Q/jk5+CD/chVn6IgY1xPgHDNV8hJKelqY3c1dSHOzOQi/PXa5SFda+zNlN88vwgNtnJoWA5/v3ElkswZtIosi7j6yUkQRD9Kc2fggV6AZqiLEW8f50CcA+FxYPPaVbjnxgvhdjroqX7hCWfghrv+BL3BCFtrM2665CTUV1dg6uyj8ZeXPgDboUnY+PP3uPXy02G2JuC9FTug0+3v6EgoqSrbjevPXwQCRu5+9FkUj5mAX541H4tOPge/f+Lf+O/Lz+DZx36PG+78E8674obwiD+EakcHIAB/eO1sqqFlGQ3GFx6BrRU/QMMS+bMeBl3QbHH3iyejqnk7PaS9cMsG+n1/xem1oaVDs5GWmA+rMRmSLKDBVoEnl16HRlvwmuofL3+fgpK+yoNv/gI7qn/arx45RJLDJCmEtiAtkYfi9ws+3P3vS6BqBWhYEoxJhYbnEPAFYDQZ0NrUDiufiaMmH4+0pEyMyhoLntdRbYqW00OvNYLTcNBpo2fu6hcgEOR0y7PzYHcHgyFNKDwKFy68E4WZE6EoMrZXr8LLn/0eTe1BD9PLj7sfJ8y8At9u+i9e+OQO+tnk4gX4zTkvgOd0FF2SxXd4gvYhYn4gi0VMDFsrV1LVyDWnPI55E8+m35fVb8LD71wCX8BFtRAv3BrcCD00CL0AAmn30JsXUtoIuvz9xe+gNCeoRahv3YtH/nMZ7K5G5KePw5+uXEZBDAEDPhKVDcAzN64CMT/8b9WzeOfbP9PPCEK99eznKCp7/N2rQcwYpPxiITF5HL4vhEPo3RafykHOgZamerz7yj+x5PXnoMgyeK0WYydOR1ZeIUQhgG8+fZ/OMD0rFxOnzUZTfQ12b99MvyOlsGQsnn/vG2h1fQdc+u7zD/HH265CTn4xrvnt/fj9ry7BXY/8EyeceSGuO28Rdm3dgNc+WYO8on2HlYOcpWGT3x0gzJt4DizGvq98njLnGiSZ09G3BgFYs+tzPLn02h7jF2VOwkNX/q9LU9D5fiaag3Pn34Yzj7yRvst9ATee+d9N2FT2LX3/P3fzOlQ178ADr59L+5s/6Vxcd+pfuvp+/N2rsGEvOUQCT1z7DTIS83HniyfC4yc+dMD1p/4Vk4qOxs6an/HHN4imW8XYvFm45ezn6GH5tS8fADn0kkJM7ISWSAsBA8tWvY6PfnqNOmryOh5aHTEbsFRzwHEcGmvaIAZEHDX5RIwrmobM5DykJWaA57RQoULLGShAMeh0UdMi9AsQyEQ3lX9LhSIBBJ2FEEDMC+TU31mykovxwGVLqJrDL3goMyubgur3tIRcqh0gAp8IYiJozzn6Vpx99E30e6L2IZqKAIlzDqA4azKdKPmcID0isC9b/AccPyPoWzAYQNhbtxEPvnU+RCkYg4EABNIHGZ/0R8wlT1zzNZKtweuL//fXSfAGgl6or9+5lzKYzO/Ofx+Puta99HOiQSGFqLVIIVqLB6/4cD+NSqSbI94uzoE4B4bOgYaaSrz+3BP46bsvYG/bF+W1r54zsnNx/BkXIuD34r8v/wPzjzsNdz7yTxhNfZsdiSZiy7qfkF88mgKMZT9XonLPTtx44fHU9+DZ/3419AkcxD10BwgDTYOYbInptj+AQATd9X+bCac36KxIyn2X/Bdj84J+AKS4fXb84bVzqJa3832cZMlAZdN2+h3LsLj8+Adw3PRL6fd3/vsE1LTsonJgZunxVMbUtOzEqu3L6LuemKmJuZrIuev+PpP2QQrRck8vOZbKjXtePo32QUrQ3s9B6JBZRp0Vj1/zFQU+kZaaljL849O70NzYCr8vQG/epKRb4fMGoNXyEAMSREGCIEjQMBxOPuoXGJ07FVkpuVRrQOghhWgRTHrj8AAEMuCu2jV48dN7UNe2twcoIN/xnB5jcmfg5rOepQ4cnYUgOSLId9Wuhazsi1Ng1Fkoirt08X09JrC7dh3VOtS3lfXgL1Htnz73Opww68quzwcDCKTi7rp1eP6j27s2UGfj1IRcXHXCg1Qr0Fn6AgjkO5urkc6BAJ3ubhoFGRNw2znPU+ATL3EOxDkwMjlQsWcH9u7YAqJdcDqI0GCQkJyK5JQ0jJk4jQp6Ukiym3t/fQl+XvElRk+Yijsf/gd1Xuxd7rvpMnz/5TL68Zz5x+GCq36Nu6+7AIGAHw89/QaOOvbkkcmIYaIqWgCBkEsc0YkjPCnk0ElU970L0UQ/ueQa7K3fSIV8ZyHOhounXYILFgZ910hptFfimQ9vQmXjNijqvsMuARJ56ePw6zP+Tn0H+gMIpA/S7uG3LsbO2jVdB2aiwSDt7rjglSHJg+rm3XhzxZOob62icQ8IQFCgIj0zCc0NNlitJsiSSuWQJEkQ/RJOPvoiZCTloCCjFHpeD7vbRsGB2WBFZnIONJroRPQcUIPQfVEIolu3+ytqUiABGggKnDpqUZdNr699SG4CrN/zFYgnaFZSEVXXEFVQf4UIZaLCJ4htVPYUFGYMzSu4qb0aO6pWUW0CcYIsyBgf9uPS6qjD5orvqRvMlFHHINkS9EeIlzgH4hw4NDhAXrwP33ktNUXIkoSjjz0FV99yL5JS0qiXeEtjPX514fHUD8FgNGHyzCOxesWX9Ltrf3M/zr/yV4cGIw7CWZAr9+RWm9PThqzkIkwsmkc1CH0Vj89BteJEHlmNKZhcNA9W074ovaFMv93djE3l39FbbkSrkdvNST6U9r3rVDbuxCvL/wyR8aCtpR2yKEOUZGg4Bjq9Fj5Px80LBtAwLE0SRfbo1NFHozBjHHhWC6POBKevHVZTEjU3mPUWTC6Z3S8fwqEzZIAQTqfxunEOxDkQ58DBxoGayr347VVnormhjpJOAAA5JZKTZe/LXsTP4cUPVh7WfgcH2/qONHprW8vwwmcPgtEHYG91IRAI0KgBJK8CucUgiTLVjkiCTDUHPMeD13FQZIWayifmH4HkhDRqXghIXhD/29rmSuys2ITLT7oJx0w/Y8hTDjsOwpBHjHcQ50CcA3EOjFAOkNNZc2Mddm5Zj60bVsPjcmLviqXIIgnnVBUJWgZTUhnk5WQj/+LHYZl8/AidSZyskcoB4mexYe93WLb2NTA6AQ67G36fQIGoLMmQZQUcz0KRSU0Vfn+AggICVonjIi1Eo0AcEvVG+Hw+agIhZgXyvdfrA8dwOHvh1Thhxvn0RkikhXnltTfCCpQU6UDxdnEOxDkQ58BBxQEVKGr8Aknln9HU0n0VNSkfjuQJaEyaDq9+35Xug2qecWKHkQMqPKYq1Lm3QmfRUBMC+eG0LAJ+AY52N3itJmgeYAFREGkoZUmSqXZBw2uoLyDDMjCajSSWIgUWHo8XGp6FXqcHr9NQXwa9Tod86xRkshPBIrLrl8zT/3guDhCGcXvEh4pzIM6BkckBRlWQ4tyJRHc5dKIDosaETPt6kM9DKQE+AW5DFgUKAmeGyBlR5mRRWdeA3NLJSEzLDqWbeJ1DlgMqlJRmtMg7oDNpIXhleLwesBoGZqsedVUtcNhcSE5PgCCK0OqCAIJoFURRov4HRLNAwIGsKNAbtdBxemhYFl6/n4KIZGsKFI0AhZFRlDIJSaY0NNa2wuDLgpYNP09EHCAcspsxPrE4B+IcCJUDnOzDpPLXYPUG4+oPVkiA+g/LZZxZrBkwlv9/9yhY1aggu6AEs0/7v8G6jX9/CHOATXRDzCinJoPChKnwqXaU1+4GZ1Bha3HCYXPSaIgWqxE+v5/6IXjdXmpyEP0iVDBUu6DRaiBKIngtB6PBiIyEfBq7IdWchwkFs9Dua4ZbakNJ8gwEZB/cbhc2bl+NFIyGng0vNUAcIBzCGzI+tTgH4hwYnAOMKmPOjr9CKzrgDACNXgV7HCpkhYGeA07I398rnqhdt7cpmJDS/62szpFFBWjMOArl2ScNTky8xiHJAY1ORcnsJJiNZrgdfuTnFMHrd6GhvRI/bP0EttZ2tDbbkZWTBpZnQCwMxDHR7fBSk4IidwRM0oEGUSKmB2JuGJU7DhOzj4LKKEgxZyHZlA6WY6GoEjU9EMdHl9SC5vY6VDXshbF5bFjRhZn/ffTJIWFi6Ezo2n0yvZK8RnHjxa7nsIkcBlKGYYiwpx1vEOdAtDhgWv8KzJVf4d29CgUDaYaOHU+SPxG97lALw6LxpGcg8ANnOBzqMPH2I5cD+lQZU8ZPAwcDGFaGIAUgyTJ8AS++3/wJlq/9H3gdi4QkC2QleIuBaBo8Li/M+kRMLpgHUQ1ga+0PUFkJfr+AhIREHDPpbDCyBiqjwsCZkWkthN6ghwpiklAgKgGQUEStYgX2Nm1EjmdBv7kr+uIeExCEfp+AAy4YeudxH2D9Ca19TSQmcxiAru50xGTsPldx/5GiNnbHXCPpr3t2vZH76MYpO5w5ILna8OyFY1CaCGQZGZpBjxTLpOOReda92PunRVDlwTMHDsRDctOh8MY3D2c2H9ZzJ1dkf679GMWJ08GxPL0yS3wIFJUEP1LQ0FaNZd+/BbtYTeMfqCwJpKjSgEl+bwC5qSUYnzcbBelj4Ay04vs9S9HYVgdez2FG8THITChEu8OG6rYdKE2YC4spAVkZ2fApLqiMhDZ/NYpSJsKiS0Ru4sBZNnsv1IAAYbBVjURoDNbngN+HARj662dYaA6BzpjSMQiAGdIakMZMf/nTBu85DhoG51G8xvBxQBYDaC3bDIuOvJVZaPRmcAkZ0Bis9ObCnj8uhL9+R0QE8UnZSDnm/5A8/wpoDHHtQURMPAQaEUBQad8Mh68dGaZC8BqeHmaJCYGkdXY53dDogLKGrWi0V6PFWw1RDEAgZgRFi5zkEswecywN0qdAQr2zHOv2LketvQwZyTlItqSjyVaN5qYWyO1GFGSWQFJEXHPWHUhJTIWsijDw5ogSSQ0JIFBZMdwLGILwHYykYaE5BDpjSkcsQUJcqzDYFot/f4hwwFe7FXsfWhSyqYGAi7QTfg3LhGOhyyimoCNe4hyw+5rwU9UytLS1Isc0FlrGhPqmaqzavBwzJx2JkpJSBAQv6toq0earQboln151TDCkg1OMSLamQaNhaVAkUQ6gsb0SNW17KDjYXP8dBMmLmt2tsDe7wPMctYzlZRbhtgv/hKLsMRHnZtgHELrb2kIQbgf0hB7KfotgDgdCYMd0zO586oMfUR07DhpC2ZXxOgchB3beNRWiPRhdsd/CsEiedxmyf/EIGE1kd84PQtbESQ6RAyQ085JvXsSSb16CLDIwai1od7fA6/MiOSkV8xcehczUXJqKQKcxIN1cCJbhAIWFtz2AdqcNgupHRlIWPGwbqtq3wsynwGpIwrqaL9Da1Ibqnc1QFZUmpSJXIU0mA82q+YvjrsNRk46DTtt3ttIBt3UgEBjcCycCYdtDNoXIxGGpFuZcoipEe09wEFpiOnYnLbECDnHAMCzbOT5I7DnQ+MFDaPn0bwMOlLLoGmRf8KfYExMf4aDjgKRI+HTV21i64mWaw6Gt2QZRFOmpnpgf9AYddDodps4dB4vZgpLUWTCzGRAEHj6nC4I30OHUKELV8KhxbEFTYCt4noeG0aKpoRmt9e3BOAkcR/slaaI5nqPRFcln08bMxQXHXoe8tOKwtAlMSACBLEmYgnXEAoQw5xJzIR0HCX0+8HFfhYPuPXjIEqwqMrbfXAxF8Pa9VzktJvw01vp4AAAgAElEQVStAgynPWR5EJ9YZBwgVw0/WvUmPvrxDQSIX0FAhMvlpllESc6FTsU9MSeQmwt5xVmYU3oCrHw2JMYIDauBoqhQFQkkXFdF7Wb8sP4DmmqavCPJDwECnYWEWiYhmgkw6AQJJF4CMU8kJybjohNuwPSihTRldSgldIDQV29DAA1dB9hQqIx1nTDnEVPQEAItMR0/lpqFIWgVgrhuWGYe690Wlf57Jw+K8yYqbO23k8pnLoJry5d9fs9Z0zHu8W2xJSDe+0HHAZJo6Z2v/4kVmz8KagzAwuVyQRQFenvB6/VDVtTgiR8MNJyGmgj0vBlHTTgBOp0Z1oQskDgdLq8Nm/f+iKqGnTQ7cbAENQXUzYWEYSagQMPAYDTQq4yyrMJg1NLPSOKxVBKhUVCQmzwKV554O9ISsge98jg0gBDmabxPjDFSlj1M4RNTUTVCtQrBLTnEMgSQcLgLQbW6Gr7UVCiKQlWT5Id//33oH34YTGIicMQRwL33AqnhpbAd4ooeFs3d279Bxd/O73euxb/9EKbSIw8LXsQnOTgHvAE33ln+DDaXrUZA9NMGeekl2LRrDc2tQFQHAUEAq2Eh+iWqBdDqtB1hlUVwjBZ63oSctGKqRaho2gaf4IUQEGhkRZa8RxlQgEB+yDuBgACOY2k/BCwQzYE1yUQ1EOTdabYa4LSRrI8sTEYL5o5fjEVTzkCqNavfCQ0dIPTuOkxBO2JBQ4TzGLIA7ZMhg/c6eI3BN/WgNWLlrzAE7cBhARqcTuCBByAEAgg88kjXMmm+/hqGW28FQ9LEdsQBEa67Dsztt0NrMAy6nPEKYXBAVbHrvrkQmsv7bGSdfioKrn05jA7jVQ9FDhDNgC/gQbu7DW3OZlS3lKPN0QAdb8DKzV+gzdlEAQIxNZD8CgQokFQfxKmQ4/gOYR9M7xz8Pqg55bV8EFQEBJpzgWWJ/wIBCAwFA+SwQH7XGXTgOA00HIekNCt0Op6aF0jxuH1QZZLPgUeCMQkmoxWi5MeJsy7EEWP7zkoafYAQBa1CVE6q0dh9cZCwPxdjCBKCWyd8qBNJm2hsj2HpY9cu4IYbgJ074Vm6FMr48cFhbTaYTj8dbEtLEBzodPA9/DDkU06h/kJarZY6PsVL9DjQ+P5DaPmsH2dFVoNRd3wCY9H06A0Y7+kg4oCKNncj6tsrkGHJh4bhqbnA5XPA6WuHz+/BV+veQ2XzLgT8AQR8Ag2DTPwFSCGnf5rBEUHHRVkmGRwl2kfweSYAATQ2QtB3IahBJNoA6oio5ZCemQS9UUcBAdEaGEx6aCQjrNpU2D3NsLmaUJBdCoshgaYuJx022MtRkjse15/4IL1B0bvEBiD0t6wRvPxD2SHhi5RQeu2nTgRziCl9sYx3EAqbYgUY4qYIKLW1YI87DnA4oCQnw7NiBcAHnYv0V10FfuXKIDjg+SA4OP30HitmMBioB3O8RIcD3op1KHv0xH470+eOR+nvv4vOYPFeDioOtLhrsKrsE+QkjEFhylgq2InAJT9E8Fc17YHLZ8e6vSuwae8qGiGRaAIEvwStnkd2fho8Dh9am9qpcCfOjTTFM4UMRIPAUYBAtAoEPFDHxQ6AQECC3qCFyWqETq8Fz2uolkDD8phWtAA8a4DH78SmyhXITMmHxZiAkqxJaLRXobx1E44cdwJOm3l1n/xm/N2uOcZUkA0jaBjWeUQAGIKLHsNyqIGGIYCF7lw+mDQNVMX4zjsw3HEHnYJcUgLvxx8HAYHTCcvRR3eZFgLnnw/hgQfAeDyA0wl21y5oNmwA6/OBf+ihLlARwx13eHStKth2yygofne/880670GkLr7u8OBHfJZdHCDBivY0bkK2dTT0vBGCKEADPUqyx6C2tQIOtx1by3dha3kZfMoOBHxeamogACIlNQEarQl2m4L25ioqGwgIIJqCIMggj3AwRDPRICjyPvBACCA+B8SHgfgfUEdHVUVKUhqOmX4GLCYrBRqKrKDZVYOA5IWqMNha1oQjJpciLTkF88adgURT335LPQBCzAVXXxsqQgE72N6MqQDuPXgEc4g5fQcSJPQz9pDmPITwzgcbSBCEoPqRe/ttGO6/PwgQxo+H9/336e/6m28G/8UXQFISFL0enrfegv7OO8H9/DMYojrsHvTswQeBq/s+HQz2DMW/358D1f/6JRxrP+iXNQyvw4SnysBwcfPO4bR/BMmHL3e+SU/2ycZMcBo9nn3nA1x6xkJ4Aw5UNe4FBz0CgoTv1m+hzoYpST7IkoTcwnTqY9DUIKNybyMsBhJmWQC5BUEKMSEQcyFxRCS3IQhwIMmayPuUHHoIQCAaBuJ7QHwZSJk7cRGmjJkbNDfQGxM+erXSYDLCL3jQ3N6M5Ws24rHr/4j8tFH97+fuGoSBFnRIL/do7pQIhHHn8MM+hwhpjQmdBwowxAIsUCQb5FI0eDWSNAuC3Y5Ah1lA89lnMN58M52nUlAAz+efEx0jzO++C+bCCwGrlX6ntrYCp54KpqZmvydNnTwZzGefRfMJPPB9qQr89Tuhz+nwxxhGimw/voW6V4Nr0l/hk3Iw5qHVcZAwjOsyEoaSFYkGQqI3CxgN6lua8J/lH+LYIyZgzd5vIBLHRFnE3rot8Hok2Ox6aooYO8EEnY6BzxvAjq1u8BoRkF1QyT8a/IgABC0FBpIoU/OD20VuI1CIAGJKTE/JgsNrg15nQKIlBYtmnIHEhAQa74Dn9PAJHjqW09eKRHMqspMLAdWAt7/8AHdc9CvotX0D2v00COEyOhov6HDH7LN+hMI4WkImpDlESGNMeXyggENvhnWjI+L5HuxahvXr4V+7FiIR/uTRLy+HmTgdkmuNRFPwww/Qp6f37VewYwdw7LHBjKZGI+TSUqgZGVCzsqDtdvMhpH06wis1f/Ikmpb9GROfrhp2Idz+8Zuo+d8tg3Io/bQ7kHHq7YPWi1c4tDnw3aYf8eFPb+Ps+SeCAYcvNr2DhpZq6k8wrwzwOXVYkaiDnMZBFe1ITdehsYFBwOeEjvfRelo9MSEEYyQE/CIFCE5H0MxF3pWFuaUYUzgZJr0Jer0ZqdYMpCVlQ9VIMGktFJS0OOrR0tKE2ROPQn7GaOh4PRzffIYln7+H9RmpuPfy25CZnL7fYgwZIAyrgB1sL0UogId1DhHSGLHQHIxndPL99x7TcaMNEvrQKnQGFApXSxBu/VDYPGidF19EoK4Owq23BqtKEkxHHQW2vR3IzYXy4Ydgs/q5syyKEJ5+GuKRR0IZPbqH34HZbI7odsig9B6ACpKzGTvumEjNKOMe2wYuYf+XWizJqj5hEfxVWyFnqVDSASWhfzVW8e0fw1QyO5bkxPsewRz4bNdPeGH1h3DsqsT5c47D7IljsaF8BWqbyuERnLj0i1boJMBh0uDrM8ehvkJGi78Bfo8XPj8Lk8EDXuOnVxfpVUWVnBUUBAIi7G1O6otgMhswtnAKFs86FyadmZoTjHozeGLi0jDwezxwuhyoqN6D2pYqKKwPd131OAUIZZefAdHrwcr0ZNTNmIlzF52J8YWje3CU8fv9xN0yJmyOTa9hkDqEeQ0r7RHQGXP6YmUaCHH5hkVAh6FxGBZ6PvgA4ocfwv/3vwe5ROK0X3kluLY2MK+8AhQWDsg94a9/hTR6NOS5c4FuVxwPJYDg3vk9Kp48m/LBPG4BUhdfD2PRDGhMiSHurMiryXY7KiaPg35aMjTJeni+rIWqB+Q0FUoKoJoAVUuunAbH0KeUIvf8p2CYGQcJkXP94GwpKTJOe+VOtHrbwcgq5hsLMCGvELPGjUero5Gq/POWfAW+ug6uMbmoP34eKirKIVpa0djYjoqqNvgEDlpOgNXCoCAzH0ajDk32KvgDfrQ1tsPv94PlWIwvnoZTj7yYCn1OowXH6SCSJE/EHCGJcDjtqKvbjR83fwS7twnnnngZLln8a1RdfzEkWyuMU2bAfOu9eGbJv3HMtKMwd+KsYCAmgn0pQKC/xUbkxKbXMDbNEOY1rLRHQGdM6TvAWoVhEchh+jHEnCaPB/JNN8H75JNdzyO3Zw8M+fmDR0cURWDaNKg2G3Vo9D/5JNQOQHEoAYT21e+i5qUberwASKjj0t9/C86aFsaLIfyq/i2bUXP6cci4dyZ0k5NRc+bnPTrRpASz5cltwch5pBjnT0T2W58CTNxpMXyOH7wtSMCk+z57Gt9W7USGOQlPnnQ9Vm1eC1/Ah4XTZtHnWxIC2Ll1JfwmFo3NTdhdswnHzT8NkIHK2r1w+GyorpfhDQSQaEqCqATAcwFoeQkT8qdh657V2FW5CWNKx+HkORcj2ZIBmdFDEGXICiDSmxASHK527CpbhR82fEjjKWTlpeGiE67DLOMk+Nf+BOuxJ4FLSqE+Di9/+g5MegPOnn8KdFpdN4Aw0FpEILwGW9rewo2glJgKvE6ChjCXYaFviHTGlMYDDBq69lQfdERt3mGAhpgABp8PAeKpzAUzsYUc7GjnTmDRoi4WKTodvO+9B4wZAwIQDpXi2b0S5U+cud90Mk67E+mn/AaKFIB3zyo4t3yBQP1ueuVLl1ZItQ2WSceB3DJgWE1E7HBu+hxVf78E2jWAxsZQlW/3Uvzz2VB8EioXLuu6SVLw6cngS48DDBdHNGa80cHJAXfAgT0Nm5FhzSNhkKBhOXAsh2/Wr4Rf8GN0UT7BAdAzDDbsWYn3PnkTR8w5ArMmLEROUjHN0ujytYNhWSxfuw6lufkoyMwgPWF3dTXW7tqEbRW7oSgupCUbMH3cVMweMw8anuRbkGjExXZbPRoay7F8w4cQZR8NvKQ36JGYZEZOYRqOn3gpFk45bb8ASdsqd+GtL5bgjot/feAAAlVadKx99+csai/6GAGeYaFvCCAh5vSNBJAQS4BAN2Z4NyRiAhTCeC8Su6TwxhvQPvwwWBKWuaPIOTnwf/45TMnJYfQ2sqtKbht2/GbMfkQaS4+A2FYDydkCVQqGnu5dCDBgjQmwTj0FmWf+Dpwl9JwVQksl9v5pMWSfg3bLiABbD/A7Gfo7KRmPzqEvtaY7V3cNbZiRBvNp5yHhl8HrqvFyeHBgV+N6tLY3ITOxEAGZJGNSIUpetJB4CHt3ocXuQGleJioqN2LjjlVwu91YOH8Rpo+ej8KMMTTIEXFGJCYDuaISjy17CxOmzcFJc+dDhYKKhp14/j+Pg9UCCckJMJvS4POp8PmJn4IeisxAlSX4/DYIghsallyZlAFVgsliRHp2EiQ/cOKMXyA7rQR2F7mKWYu61np6VZNoOhxuZ4gAIUbCNpytciAFXyh0xpy+7kREoAWJCX0H0k+h19gxmV8HWAi37+EEDOSE7PP5qHoQggDt889D949/dJ1glSefBHvBBaFs4YOmTl9mhnCJJ6mZDfmTkXHG3TCPnb9fc8XphOv9pfB8+zWk6mq4SiuhqH2keyaRcH0A4wFYG8C6Ov5WGagMoJhVmM44GXn3vBouifH6BzEH9jZuQk1bBQy8GX5ZT7M2ErODIIo0JsG23euwde82uBy7IIoBKpRzMgpx6ZnXIie1CAr0ILcYdXXVwN+fBLn0+GKaBZaJkzGjtAjvfvoSquvLqfMxCa+ckGyGxWqk2oDTKrVIcGsgMsC/ktoQYAloUKE3GIIJ3rRaWBKM4HVa7LHrIKssLp53Os6afiw1K+h4Lf2RZCkKAKFPqB7uKzWynTAso0QgjDtnMyz0dQ0W/mjhtwhxnQ4UcOg9LrlEHC1tQ5hahb4fi+hznDgqkeAp3Yv+xhvBf/UVUFoKkBgIh1jiJlWRUf/2nbCtiILQZViYx85D0pEXwlR6BBheD8nZBNudD8C7fDllq2IBAgt62RNCfBRINUP+FJTc81UYLeJVD24OqKhpKceepi3QcjoERAY+gYXf54HT0YTa2h2YuakCy2UVG7R+QKynJ3viZHjlmbchNzcfHJ9Ohb+hcg+0zz5N2eGbPAXfTxqFpV8tQcDdAEn0dB0ESIAkYj4gMRMesmUgWdGA6AweyrTDwQcjMKZnJcNgIgGXSDA1BmxiItb7grFUZmaPxj/Pvn2/9M/7nBSjvSJDEKyhkhL9120fIw9xHsNCY8dJN1S+da8XE/oOlBmi+7jdowkeoiBBfe01eIuLoUyZ0nPpnU6Yzj8f7BNPAORGwyFaqp+/Co71y6I+O8YL6JfvezKkYhXiEGIyEVPGuL/siDqd8Q5HJgfK6rfjxY8fQ0ZyLlKsGdhbswMt9jb4/G4IghdzW2Wc0KylJ/wXEyRs1LOA2AqeU+iVxZlT5yIvZzq0nBWMJEL37RdAuw2N847AO1+8jPKanWB16VAkL0RfWzCiIsvCQDI58hxmBgyY79ajQa/iwxQfVJahORxyCtJpngZy84EkcxNVFuu9FgiMBqO0Km6ZfzFmj120DySoChhf5y2G4XYS7P4CH8IpuL8tEhPBFwU6Y0pXv8wIfdTQa4b5cB4o0DAQmd1oinjeYVyV7IuUiM0RJHHTZZdBsVjgffddqDk5PbrXiyL4Q8j3oC/eVTx1Ltw7op8cSdMAaNft2xHCVBVybpj7vVt14hg58ZnayDuItzxoOOD2OfHImzeh2d5AfQhkiZgVBMiSDFlWoOFY5DhUXNVoonN6PtGGXbwMRZMOjnGBYwSwGgZnn3ItirKm0oyLjEaAPyBgxY9fYMVP79M+REEEZ0iFCh1Ebz1YRoVeHwQIJJKj3x+A0ainIZzJa47EUUjLSqZaCXurA5YEM3WCpvmgeB1MHKgG4+Jjb8bEgjldcVMYQRRpPEea/JFEbOvrEH0gl2eIJ/gumT4ccxgCrRELqEjmFQGdUadvhAMGqpQZAm8jatsx3mCgQREEsJMmAS4XbSFNmQLvO+/QUwQpJLGLXh+8cncol133zILQWhn1KXIVAL9t3woG5qpQQvdn7PMNOun55qjTGe9w5HFge9U6/H3JPRQMkB9yc4D+3pm6mQUNqWyWSBw0GS5WoX4BxHdA5dLBQKJAIdGcjtnTj0MKEeQMUF5ejs9XLoWsyMHTv0DMiipklYfOOhqsVAsoPvrsEzMD0RiQV6zBaKAhmY0WPUwWA00vTTJGklwPWVnpFFCQPA48x1HNgcFgxGXH/hajMidRkMAo1CARjNAkKwr9v68ylBfekJcxAoF2wOYwBFqHlccR0Bl1+kY4SIh4vkPUKlBw0g9vyMvE7XJBd++90JJrjB2FxE6QTz6Znh5MpuDp5FAvJKKi5GiK+jS5PUD6ognQjU1C480rEThahTKEOEyszoQJf48+kIn6xOMdDpkDdncrXvr4ryir2wqv39WROyGYvpmo9v1efxd46IzySo4i5IRPMjGKkhaiYoEq1EKv11KhLYkK/IEOR2SGgdligNvhhazh4B87CxoBMDV5wEjt4Nk26HVaGLUmNLc1ITHFSjUF1kQDOC0HwStBkhQ01jUjOzcDRlMwJTwBFaQe+TEZzbho/q0oyhhPkr8Fdf3kv84f+neHRkHp+HwgzkX8Ih3qckQg5LoPOWx0D4HOkU5jzOg7UI6OfSLLfbOMxnwH0xD0TQJDn0+PxxN8TiUJxnPPBUdyMJALTAUF8H7xBY15EEn/Q30UD0T77beNgeyxRX1orgwouG0htMVWVC5ehsCRKpSkyIfRZYzC6D/+FHkH8ZYHFQdWbl2J1z57GC6PHyxEevAmyj1iZvAHRKqpJ9oDEq2QaP06ky51PrcKOASkBPAaF1jVRzM/ipJET/8ERJhNRiQaM+DU8KhODqq29D4Xkltr4BdMMGqBktwc1NvLYEkw0DGIlgCqAluLi/oqeNxeqCqL1LQkGjyJAASW1SDZmomSrElgNSwK0kr3AYTeK0BeQkSbQABCb63CPuQTbBWNl2bEO2AIwnfYaB8CjcPK2wjojBl9I0m7EOUrlZEK8K7rjB0Pi+brr2G8oSOqYHIy1E2bwGgiCwIU8fN3ABtuu6kQSsATdQo01YChRg9Gy0Jq8kGYqULOjHwY67RTUHDdK5F3EG950HBgV/Um/OvjR2F3taKpzQCr0QkGMjQcA78v6IsgyUHfBKLtI06DRIlPBDjN1E6iHJB0ztZM+O066BQHlEAj0fEHbx+AwZGTF6M0byICqoyPGneiwetAuqMGRskLjYaHhk0HGBNMFgd0BpmmgCYaCnurEw6bGynpiTQ7ZGVZHfLysmFNMkEDHnnpYzBn9GKY9FY0O+qxoerr/gFCp1ahx/+dWoUO4BDKqsVMgPQePALhtl8XoUxoqHWGQOew8bL7HMOgN+b0DQIahj3gFkWYw6BdIM/be+/BO38+0D0qItEinHwyNC0twIsvAgsWDHV3HlTtt91cBMUfzGoXzcK2ALrV+9ZVHKtCKol8hOxLn4IhqxSytx0yoVdVQcwOGlMSiHYhnIBNkVMRbxlrDuyp24JXv3gcHskBwS/C5Qyg3aVHktUHhaSCFkWqBSD2f6KiJ34HHMfSGAnkVE8O4xwR5IweTYn5YEUFFrsPBp8HPOsEywQgS8DZx1wBk8FChb7DY8MXP78HcBI0jAaFeSWYWXoMyhv34tv1a2ga6dQU4uOgwO30wdXuQXp2KtUYNNQ0U1+lgoI8TC2eh9G5U5GZkEvpsrmbsXzn2wMDhN4M7W6GIJPpdG7scnLs62bCcGoYwhBm/W2WmAu5XkIl3E07LPQNAXzFnL4w1zjm9AwHSHjxRTB/+AOkGTPge/VVkiC+a4W0TzwBbUEBmCuvDHcrHfT1t982GrLHHvV59L7mKGeoEGZFNsw2mwqrFsgz97MTGRaW8QuRefZ90OdOiGyQeKsDzoGyhm14c/lTcIs2agJ0t3vh9wvwCxxEmYNR5+7y8/N7A1SFr9caaK4EEpCIAARy0ifaRRv0aLTk0sPHJKMZx+dMwY6aOrS7W8DBhaMnL6aC3Wgww2JIgMvtwq6ajfAKTuRk5iM1MQNrd36HnzZ8Cz7Aw63JgCVBgNkkIeDzw5oUBBdiQEa7zYXFc0/D9NL5yE0tDDpLQoXD04rtDT+FBxA6V6HTxND5PzFBkN+JrSWUEtOXdpgCZDB6Y0prhCf1vmgeNjojBDgxo6+/2AcD0BkzWjoXJopaBXXNGmjOO4+mfiYlcMUVEO6+u2sL8AB0vXItRGrCGOxZGGnfb/t1PhTBFxOy9J/vC6GssoD/RJWE1A+r+CTg5yYFC3JCazj6wdXQpReHNUa88oHlABGmVU278MpXj0JQPdTe7veJkPwqvD4PvbJod/AAI8GgC4BjeXAqiV4oY1rpUdhTtQ0S44coB3+IHPX6AvCZk6GwHOak5eOUOZeC1/Aor6/EF2tX4viZ81GQmQODTo+AIMDlcVCQsadmC5KTkgFWxUc/vgG33YE7qyyo43VYkqSDK4GFQeuD1crAmmiCKgMZ5iLMGr0IRdmjYTZYqT+Ex+9Cs6sObr8tMoDQfUm6QEJ3Z0bit9DL6TGUZRzOF3co9PRXJ+Z0RiiEe9M7UukcFrr6RFH9jxxTmiL0YaAvC5cLhrPPBkeSMRETn04H1+rVYAxB7+NwrjMeSsBBaKvBrt9NH8pjPGBbfgfAle3bFf75KtRg0LmQy/tlCs4oZmnI3FBKwvTTkH/tS6FUjdcZARwg4GBP/Wa8tvwxgCN+BiyEgAQ5wIBj9LA5m8BrNQj4BbTYtCjKTseCSceB0/DgOR6iJFIHROIPsKt2A7ZW/kR9FEiiJXLjgJghMpJzcO68G5FsTYUkidBoOKzZuRk/79iIixafDpfbjqbWekiKgLL6bRiVOxatrjpsqfwJjCuAu/eaCV5AZZoGX841wW4T0NSoRX5uAtJTNDhh+oXITiyGQU+uQ7JUg9DiqofN3YREU8rQAULvdephhujlq9DbubHPd3gsFz5K2oUQn/ehz2SI9I5kOoeNtv1Q04EHCaHMvTPHAr0jXVsL08kngwkEkxD5r7oK8t1309jqnXnbQ91shwpIqH31Zth/fCukaUsKsLJBwfwcNmSHasYJ6FdE7ofwvwoF87MZJOpCWe3gNEgiqQlP7g1pTvFKB5YDoixg5Y6PsHzLUsgQoTNoIQkiFJGFVZ9NkzPptHpUN++Cy+NEkikTAXcaFsxcgAQTT/0FeE4PDRPM2tpkr8ay1a+AY7Rw+9shKTIUWYHVkoBjp5yLsXnToOMN9PNWewPcXh9WbF6NlvZWJGpl8DwLaIDxxVOwctunCKhuCD4RJzbzKGln8M1EHVpSybg8Fk/4BcymZKzathmt7Q6cNPcYjM4thgwBDm8rTPoE+AQXSjImRx8gdC7bflcmO25DdP88lCUO/fEKpbdudYYofLuPFjMaewwS+SiRtwyTp53Vw+TtSKJvWGjpgz/dx+0ODjpZqn3kEeheCXrCq2lpUNasAdPNF4F+EUH8hYMRMCiCF9tvHd1v1sbeu7bCqcLAAXa/CvL76EQWJYmDrLRCwi0DjD9YT+UB/yIVIDadQcq3dQrGJjEoHD0RlsnHw1QyF3xiJjSmZOqcyGiCPiQk62TF386Hr3JDV4/j/1YOjd4y2BDx7w8gB4gA/3TDa9hc9RM1CeiNwcRGigjkJpYiyZSFRHMaDY5E1PXby1dh0VobWtwS3spJxdxJuRhfMBUplsyu2AM+wQu7q4lmcay17cGKjR/Tq40E0iZZUrFw6plUm+DxehDwB+BzOZDx9bfYYG/HJ1YeWSkJmFCUD5u3GvWtleB4FgG/SGlztbtRUJSP/PQSlGRPpoLfqDdTjcEXO9bgtWXvIlVnRl5mBsYW5WNqyXhMH3UkWEYTO4DQe/2oyaHDV4GCBPqEdERw7Me5caA9ELMXeZjCrT8aY0ZflEADlSfD9ZCFydNho6tDqB6QfdbXoETAe71QH30Unjvu6BHPgP35Z5guvRQwmaCQREx5JM/8IKWD7+Hw82AADPYf30btqzcNNnv6fbNPRbVLxcz0fX4Ae9pV5M27ANb6nyC0VffbTwjdMiUAACAASURBVOdtBtOibPg3tCGQ7Ic4bvBhbX4Vc/70LfS5EwetXPPyDWj/6d2ueuMe3w7OmjZou3iFA8MBr+DCj7s+Q03rbngCLuSkFoK43pU3bkFecikMfAISTWn0toLFEIyuJZWXIfmlN6m8W5Ggx4epLE6bswiluePR1FaL0UUTqO3f5Wun6Z01LIcVW5Zha/nPkGQRLEkoZrBi9hhyBTEBNlsbWtZ8hwvKg/43W3kR/0h0QmtIg9HEw6D3g+eD4QkICCChlS865VpMGTWX9kW0FlpeRy5O4qZP/oU6RysMCnBF6WSU5s1BdWMt2t3OoMmhM1DScLC7u4mhU5PQ6eBIb0WEWcJ58YXVdZgC7WAFCTHjXz/CL5w1GEm0DRstsgzmvvvAvvYa/FdfDfG3vwWNsEKKxwPzySdDffpp4IgjQmflIQYSRFsddhLfA3Vwh2inAGxsJar+nk6CaSfdgswz74EqS3Bu/pwKaG/FOkgOct+8WyFahG8YFH95Jhxv74Htn9sQmK1CCUF+J84+B7lX/rMr/HV/C9YbIIz98xaqbYiXkccBRVWwqeoHVDTvQKKRJD7iQT4j8UmMOhNMOgIISGKkoDMiz+kgyiIUnx/mV9+EprERK8w+vKtpA2fIh1njRYLZiqvOvA0mkxkObxushiQqmOtaK7B8w1LYaNZGmfr0kfSMHKtHY30TjAEJN3vSkSSyeMtkxzqTAL1BB73RgoBkAgmHYjaJgBKAgbPgjHmXYULxNDCMBqoqU1OFR7Th/m+WoNrpAO93IaOxDOcsuhLnLb6amkf8QmB4AUL3Je9+E6JTo9Bdw0Dqhg8ZYnQqjhJgIHMaFmEzBHqHhb7uGyFMWnvTFwwdMgxlELNAVCh4801o7rqLdqWyLNzffANk7hMW+poasGPHDmm+kWoIIm0XFb50dEJiHlT87Tx4y9cO2q1bBH5oUHBifk9wkHT0pci55C/UGat38VVvRvuapXDvXAHZ1QbJbQOcfqTq8xHY1g6x0gVVAwjTVSgZg5KA/F/+CwkzzxywYs2L16H95yVddeIahMH5eqBq2D3N2Fy9isolIsg1jBaQya1jLSVJkIlADWJXBRq4vR4Y9HpIqhaKqKCpfg9e/OgxiIIAmRgPuHQk6mVcdNJ1SM0ogM/biIzEbAosGuxV+G7Th2hsr6LaCEkk1yFJECUFtuZ2Ol6CxQyNpKDV46GOjryOg8lsgE6vBVgNXG4DAgEZR0ychvEFEzEqrwRmg4WGfRYUH/Y0bcB/lr2NJn8AvN8NRRSoyeTIKYtx3dl3IT05+8ABhL4WmUZu7G6G6DRFhLkjYiIwwhRkA5EcE/p6DzgEeoeFviiAhGEPjBRDkECSuohlZTCddBIYkSRiAcTFi+F/5hnqW0BOK7w2+CIiZShrFKmwj7RdmI9vV3VVEkB+SJGcLah67gr467YP2p1DULGyQcXJBZ0ggAGrN6Pg+ldhHjtv0Pb7CFDhrVwPx79fgveN92l4a1pYFmqSBv5ZArAvJMX+/TIsRt//A3SZpf2O2Tsj5YS/lYON+yCEvkbDWLOseTPq7JUw8Caw4GFzNSPBmIxEUzo8fgcEKQA9Z4Ios/BIKl7/6B0UZuVj7uTZEAM+LPv6Beyt3gZZlqkgBsNDo8vBecechoL8iVAUD9KsiTQ+QlXzLnyzaSmNyEiedSEg0kiK5OaSw+aE2+VDQqKVajBcDg9MZj14HU/zNLAkpwJHgjBxsLU4ML50ITburMORk6dgxvhx4PUSGr278e0PX6FsZ9DERp5tEsEx6Aqg0lgKN114/8gCCH2ZIGjI507/hSFuhqG8VPsdegiCeD+ZPsT5hdR8CPTGhH/9ET0EOntgj5CYEmGlEGgMhWfkhREgNxRUFfyLL0L/+OOUIKJF8KxcCU16Os3g1qPEAKyECwDCrR8ql1VFRuPSP8L2/etQBR8N3EKPZYOYIUUF+O8eGYtyWWSaGLAsB+v0U5F24i3QZ44Cw0ee4VJubwcEgdJCwlkzWh3aN7yP+v/eA1X09zs1bVohRj/wIxhN396Nu+6dDaGloqv9pOeae0TnDJVn0a5HwLfPL8IriNCw5P48Bz25encYl3pHGVbsXgKnx0FjHBBQf9asG2B3t9DwxInGNDjcdrT5/JBovgURNocDn678EqroQH3DWqhqMCkiEcL0GVc1SEqdhItPvgx6nYqMhFToeB7ba9ZgxdYP4Pf7oWGJWUClTodEO2Bvc8Bp9yA1PQkcx6M0YxoEeOg1R5LgSWvQ0kiJREkmCTLY9MnY0GCD0SFgalY+6psbkV+iYvu69fSaZSdAoLTJwZhGpPCcdmQBhN57rzMfRJCR+5JJ0URSh6DPAl2o4XgAQxBs/crt4aCvc4wh0HkwgQRiw+zcz2xZGQ2f3LkP/EuWgJ89u2+uH4IgQXK1oOLJc0PSFHQyxREA1rUoKLIyyDUz0PI88q5+HpYJx1DNQSyL5GpF88dPoO2bf/c7TOKc85B31T/7/H7rDVnUF4K+kFPyMfbhdbEkN6S+3X4Bdpd/v8B3BChYDFokmHSHTUKw7gwjz6jN0wjiqKjV6KDnzTDprDS3AgELa3b8AKenHabEHHgDbqzeuAw+jx92RzPqW5qhsqmQFR9UsRmqItFnnIix5MRcZGTPwIIZRyMjNR1Jeh7rypZjY8V3SDXmwmpKxt7arXC5HcFARm4f2u1OZGaloSBzDOZPPB1+yYNlK1+D3qyl2gOWJ1oKEttLg+1qNlr8fjreg4vOAs8G8PLSF9DU5IUKHgz8YFUSApxoKToAApWvzMgGCJ2Ls5+/QvcrkyFt+YErxUwoR0nAxYFDr/UjfO0NEMPg9YFc7/18KFSVOjl1FUmCafZssCRrY3ExlA8+AJLCTCUYLeAwzA6OxOZf8dezQgIHXEIGDLkT0NrchPqyrSi0kDC1oPkNSu75GtqUEG55ROHd0dmFe+f3qHvjNz20AV04l9Ni9B9XQ5uS22NE2efE9ltGdX1mHn8Mim7+bxSpCr8rhyeAdg8BrP231XIaJFsMh71GoZNDghjAs0sewaoty2HUmZGUmEPjDKzd/AVEatdXMNGvw8mBNHxj0mMN74PMqlBFGxTJg8y0Qpy44ApsrdiN8cVjUJKRQa8rNjkrYdGmUkfH+pYq7KndTLUCHqeXahGy8zIwufgIzBp9LPUr2FWzCSX54yApInbW/4zatt0oyBqN9Myj8M6WlciymHHhhGnwiz48/dIj8JMopCqBEHokKelo5Bkwih+q4gGj+sDgADophr91gy16xFfo0Cp05YXodn2SVg5DaPSm50AKkVB4EzP6ug8+EvkXCnMimENM+TmAwKbREr3eHicy3R13QPvdd5CXLwfSQnCZH4gn/azhkOYbA+BATtEEHHj27p8WmcQNMI2ZD/O4+TCVzIYuayw0hmCsgN1/OAKBxmBwIRJjgKjz+aTscHdJVOqTzJKNHzwc1Cb0umWRsugaZF/wpx7jCK3V2HXPjK7PUhdfj6zz/hgVWiLpxBcQ0ewgaYAHdw8nWyDRqIf1MNUmdPKXaAz+8e5D+GHDlzSvQlAWBc8vlI8qaIyEC71JWCRaIUPFvVwV6nkGvCEVrEYPKH7MnjAXC+aejh82/YS0xFSU5qbCKzZDkRQqyN0+B3ZWb4DX70ZzYxu8bh8KS3IxtfhojCuYBb0+CQzLw8AHLz6RpE8+0QmrJZHGM3D6XfCLbni9TrS0tOGtj56j9BK1whyvEb9wJKKW1+ADqwN7tDJUhpjj+INDgzDQZu/u1NilHuk0QQxBwFF8EclTNlibIdLUQ/YNNlY0vh8CvTHhXyRzCnEOMaV3AJBA/A+IH0Jn4b79FtoJE4CCgkhm27PNAHMf0nyjHJSp9vVbYf/hjf3mayichvz/ewHElt+7uHesQMX/s3cd8G1V1/t7Gk9bsrz3iEccZw8IYSVhj1KgrJbZFgotf2ahpWV2AG2htLSMtpRSWkbZewYSRgIJ2bGTOHG895atvd//d+6TbNnxkiU5dqLbmtjSe/eee9643z3jO49eMPBx4olXIeuyP0auswh7sFdvRu2j34HgEZkvqalyF6Lork+H9Oxo2InqB08d+Cz7ykdhPO6yCEef3Om0mDV3WyZcTyc4ikbJI0kfPqPn5KScXmd19bXjkefvQsWBrSzegIIIKbYgCBIogFAECD6UuHl8z5OMbnjwqLSZpb9KJBQnIAEkKqi0GSgtXIzC3BJ0mXpY9cXlswvhk9pwoLkCZqsJXaZ21FTVMRcDxf/oDBqsOuZ0LCw4DipdBmRyNYhQkRwLxIPAExcCKObBDZdHAqe7Hz29jdi+azO279/AMi5oE73SpsEFZj3Lzvh3Yh92KlwAx8MP/cwHCKSOkawKwfiFICHTwK01wcVirFsxohfrmB1Hp+fo9DLOwxiBHqdEvpHED1PmmMsZIg+lPtGLhKiTeYXo443p+NFyQ4TqeRIy0zztddtR84czh+66OQ7GYy5G9lWPjWoJrP7daQMshBT5X/bnA+Ak0mmxijQ8cQXM5R8NAoSc+Si6e90Q2Sy716L+se8OfFZw6xvhZVlEcab95Cu3jh5sOdZQcqkUaUYN27UeCY0W/tqWfbj/6VtBIIHAPdVQYFkABBICBhif38cAg89L2Xk+FgBI9zvxHFA1R/ouuE7JeRkuuugCGPi5+KqiAvWtzUg26HD8kkLUdW2Duc+Cqr11cDvd4ruB+pFyOHX5+Thx8Zng5JSpkwgJUTfLxO8IHlBQLQX9un1u1DR/g82bP0Nj24GQ3S8HmUSC1VYdOEjxsVYCL3TQ+F1Ybp/mQYqTvdkOSpUMXLGBWIbJdhxyXsxe3mEuYqNNJWbyDVsQJqvKKZFvuoOECVzrmOop2iBhEq4H8sPv+1nZQDpj8JLpF5+NvB+L1NKjtT035cHvsrOvDUu/jdxr/zXZ2zHq55nL16DhiUFrAKVXEgAIbQ/85Hyc4l4PtUy8ysX3fgFlVlnUZRmvQ9rxNnb2j3fYmN9LJRxSEzRQyA/vTAeKB1iz8XU8/+ET6LcSHwHHAhQJIIiZCUSUJKYp0zpEoICAg5iNJ67LVNaZMhMIWBCgEBl/OCw7YS6WzjkOn7VbUdfRDY3Di0S/E6Y+P/xeO/w+D7wuEwSfnQUUSiQCirLKcNlpN4BXyiGRKSBRUH0HAYJUBp/ggdfvYuPuOrABa9e/zDgYBI4InOUQOGJT1AOcDBx84KVWSDknOE5AiV2GazoPEwvCWHduaPZD0Iw7aj2ICbywp3xBjkCmIWt5RI//BE+OUNaYLobjTSFM2WMm6zhyxGzcoH5iABpGk1nweVDz+zPgbKoYcnVUeYtQeMeHAzULRrp0ra/cjZ61/xj4qvAXH0FdMOjPH+9yx/p7T28z9v1y8cAwxuMuR/aVfx74+8s17+C+m6+CUgpcVCzBUakSFP9qA5QZs2Mt2kH926jaYL8ItCJptKtN1CmhUyki6WZanktrxr6GXXj23T+jurkSLnfALSgAKl4HuZSHVm3ArKxSrP3mbVapkbkdfAIDCdREGCAMkHQxaMCyBihugINWp8Zxpy3BFz06uPwcK/h0tLILFZubAXkq3JZa1otERpkKSkikKkh5IxK0yYzzQC6VQa1SsdA7shz4BC9jdbQ5nbBYe0FeTIEjAOeFzN8FicQLCUfAhiiZBVYpkuQgEjGpAJzaqzg8XAwTuaOGpEmGlKYOTaUcsZ8wF46R+ojJSz0Kcg2sCRNRYKTHRCBvUH/TgRhpLDXE5DqPsXBPyfWLAWAguesP7EX7+peg2/z3ISqVqg0ovPNT8MlD4y+CnAt9vT3Y9MkbyPriPsAn7tRUBUtQ9IuPI71Do3q+p78d+34+f6DP9O/ci5TTbxz4u6O1CZedvoQV9KFm4IG/vrYeucXj12+IpqC0OLX1WuD2DsbARNI/PQM6tYJlORwOzeN1o7p1Nz7d8gY2lW+A1WZmlgH68Xi8SEnIwLELTgEvV+FAwx4UZJbg/fUvwUzWBUECOp+CFJl1gQta9jnRLc4AgvhWC97fpQsLIMvMRpOdh7SvC97GGtitTkhlPGTqDFBFKMHTA/LmqCRS3GLNBCfhAZ0eO5cUwy+Voru/FSZ7J2yufjgdDnAS4mTwoTe1CB61gbnyEms2QyolS4IoiygbEbIRSCA3XUCuqazFcKhvmJGImIa7Iw6SMYKFLeYv8CjIxm7OqbgwEchK8g2Pq54SmcUnd8LamfiRE+5y6IGjyHIoxo1kzAOVFbj58jORyTtx66KhMQPZ338cCcdcPMJjKI548+VnoXrXRjy4QgZJQIica55CwlHnT1KpsTnN0bQH1fevGug864pHkXj80ADEj958EX/+9W1wu0Tf/5+ffQeLlofB9BgF0QkYtPZYotDT0C5UChlS9Bq2I52Jzev3oqppB74ofxdVLRWwWi3o6epnCy3LVvD5WczQ0WUrWSohFUFq7WpCelIWWjoboOBVkEnl6LeYsGnnOpjt/QPFCUNfZrT+EDgQveACi00wGHUMOBCHArl/6LGnzyl2QSo3QMIngPPbYPDb8UBveoDJwI87k9rhowWeYhAkHFQqJew2B6vRQNbzzuRCuFR6cH4RIMgDMSPBjAs6h1wfxMQoWhJmCA9CLG6wUVkbQ6iexx03jMVjeF8xe2wikClUxpjJN2SQ6I4S3d7Gufph6jkmssUqQ2G8Gz9CoPL4736JN59/Cmlq4K5lgz5rI2UhXCqySI7WTp2fwoKufrZYiiwtB1XuAhTd+WlYQG686UXj++ExCHnXPwf9wjMO6rqzvQUv/ONPMPV04he/exJqzdSWeo4kOHE8PRFfQopBDblsegSOjidv8Pt+Wy8+3f4q1u/+gFVTJDBg7rfDYXfA7SbXgWgRoPiBlUvPRgqV8pbI2GJOFiFmXfC6oVJq2Lk7KjdiV9Vm6DQJmJU9G33mXtS17B8IUAwNpKf4BApUJjAQ3Jywv6UcpEyPHGTkClCkUF4vlttdWOGQYJ3Sgt28A1K5DDJa4KUSVp/B6SI5FGwX6IIM/epEyB1myC09zGJAVoTgWkgMjzQW0bpLiS2UQMKRZEEY7wYZKbgxlKTpoPPDXCSmZAGOQKYpAzGHA0gIU88xAQikx2kEEiY6xz/eczM+fON55n///bGiJUCRMRuFv/wEEn5sOuQrzzwKzQ017A66cYEUp9zzMvTzTh7v0Z7y73s3PIeW5346MG7BLa8zHofp1Ojd1tprhSdK7oWR5kYLTpJBBY1iGFX4dFJEiCxtvQ1Yt/NtWGx92Nu4BXpaUCUK7K+tZIRmbiq0FKylIHA46ahzkaBNYot2V287bE4bGlur0d3XiTOPvxC8TInO3lZmYZg9awEcLhua2urw8devMUIjyoSkQkxyqQIerws+wSdaCtjunjkA2EJNCz4t2tTkMrISSCnakbEzCpBC4jcBgpNRLNO5rA+ZlAEZmVwGqZRjgIZkp/HYWucn64TYNzX6jL1SJBI2hk5riAOE4ffpcEAwUI46SEE53o0d5sIxUncTfdGOJ8qQ76MgV7C/mMh3EDoJGSWYNzSJOUyJrAOKCW+08I4O42pPdaBjmCDl5Wcew1OP/IpN6OIiCY7PkqH0oT2QahMPnuSwzIj/PPEH0E+wvfzZbqSkHUyMFKs6ERO9Cl1rHkf7678eOJzAjzp/0URPn5LjYuVeGEl4rVKOZINmSuY12UEoVuDPb9yOgrS56LP1wGTpREkWlUiWoLW7Dp9ufJfVRqCMhWAGwupl5yDJkMosCHannVkQKLqgpqkSC2cfzdIO1UoNcjJmMSxvdVixvfIrrPnqdXi8XvZZZmoejNoU2B12VDWUs4WdPmeJzvR/TtzpUyokBT3KeXnA5UBHiAu822eAF2oouS7I5RR0yE5koIKAALkbWOCil+q+OMWaC4yzAQw8iK4gMQODziGAQZaEuAVhjLtpJH6FINIa07Iw4qo/+eVg8meO86hMYsGdMkAzkac8QvljptdQ2cOQMWbyTDVgGO3aBeRgAXqniotlolaJF9dsh9wwgfrJALraW/Ddkxewc0sXLMPj//uI7c7Ga1MNGNrfvB9dH/1lWgMEs82J3klyH4yn75G+J56ENKN2wPc9mT5ieQ4DATveRJoxFxqFgdVTUMpVLEOBft/XUI7tezeivbuZpS4ScDhm3slITkgHLxczNyj3gJgLlQo1NEoti0NQqTQs/sDmsKClqwEVB7agvGoziCchLSkb6Yk5LLWQXA/1bQcCAYuDwYssNkAqZZYAAibkOmDWAUFgCzsjXKLcBK8ArS8F3VIF1AorpLBArVbB7XIhOSORHUPAwOV0wWq2weP2QiaXw+P2iMWdAgz25EahsShgMQ4QwrjjQjMhQt0R1MVE6EnDCXgbLtahWjwmqp6YyTeeAGEswFOm00kCBPEFE6M2HUBCiAx/f+huvPafv2H2vCV48qU1YcUQ7KvYhvdffQ7X/PReGIxJE9bZVIKE5v/cDNPXLw5czNI/lEOekBGjizu5bjtMVjjcgRLWk+si7LPoGujVPBI0ymlX8MniMOPzne8hLSGLmfyD6Yc0STLPO1122J0O9PR3sKqNLZ31kEkotVALtVJMdSRAIKN/JTIoqHooSzkEC/7j5TxqWvZh3eZ30N3bAbVSi+Jcylrh4PY4sL9+NwRO3P2zxZ9KMJPZn8UFyNgiToGRCp4XiZbI/cCqj4suhRV9cpxp0uCAQo7NRjnKFW4GLBKNPmi1IqCguhAkEQVbUhCky0GZQBz85NpgwZICfIzcyccqR8YBQti3+OjMjaEAYkLdRrC4Bfs/VAvKhOYXywVvLAEi0GvM9DmSvGHIGXW5JjB21McM0YHb7ULFto2Yu3g5lCr1EO1EMu5kQMBkzhnv/q/763dh3bN2ECA8VAG5IX2806bse1rwWnrMbDE4FE0hlzKQoFKMXAb7UMhEwYd7G3bAZOlh8QA8r4ReZYTP74EEMrbQU2wCWQHcXhc6upuxbd96KBUaGDRJUPFaFGaVQqMygBIIiVSJdvdKhQq8jObJobp5Lz5Y/zJb+Ity5kKl0MDldqLX3IX27iZm1qfdO31PgIC5Mnw+5lbgeTmkcunAbl90CXgZ+CAgcLLVgNUtIuDbnaXBZ3kyWNwEAhVUqRxSiR8qhQcqJXEpiO4Lm8UJpy3AoEmxQEo59EYt3FTq2+aMA4RIb8SR+BWGuybGHGMCL+rxZIzkhRpr2WK6K57pICHk2pPvknzrubNKcMo5F404s6hf5+lgVWA3yMEzi2Suk1nwJ3POWLffrvtWQdK+Z9oCBDsVZuqzjfdqifn3GqUcBrUSvPzQZzoQAKAUxqaOGnyzby2SDJnMCuDzeyElV4Fcg6aOWjicNljtZmzd9yX6LD3Ml5+dWoqWjlpkJuUyq4DdYcOemu2sumJeZjH8fi8rutRt6sD67R8jIzkPBq2RgYOG9mo4nFZmOSCTP5XVJpJkykagdEsKFKDdPKUrUhtIQeQ4uFweqDVKzM07CnMzFiJnVxXaexrxqqwBOfll6He1Q6XQwueWwOJwoLvPCY+XXBY+qFQCZDIvXDZiafQDEgFJKQbGykh/0zoWtyBE4REY7l4IDWyk7oPRoWENFQFwiOTletgChuDEpqNeATjsNlxxxhKY+0z4xe//hpPOvnBCt0tMrnWYQYcTEjScg6IBGIYFN050+GgABXO/CRevKsMp6W6sypJAIQXmPdkKTjp9dsvdZjusDvdE1RLT4+ge1qp46DXKaROfQO90WtDpR0rsgxyHitotLEbA4bahvnUf6tv2w+32IT+9DCZzF5raqgMpkGRlJjIlMYNAq9YjIyUHJXnzYbH2o6OnDSpexdgW61ur0GfpZpkDSqUCCqUCPo+P6i0xtwFRIxM44BViYKLXTbEPHMtsIFcBxQ9kZ+Zg9ZLvoCB9DrM2tHY34J2Nz0KulKA4awEyjLPAS5Xw+J3YuOcDOF0OCBwHs0WA1S6Dz0/8B+S68CApWQm5QgJrnw1KZTwGISY3/mjFo8KyLIwkWQSL28D6GIsZR0Gu4fJNGWtiBLJHe3HuN/Xg4lVzkVNQhKff2iCqJEz5oi3TwO0yihwxGy/0Ph02dtTHpFSvMPU81mP04lN/xj//LJZtTlUBNyyQ4ti/1UOq0sbi6ZtUn+Re8HjFtLbp1MjlQIGrLGhuGghG72yzw4T3Nr6Iju4WtHTVw2TpgtvjgdvlRkEmBcwK2FP9DTP3Bws2kejB2AByMxD/QXHuXJYqabVbGFBoaKtGn7WbBTuS+0ClUoFX8nA6nOxvAhhutxMarVrMZJBIWewANbVKzYIp7XYHTjvmfOSkzYJapWNplB2mJmzc+xHa+howJ3sZlhavRKKe+EP8WLP9FVQ172J9EIihtM0eH48OPh3yfhcylE64bD74BQkgxLMYpuwWDNJzDndJhCVAFF5iMXvooiAbWw9HYE0Mfh6WrsI5OALZo63Pq889FjarBS+tDalPEKZ80ZZpPKASk/GGX78YgoRgdbxwbpmxju3r6cYFJ84esBzSZu+SH96Ia28XQcOhbl6fH83d5kMtxqjj0/1EGQ8GrRJq2jmHef9Ha2JEfNTS3YhnPvktmluaxKJLAKg8u8vpRnHeIqQkZGP99rcZWGBFm4gZkXIZAoGDLM0QQEFWEXLTihnREvEgVDVUMNcFZeBQ3AGZ9dVqNQMGVM6Z/ibrAKvMKJEykz9ZGDhOiqykWSjKKYNBmwiDOonRO4sZDRLYXFb0mDvQbW5Bed1XKM0+CstKTmRZFiTf1urPsKHifVa7QSR88qNRYkCnVM/UluDoRQFHzJocFpecEHcxROtmmkg/oamRI2VETKSP0Z+qyb+mJ3/mOBJPwYMdM9kZKpl87+GcueObL5GdV4SU9Ez89PvfRkPNfry+fv/4t0OY8oUj0/iDTx+SpkjmFW1wENTbcTnExQAAIABJREFUOy/9G4/+9nb2AqZmTE7FGxO5phNSfGQHmSwO9NtdkXUyRWczZj+ZhAEFjZKyBMZPaY1ENEoDtLs9oAJW1W07sa78P2hrb2ULNG3yaPGme6YkbwlyUkvx8cb/wOmkwk1iSWfiKaDHUqQrloiFjyQS6BO0UEkMMFvM6OhuZTEJBBzoGEpbVKqU7F/62+VyszRGci8EKz8S0OAVPE5ZegGKsubD5bHD5XGiKGsuFHIFyqu2Qi6TIyM1i4EUt9/Jyj2T1SHFkMlAFsnYY2nH7oZNjATK43OxbIV+nxT7kMhqNBgadiMzWYuUxAwsLl4ZBwiR3EyRnDvckhAapxA2x0JQkDAXjFD5I3nJxgK0hKPbmMg+hTq9ZPVcyHkF/vH6F3jozutRvvVrvPm1yBY4bgvzmkddV4cqXiFk3MnOKVbgIHjNdm//Bi/+88/YvGEtEhKT8doXleNezqk4oKXbDE+gwuBUjBetMeh6yaQciMI5+EM0zrT40e0wXvxIsN4Bqz1ApEF+gbFIkquFSKM8xDIYAAKVLV9ia807sNj6YekjAiQqzSzWTSjImI/8jIX4ZNNzsDusAfplYkAUXVUUTyASHEkYQKSFncphOxwu2Kz2QLEnkUdBq9YhP6sIbp8L/fYuJhdjPPR6mTuB9UnggJcjJTEdl596K5RyDUnPyJkStEbG3ljTthuUGUTpilpVAvLTi1jMAqVdisWYiJ9BArfHBbfPjp7+dny++03YnRZGC222eOBzAUqZHFJOjmULVkCt0MYBQrRu3sn2ExrgSCYtBhxC6kFMiF9htMHDXDxG6mayL98x9REFucbqPyYyRwgYxpLpj/fchDVvv4S7//gvfPHRm9i55auJWRCicN1jpqtDARxozCDr5hjXi+Yca3AQemlEUp3AwjHZF0WUzqPdZXO3ZWK8LVEaM9bd0KLM6IVp587AgvhDbeCdGqieSIsvfUb/jtQopfFA+wZsOvAGvB4/5IIaXT2dcHucbKHOSirGkpJT8eHGf8Fk7ma0xWIBJ9+ATsklIKOsDLYwiyRHSrkaZms/q+dAZaAlEhlK8xaidNZCJBqSGO3ymi2vsAUc8LPdvo9YE+VUq4RKMUuxfO7JOGHhWdApE5hbQi6jWgsO1Lbug1QpoK+/F9UNe5lLoiirDFqVnlkQ1JoESOU6GDV6VkJawpGVxIIuczsc5JKwtEGjSIClzwmdXg1TTz90Wj2UvDIOEGJ984bTf8yCG4cLEcECPSULygRe8uHoNWYyTxI0UMZCe3MDCkrKWMzFzs0b8PNrvoMf/fQ+ttusP1CJV6O52wzzesdEX4cyyHHYzcL452mXdwS2PqsTfcG89yNw/qNNmd69VmcXaru/gUIqRUPnAQgeKUtppF15Y9d+GNWZOH7BRViz+d/oNXdAIshYwCEVdBJN+CLwIHBAKYr0GksypGF2ziJkpeSjobUaHb0t7Jj0xCwkGzMYRwLFA1gcvVi74w0GHmS8FD63gCXFJyDJmIba1r1o6arF6csvRknOAhg0KfAJfvTYLTCbu9Hb1QKVhsdX29ZhX00FErQp0Go1MCToWYBjSkIWsjKXQMmr2PuGgx28TAY/MZByDkruhN/jR29vPytN7bDZoZUZIVH44gBhOj8jozE3RmRVmOSiFqqnmCwgNMBIO8Dg5xFeqNFkttusaG2qw6ySuZEtGmEswv985Fd447l/4G+vrkN+8RzU7qvATy4+GRd//wZ89tGbTI7nPtoW4YwPWhXD6i8m13gEHcVknDFmKrLakW94qkcOS/0xOZjeG81dZviGA/CYjDZzOnV6rGjo3Yadje9hdtrRyEuaDbfLi/rOKmw/8DlcbgdUSgPOXXEL1mx9BiZLO0qyFkGvSmJWhOauaqQm5KCrvxXNnTUstoAW/by0EiwoWMFqNejUBjR11MHmsLLXnFQqY2yLZBkwO3uwZf9amG0mxpSo1ikxL/M4zJm1lLkhqGBTv7UbWq0eKlUKBImauSRsrn50tjXB2t2B1q5GbNr1GfyCF04XWSio4JIceTn5KCkqRX7OIqQlF0EuVTLgIpXRMwDwUid8LgfcTjcgcOju7IVUIofTbUedaUccIEz323h4PMJoxEwRzSNKL8spfeVGSeafX30+8/n/9YWPMHve4ojUOOLJI8i5ZcM63H39d5GelYNnP9iK3q4OXHrKAixafgJ2frMecxYsw1+e/yD6sozUY5h6jPo1nmJXhMnqRJJeTBs70prb60drz/TNXjgU18Nkb8W6/U/A4bawGgonFF2ABFUyzPY+5osvr9uIhs79uOjEe7Bux79hsrWjLHs55BIeCrkKmUl5cHud6DC1Ml/+3oZtaGjbh+zUQiyfcwoUUg1SjKno6G2FzWllxZAoFiDIY9BlacHWqrUgqgViLyTrAwU7HjfnXGRlzodEpgQPM+Q8ESNw8Ah6+P0US+DErt0b8cEn/4LT4RBplylGQyaD2+0VSzWzmA0Js1IsLFuK/FlzkJOxhBEvETro6a2HVCDypE5YnCbMyi6CqdUJi70Pde1VaDfVxwHCobgpIxkzCBiG14IIBjmG1hYPa5wovTCn9LUbocyks8tOWQhTTydeX18Frd4QlsomfPAwOcknfcUZS2E19+G1DVWorqzALZefyVA/yfSX5z/EnAVLJ9x9xAeGqceoX+Mpcj843T70WOzISjawoLEjrbWbrHBOce2F6a7jZlMFvjzwL/gFP1K0OTih5HzwMgUrukQLdWtfPSRCIva3bITF3on8lDKoeT10aiMSWJqhkWUT0ILd1FXLajRQXYWy/GWQQOQtMNtNsNj7GTESpRaSnd/jcaKyaRva+uogkQmQSDlGe6zRqVgWg0ZmxMkrfgCNJglyKQe51A4BavgEGQMZm775EB9/8T/44YU3cE3p/SELVHxkhlemfIEBCwI/qampKCgsRoI+BVIo0dPXMBCzwym8aGtpRVeHSYynYHaQOJPidL9/R5Uv1M1Av4cCBgrCOShYK5KZhrmAhA51SF7DE5SXdEY7976eLry7pQlyfrBmfVDuR39zO9PlLfc9EokGh57LcXj2sd/hf08/iv98sAVvPv8U3nrhKXbMqjO/g1/+4e+jjjUl+pyg/oJCxkymKLok6Jlo6yV/soB0oxZKnoK/jpzm9vjQ2kv57fEWqoFeWyM+3vMoSwlclLMaOYmzoeQ1LFCcduByqR772yrQ0bMfhWkLmIme0gopQJAWXQoCpLoMKjmZ/d2sQiPxIBADo8nUx9wAouNfwO4D21DbXMnSC50eGyQ8B51BHeBM4OB2ifEHdquT0SoXZC/EvMLToOJ1YuAlcTA4PWhrq8eLbz4Es6UPUl7C3CH0LYFeAggEboJNtCwQhbSPYQVidkxJS0JyShIrHuUTvGx8k8mEtqbOActa0CIRp1o+DJ6X0fgVhmRIBPKxI55umIvHaOPFbFEZPuCY8gr4wbeOQVtTPZ5++ytk5xcdJO6PL1wFh82K/364dcSpWC39UKu1LMI5nEaBiXf86AKcc8kP8Om7rzCq5eNP+Rbu+P3fwPMi5/pE2pTpkYQJ89pHXbYJuCNGY+A0O9zot4m5/5RTn2I4stwMXf022JxUuS/eQjVQ1bEBWxtehUwix3FF34FSrmV+fDWvQ5I2CxwnQ33XbkghDyy8AuRS+UAcB2NOFPzMbUDZA1SNkZrL6UBTSzN4pQxyXsYKMb2z7n+ARKzWqFDxSEjSIyFJN5CpQBsWxm7pF8ArCMBySNDmITNhCZQSI/xegVkPKqs3Y81nz4Je6RKZhGVS0LFiSWixcBNLsRSItCmQ0umjTAsCPRD5FmRSKOQB+mavl6VqstgECeU5MJpFNo84QDiMnpfQC8sMRCHpkkGrwqEOcAxVd9QXkJGu5TiL2tN/+jVe+8+TuPHuh3D2RVcd1MNPr/oWavbtxpsba9huIbRRYZfvn70cC5Ydi5/d/1hYd1JzQw2u/vax7BwCF5ddexsuve5W9pIJt02JHoNCTXOQMDx5jXRDue3tJpv44gu0ZL0K2kDxm3D1PdOOd3q8aO+1zjSxp0Te/R1fYnvjG2znvCjnZKhkOmZezzKWQqswwu3rH6jJQLttnyDGEFCxBF6qYDtweg8QwyE9GkSoRCyLnV0dsNrpnvPD1N+Fr8rXoNvUyaolavUqZBekQ6NXsWwHFg8TeIgpw4EWfNrVE29Cd5sJpg4nCrKWISOtEHK5Att2fYQDtTvYWMS5QFYLkomAAREsUQAi/U7QgD6ndz4BC7IiMOIpXh7gaRCzeWj8INETe8exbOE4QJiSG/BQDRIECwdZF4YBh4jlC3PBGG+8mC52I8hqs5pxycoy5BaW4PH/fXKQJeCB26/B+k/eZXEBpfOXDBG/takeP/jWclx23W248vqfjze1Id/39XbhktVUCx546F9vYOGy48TvI9BnTHU3CfA1/JSYyhfUW2iEfuAzCkwcvnumr5L1asbOdzg3Uke7yQIXFQCKt4M00O9ox2dVf4PTY2bEQ0tzT4delYYMfTFM9mZmTSCLgZg10Ie67t2s/HOWsQQKmQb9ji70W3uRppkFzitjrIomcw9aOhvR0dvEqj/29hEBkp+Z+IMglUiM9AY19ElaVo2RrAz0rnY53HDYnOhq74PD5hLJktgiD5b1QIRHLrdYfZG5ldmMAnwLEinjR6A1XibnA4yOtNqD1VxgFRoZpwJZO0Q3BAEKck8MlALwUzzEoIsibkE4Qh6aUMAQGq8wACDYfTbJ2vARLGojrjuxvCYjyEpWgr07t7A4gzO+c/mQ0de9/xoeuvP/mPn/nkf+NeQ7Yjv79vJ8lC1choefeWtMqRmPuyBAKhN93xZzHy48YTb7/eNdHTD39eLZx3+Pa2//NZQq9aQ0ENMFeDSJwrj2h0I+j09AxxhljfVqHkadeloUBprURR/nJJPVMeBaiUX/h0OfvbYmbG16FX32NpSlH49F2Wegqa8cDnc/W4ApWNHi6kVDz244PFZxsebksJmdqK2pR3e7CXpNItKSctBv7kFrdxMLQqRFmHbkYsYCLcKCyLJIMWO0wNMPFXZmBHn0t8B28gQW/F4/5AoCrxRDIFoBBJ9Iouejc8gT4ad3iggQgsWc2DmcAJ7nGRCgxzNoQfB6fIQvxGMZT4MgWhMCm0YRJIhkfXQu43kSomJzPhxukyNnDkOsCoFy1OyzIJPjZIFCUIVhLBrhaD1WC0x9zT785MLVDHX/7IHHcOJp5w6IRQv7dReciJbGOtxw5x9w1oVXDBH5dz+/DhvWvod/v7sJaZk5o07nxktPR0tDLW6652GsOuM8iJUby2BMSsFL63YzJsVH7r0ZZ114JW6+5+GR+4lAr7HS3UGChiljrOUy2ch6QD7a0Rv5hMmaQLEJh1Ozuzzo6hvqWjmc5hfNuRAZktNjYRwALk8veu1N6LU2weVxsHS/bnM7bFYbLP02mHstbJdPNM20oNN70+1xswBYWpGJuUAmlYnm/oBPny3wzDFBIQacyObo88LnZRBEXPwD/6P7kVZyuUwWqNfADX5PNMyBeDJyLRBQoPMYGJFKWblo5lqgGg9KBQtcJCBBLgZyfRBACLUeML4EuZxRO9NcSBqilSbAQu5O7oUXXpjktjGalyfe1yHRQNDkFUCh7AZlwQvizSxCy4H/hCdimAtFeJ1H/+iv1ryJqm2fMRdDSdkiLFl1DhS6RDZQfdUefPb6U+yhX/2tS5A95+gBn2FzbRU+eelxGJPTcO41d7IApJHaps8+xN6NH7FMiXO/fyskchVeeeI+JKZl47yrf46Oxmq8//xfUbxwBU44+3ujTDDQ9yRW1UmcEoGSwxstvKMnLlZGVhYK5y6asGGMcsZ1Kh5aFXHnz2ymRZfHyywno1EKT1yLR9aRMokPHf3VONC+BW09deg2dSAvpQym/l7sq90Fj9cLm80KrVLHAhJ7erqZW4EYCOlVKXIPyFj9BZFumWNMiywmgL1LOWYFINcBK91M7+DAzp19K2G9MDN/8BxmgWCbN5E6msUSsNiDgBXC74NUKgevkLOKj2QOo7oMBr2eWS8oRoJVbvQS5RIFQrpYX8H4A8psGHjdBzaHZG1gtSdWrzopDhCOrGcgPtvRNOAyQ7C0AF6iHwUg1wAKHSBTAz4nYGkVP1cmAAoD4HUBbjPgsQc+N4JLyB/IQB4+jEDn29pZv5w+B0LPPkCTBk6XBaGvHnD2AgmzwFH/8RaxBq79v5twzAkrw+6Hdl0KuRRKXg61Ug7ZDAMLVImwx+wQd7TxNmENCIITdV2b0WNtgeAXoJSp4XF74fdz8Hk8SDKkQ8pJWXyBw21ndRC2VmxAU1stK/zE/PuclGUJ8EqeLfK0ayeTP+3SyQ1BHAkOpwMelxtuCkbkJGzBp8WYAQJOBAgyKkJFZn6KCWBWiJAABgqGpMBDl0cs7OTzMXDAxmWFoSSw2exIMIolnOl7vcaI+YXLyViBzXs+g9XZBz+FpbDAysGsCcanQ9YNBkTiAGHCN0/8wCNFAwIEezdg7wK8zolNWq6icB/AYwW0meC0aaODhO59gNcOqJIARw+QXAZOykPo2s3G4lLmRxSoODGBD/+jtDodHvzTX6HViS/JyTaybih4GeNNoAqCcooUl4pV+6Zbo2yNfpsTFod7uok27eVx+xyo6vwEPq8bHo8bWcYiGDWp4KUqOFw25pfnZUoWD+ByO1mBJJOlC9V1VfhqxxqW6kiFlVQaZWCRpqBDP1wuF4s7kMt5zM5djLq23bDbHHDYneICTOyILvcAQCAgQGyIlIZICz3FKVBWQkZKATq6G5mPQs1rYdQno72rBWqlHi0dDSxmQKEUAQLJQQBBpVKyLAlyMSQnpOPiU65FsiENzZ0NeHXdU7C5TIxXweulmAaRrIksqDQmNRYzEbcgTPt7Ny7gIdKA4LYBTpNoURDIHBjYkbG0JAkgU4FTJgK8htVSF7r3Aj63aBXQpgPcwSmLgrlJBB/UJHJwyXMgmGoAj23AmnCIpntYDXvmOefiosuujMmc6GUsJwpbXsb+JdAwUOo3kLI2VfCBBaB5/bA63QwYxEPKJnfJzY5ObGt6GUZVKov4n5N5FDELsMqJFFcgVmukV4BYabG7rwP9tm40tTbg3c9fhA9uqLUquN0+ZuYnUOBh3ALky5fAoEvE/KITsHnPh8z1YO63sZ271+1hHAQEMMhqQK4ApVLJ4hdkMjl8fi/7fMWCs7Flz8fMEjA37yjI5HJUNVSgqn4PO4fdkwo5C07keZFumYCORqNm1gcqDvXj8+9mlgyqGNltasfLXzwJp9vGikzZLHYGWkQeBTEugcia4gBhcvdT/Ky4BkbUgNC1B6ywOqUkGfLB8VoRTFAjENFbNeiS0OcCBBgYxZkSXNKcuPUgSvfVr37/MHLzZ0Wpt4l3Q/iAKuXJZRLmmqB/CTzQ78znS12Fix4CuJT+Ib+1x+eHx+djqYsut+j7jrfINEDAamfzO2g3V8Js68bJcy6FUqaBXpXMrhct5BTCx2IN/OQyULD0x7aeJny5431srFgLj8cLhUIhZgYIHJxOByM9o7iEFfNPh06dgE++eVkMPOToezcr/0xuDMp2MOgTYLGZGYkSWQHEDASKFeCwevn3sXHnK1i5+FvQ8AaWQvn5jvdht9tA8QLUJy3oCp4fTJkkymaNigGERH0KbrrofmaVoJoRVkc/dtV+g13V62FzWpgVob/PytgVs7IyqOA0C1yMA4TI7qv42XENDNOAAMHSJsYasMWAwEFwRWARSQdrTJkIzpAXBwdRupeUKhX+8tQzzKw7HVvYICHE/Twd5zNcJjE1UEyXG/CdD8TXiu4ZZmiZdm4aAXaPGd2WOvj9TmQl5jIyJK/HA5vDjObueiRqU2HUJUPFqxlvQl1LNTbuXosNuz4MmPflYkYBp4BSoWTVHufNOhrfO/V6uLwOvLP+Weyq3sRiBrweP8uKoAV+SemxOG3FuejobUNjezU8fi+0Kg1SEzJRXrcF84tOQ09fJY6ZexKr8WBz9uP9Da9gX0M5KxFNYEOlVoCXU/aEjIEKApMUgMizWBoNrjz9p0hPymZWDaeLCkw1o659H3bVbIDTa2NzXVp8CjJTc5jlosvcHAcIM+GBi8s4AzXg87AARhbPQO6DYU0hBZamcpiVpMFrPYVwCeEzKM5ArUyByBxuveOXmL94CotdTcGsptMQtPBTBD2l+ZElg2IfKKhNNMEHM6BEVDMSs2WQDIyxA1BaYKDqoEIuA/1MD+AQyCbgaLfvx6Z9H2Dj7ndw8cobWAVHAge0E6cSzl/vXoPu/lbkZ8xGQ8cB5KYVQq9ORk9/Owozy1CUPRdadQJb1DdUfIBPvnmDMSrSxoFYE2WcAqcffRGKcsqYe2NX9RYUZc9mcQZkWWCWI0GOxvYKlOTMg8vpRFVzBRraa5CemAOHy45PN7/FtiEEPMglQXEMInWzFwaDFiqlBucddw2TURA88HnpmvlYESnSf1XLTnSZ27Cg8FhIKFGTcSXI4gBhOj14cVkOXw3k8hZ8P6MeCTy9XKkO++BcHX4JKqwGfNWXiHqn5vBVwhTMTKfX4+HH/g5eMfF6FlMg1owdgoAA/bgDaXn0uzdgHYjFpIIliikgVMnzzDUzHQwNO5vfxbaqD3DO4uuRmVwMl9eLbosZgs+B3t56qFVaZr53+TxQKZOhpVgACmqV8FCrDejt70SrqQbbqz/H3podLDiRggE9Hj84nxTHLzwdR805kVm9evo7YdQlMcZGIl1KMWYiJ60QdmcfA2AtHU3YWfs1dCojslMKkJKQhne+fBF763dAJpMwFwcvl7MxCHAYDDqkJmVg9cILkZFUCJ/XzupKEPigzAnKpKCCUw63DTIZD15KLIwiVXPcxRCLuzze5xGvAZXEhzylHUa5BzafFBentkAnG5uwh5TW4+FRZdeiyalCt0cBs1cGm18Kl4+Dy+UA5OoRgx+PeIUHFHDeRZfg2xdcHFfHJDRAFgAvkeqQZSBgHSBAcKiyJWlHTLthpZyySOSHkJtCwNf1/0Zl3VacMf9aKFUZcLHURLFSIgex8iMrjCSIzIc6OQelTMoqPCoVBlQ0fIXK5q9ZCiUFL3o8PkalTFkEPo8PRl0KTj/6QuRllgzUUGg3NTGLRHJCFvLSihnFMgUV1rfUoLzuaxRnLcDystVQ8Rr0W3vw/saX0GfvhMtrZ3ojRkbiaCjKnI/CnDIW4FiSeTTaTAeQrEuDgspasyJTosWAcTQwLhw/AwsOjy0OECbxHMVPiWtgTA0cZ+jBuSltUEhGiDcY4czqPgGFCeILZrT2n0oftnUJ4IibIUmkaI63oRogq8HDj/0NOr0hrpoJaoAVB/IRi6AHVNRpOhMrqciXTgRErH7A1DVaMNdUP4yqqkqcvewHSNbnweWVwCvQgkpsh4JY0Zm5SwByH2rkFHskBZXAUMoTmJvA5bGhvnMn9rdvQJ+9BXa7A309FlbmmXgTVAo1vn3sVdCRxcHSiW0HvoBGZcSCglOhVxMHg5KRHH1T8SHKaz9GYfZcLCo8DoWZpWzs1q4GQOrHl+XvwuG1sbRHu9OMxXmnIC0lE4LAISu5FBZbG+RSHin69AFgQDELzFokeGFx9KLPYWI00HELwtTdZ/GRjgANnJfSitXGbvgEwOYBLB4BrTYKfgJWZo3MzveP3T5cPVcK2RhvPWJk3djmh4lLwFoLkTHF23ANpKal4/d/eSKumHE0EMyGsLvcDBTMtNRIuYzSDxWgf6ciXoEAwrrav6CxtQqpxhwszFoFjTyR+fAFTgW3nwiN7NAp1dCpDOClani9ciI8HvFK0Hmtlt3Y0/4hzI5uOGwOWPrtcLm8LLAxSZcOj1dAfuoxyE1ZBl5GPCuDLweSp7b9azT3fYWSlKNRkFbKAiftTgt8gg92F2UjKGCydbECUwnKTPBKA5NTIVdByjnhcvVArdCK2dqcGMzr8bvg8TnhFTywuvywe/riACH+NolrIFoayFbYcXteNSp7/SjvBs4u4JipMZrt36252GmNMy2OpNMVx52AH914SzTVfdj1RdYCKuAU5POf6RPUKHhoVIqYE1d1WPZhfe3T8Pq9jL9A6ldCKdFCkPiQlTwbJamroFemB5bxiT3zvRYrWizlaLN+A6e3H/DJwHvSUZi+EjpV6rj5sO3WcnBcOyReFfJSZjMCJYmUMhiI0IuD1eWAXKqC2+eD2+OB2dUPKjdiUCZha9276La2QK9MQUHKHMgo7kBCpdHdaO6vRKelEQVJy+MAYaY/IHH5p4cGpJyAu/L2YGeHF8vTJdAG6v74BA4fdKfh9KRO8BN0OYw2I4pP+G1daTzvfRQFnfe9K3DG2eew4LB4G6oBAgR9NgeLLTjcGgtslEiY+4FYL2PFctncX459HetYASe9PB15iUuRnlB00A5/Ivq1OVywOF3sUKqPQFYBigeg4MGJNjqnx1kJmbwHBmk6eHkipDIVK9Ck5hXQKLWwOoly248+Sw9MjgPotbZhacHFMDt60G9vhk/w4EDPBlZKmlwlvESDbOMCZCcsgEqWEAcIE70Y8ePiGhhLAzLOj3xJJ8qMfrj8UvR55SzIsMOtgM0nw935+5DMT54Ct9OtwH/bctDkmlwp6MP96tEi8eNb70BeSSmSdBrGBhdvogbIjWC2HRm1GcSUSSlLlySmy+gW3aIMJCKm8kPKydmCPplGhbT6rPaoAH0RJFSgx1aOvISFUMhS4OcooJN0IAcvk8PpdcDsaERlx2fI1h+D+ZmnBFwzIleFx+dgbgUCJ7xUySpaBl0a8RiEyVzh+DlxDYSpgQXaflyd2RDWWTUONXZZElDj0KDVpaSQobDOP5IOpkjsW+76FZIzc9gOMkGrjlsSADjcHpjtzhkXZxCte5dosHm5CBjo96mIWRhLdrLg9FqiX4K73bYrxipMAAAgAElEQVQddR1fIisxHwqlgRWTsnt6kKBOhJaYF221kPqTUZBwJhQyOfRqFah66XgtDhDG01D8+7gGoqSBX8+qRILMM25v3R4er3VmodKmG/fY+AGiBujFf9VPbkLJ/EWBvwGdSgmVgj8iYRXtDG0uN2xOsbRvvIGZ3gkoiFTYYv7/VHEssCwGtwf9MQJr5B4wOxvQ0P85rB6qOksZVFQJkkiTFEhWzkOObhVjeBSfF0CjUDC3zGgl6tlx8WJN8UcnroGp0cB305qxwtA75mAtLiUebigOJE5NjVyHyyjnXPQ9rDjptCHTocVAr1Yws/OR0AgYELMhWQ2I5TDeRtcAgQQlM8OLBYpiEbtA4Mzn98HicIFcC7Fu5HLoc9aw2ASPzwaFTIcU9SLo+KwRgx7JBUPPByNWGkG4OECI9RWL9x/XQEADGqkP98/aw3KlR2sP1pegw62M62wSGiguLcMPbv7ZiGfSIqBXi+VvD7dGi5DH54XD5WGLENEeT2Vj9MpEv+z1wuW0w9TdhY72Dmi0GuTlz4KcqhMSbe8AIc9USjfxscjCQFwLBCoHAEOAAGkivTCtM3ppgVV/dHp9cDjdU349JiLr8GPo+SC33HCQFAcIk9Fm/Jy4BiapgZ9k1aFUYxnx7H6vHPfWzplkz/HTtHo97vzDo2Omh9GOiRYBlUIeKBo0feM6xIVXXHBo8aEyw5Sm6PPTAiT+Tp+znykGBXS3+X0+tNTX4POPP0BjXQ1cLhcEf6Aug19kF6TYELJnK3gF0jKzkFtYiOUnrIY+IRGSaQ7WgvEKwTuEsSWGFJmiqo4MEwzUnwjUngj5eyY9lUG3g1Y1SFMeBwgz6QrGZZ3xGliiM+GqDCrxfHCj1w1ZEDrjFoRJXWd6gX/v6uswb+nycc+nlz6ruifh2I4xaGaObtT7CNdYENiOkhgLfexfqnUg7jiHFjwKgoNDs/iPpkAyYe+v2IWNn61Fe2sTLGbzuLoe6QC9IYEBhhUnrmZxI9MdLExqkjE6yWG1oKm+Dn4fMV/6IJXJodMnID07m/EgRNooeJGsbfRcxAFCpNqMnx/XQBgakHECfjWrEjrpyP7ITf1G/K8jJ4we44eGakCt0eD23/wBSnX4Ra8YXa6Eg5Tx0wfLEg/+O5atQeSwD+z2A1UNg6Z+ceEXQUGw/PHUOgEivEcEAd0dbdj0xTrsq9gFU29P1CwWBOo0Oh0KS+Zg/pJlKC6bD3m80NaQC0YgoLmuFlu++hIN1VUwm/vhdokcCsFGRZeo0JMxKQlZeQUoKZuPojlzoVRPLi2a7nWqfxEHCBE+O/HT4xoIVwNBOuaRznP6JXigrhRmX+Q7gXDlOlyOL5u/EJdccz3kvEghG2+T04DH5cKenVuxbeMG1FcfYFaOWLeklBQsWHo05i9bjvSsIxwoCwJq91di3YfvorZqX9iqp5okC5YehQXLliO7oHBSKZ5xgBC22uMnxDUQmQYKVTbclFMzaifVdg0eay6MbJAj/Oyjj1+Jsy/6HuR8vOxzOLcCuTxM3Z3Yu2s7vlzzIWxWazinR+1Ycv/kzSrESWedi+z8WVCoqB7BkdMs/X14/9UXUbF9a8TWGrLS5BbMwqnfvgC5hUWQyQI0rxNQZxwgTEBJ8UPiGoimBoh18eEiymYY2dBMn/6poRCNrvDN5NGUc6b3tXDZUTj30u9DqZqcmXWmzz8c+b1eDzpamrHm7ddwoHJvOKfG/FiFUokzz7sQZYuXQaPTT2onHHMhozhAVcVOvPLsP2G326PYq9hVTn4BLrjih0jNyBLJEMZpcYAwnobi38c1EAMNXJNZj/na0QO8PIIEd9WUweUfn+0sBuIdNl0aEoy4+ubbkZyeedjMKZoT8Xrc+HrdJ1j3wbvweNwR71ajKdvwvsjPXjJnLs699ErojUmxHOqQ9E0ZIO+98gI2fflZTK8DUUQXl5bisutuhFwxdkp1HCAcklshPuiRroGj9b24LL15TDVUWPV4ujVe2jnSe4WCtygA7qwLvwu1Ns5OSemJ+3fvwlfrPkFLYz1cTmekKp7S82VyOTKzc3H6uRegoKR0QjvhKRVwEoOZTb147u9/RUtjeHTskxhq4BSNVovTz70QS487cVSrTBwgRKLh+LkzWgNZCgd+mNmAB+tng6ouTmXLldtxW0H1uEP+qzUP5VbDuMfFDxhfAyq1GmULFmP1md9CYmr6+CccVkcIaDhQhc0bPkdDTTV6e7pn/OzIt56WkQmKN1l63MoZG5Ta1tSA5//+GMsOORSNCMbOueSyEa1scYBwKK7IDB5TJAvhRHKQQ0DOEi3VsXTDgkroZF5GTkQkRVPZrm9vwLzEfvgyAH/i6Nw+5GIg6uUuTzzYLlrXh0zVcxYswsKjjkFB8ezD1qrgcjpYelzV3gpU7SlHZ3v7jH5mx7r+BqMRS44+FsuOPxHG5NRo3Sox76d8yya8/dLzcNhtMR9rrAFUag1OPuvbOGb1yax+Q7DFAcIhvSwzY/BUrRZHr16FY5YvR1Z2NpQKBbyvvIyuv/4VW9QafK3VoWGG5S6n8C7cnb+fXYAPe9LwdX8izFMEEqSCgEdqKqHVSyE1KOButcCXKcCXAggaQKCA7ZAsx702Hf7XmANzFEhQZsYdN3VSqjValC1cjNnzFiAzJxeGxKQhL8ipkyTykciHbbdZ0dbUiOp9u1G+bQv6eseu/RH5qNOrB0ptnbdoKVasPgWZOXnTloCJNlcb163BR2+9Bq839jUaJnKVaONXVFqGc793BRJT0tgpcYAwEc0docco/H5cZOrBJddeC/9VVw1oQbpmDVS33AIukBft5zh8eMIJeNJshcPhmBHaKlZbcUN27RBZd1kN+G9bLrwxdjdkupy4r/EAUn+9DLozc1F71BtDdSblAJ6DT+djZdk5G4cOmRa/TitAgN11Ruh4JgqpNxiYybps0TLoDAaWJslPU/DLah+4nLD292Hvzh3Yte0bdLS2zES1x0Tm9MxsnHPJpcjKmzWtrqHX48Fr/30a5Vs3x2TekXZKQOH8S6/EwuXHxgFCpMo8XM9X+Xz4W0Mdcngelq1bWaEV1np7oTnpJEgCQECQSuH44x/hO/NMdHV34+abboHNdmjNZRO5JhR/8PO8Awcd+kF3Gj7uDaBnALzEjxS5C5SaSGWYbT7RFREJEx6VfP5NYiVUW2WQ6Hj4uoaCqsx/roQ8X4eG099HEBFkv3YaPqj14/GnOyYyvfgxUdIAgQPyc89btAT5JXOQmpEJXqGc8lQ70aVHHAXdMJt6GKthY30t+k2mKM308O1GrVZj5Rln49jVpzJa4kPZHDYrnvzDb9HT1XkoxZjQ2MmpaXGAMCFNHWEHFTqd+GNzIww+HzzHHw/n00+LkcI+H1RnnQVZfb24SMpksD/5JPwrVw5oaPfu3bj3nvumhHUtkstCVMf3Fx6c773dbECDU42Vxm5Q9UUCCKHhi2RdcPilqHOomWui1RUegQv19X/ZtSALBshAYAb4cg6SkPpNue+dCVmaCnUr3oLgpbrugPFHpdhdkIZfP3tkmYwjucaxOJdM2BTDQAGPPK9E6bz5LIaBTLPpmVmQyOSspkKw0E84MhAIoEqfTrsN9TUH0N7cgo7WZgYEiFrX7XaxiolTwWgYjtwz5VilSsWyH86/7CokpWVMudh1VZV44aknYJ8BG6igcuIuhim/Tab3gCeccAJ+8fk6qKrFCHv3pZfCdd997HfJli3QXHkl4BcXLefNN8Nz/fVUTYbtqCX19eCam/Gv117HW3UiiJiujRbq81JasMo4NHKYTPhjlWMOnQ/NucutwE6LAR/2psE/imtC7vejzG5lP3nzrMhIODitjLOLYEHaBchsckjcEvjN7sHhJMD+NDUe0cUZFqfjPRUM3iUgrVKpQEFfMip2w1E1w0GJh8f1Eu4mYEC0xub+fvh8oj96pgcBT8drNLDocRJk5ebi6ONPZIW9Yk2k5XG78Mk7b+CbLz+Dx+OZzqo5SLY4QJhRlyu2wp7z7XNw9dU/hPbEEyHpFE1grmuvhfu22wCvF+rTT4ekuRluKuNaVgbXE09A9t57kH39NaQ7doAj5i+OQ7dMhqsKCuEIuiViK/ake5dAwG15B5CtiDwP3O6TYp0pBV/1J4F+D7aT+rpxSWebuEbIBLhOEuDnJ5BS6Qc4wge0XkgBQQG0epT4Q0PJpOc7U0/k/X7IBYHdTxTvEm9xDURLA1q9ASVl8xhPRtGceZDKolcDhUBe9d7d+OitV9HWPHIF12jNI1b9xAFCrDQ7g/qlV+5FF16Iy668nEmtPu00SBtEwg7XVVfBfeed8LW0YPN55+G/SSlo5XmkJiTg4pYmnN/cPMQEH5z2Q+kZ+MiQMO21IOX8uCm7Fvmq6NCaklWhxaWE2y+BVvBh9lon9C4f1F4/ZIHto18GWNMkMBVIYM6WDtlhjqUw404/KjoHORFeTUtH/Rgc9bc11EEyLFjivZQUVGq0Iw5DQak3NjYcdD1fT0tDbYCuOM/hwMUd7WFd1zdS01ATRlU5iSBgvtWK03q6cZTZjCSPm8nkkkhQpVZjrTEJnyUmwjLsZX68qRcr+vsHZBtr3OHz2KPR4oOUFFzW1orMYZXyxpvsw/kF7JA8pwMXt4+vG5J7v1qNrXrDQXMYb6z497HTgMGYiGNXnYzC2WVIyciYdB0PAgadbS347P13ULEj8loKsZvx+D3HAcL4Ojrsjzilrw83vv0mYDSyuSpuuAH8J5+w3z0nnYTeRx7BM//8Fz5Zu/YgXdzX2oyVFtGBTjEJ0GohyOXYpFbjbuXM4MA/O6kdpyVFN2hI4gGyN3tgaBTdMaM1l45D7clyeFVj74x5i4DZ74W4HAC8mZKKx3LzRu37k+1bQSmVoW1dYiLuLxjZTXGiyYRf1R5M3vTLomJ8EwB7S81mPHxATA+daLurqBgbJwgW1T4fbmuox2rT2LEWXo7DbcWzUaEbZEYsttvxj8o9A2K9mJ6Op0epCHhVawuuamsdOPbG2XOwR6vFY/sqMdcWXoGik5YexfpZYjHjj1UT102fTI6fFxejehKlqSeq+/hxk9OAMSkZy49fieK582FMSoFCRYGpo9OeU4qp0+lg9Sw2fv4pdu/YdlhwTsQBwuTun8PqrPubG7Hgrbcg5OayecnefReq229nv/cnJODW5StQHwhMHD7xArcL/9Co4b7mGnhPO425GMgfW1tXh1tv+emM0NOtOdVRsyDQhDk/UPiJG6reoYszC1GgtMVhmMEvBfady8OnGB0kJO/zImPH0HK7Ho7DtxctYTvrkdpIAIGGpnPs0kE3SPDcO+tqcMoIefNTBRAIzDy+rxKzh5HGkFuBxbhQ8N+wid5VWIyNCaKlSuvz4Z2d2weOaFUocMW8BSNmnPy9cg9KAsVwCGycv3AxbFLplAIEEtQsk+GCBYvgi7tOpvW7omROGVIzs7H06GOgNyYO1Dmyms3YuulrNNZWo75mfGbUaT3JEYSLA4SZdsViIO8DzU1Y+KdH4Fu1ivUueDzQLVuGLq8XN+Tlo3uM1CCDWoX/PvgAUFAwhBO9ubkF/3f9/8VA2uh3eVf+fqTyrqh1nL3JA2PdUBTQoZTBtEwKfxogtwnI/coDhWUQQPQWSNByzOgpWCXvu6EwH5xc+WD+LHyaNHLhmpEAAk1ytHNeKd+J5BGCqMYCCGuNiahVj53J8aUxES3jFIUhue6oq8PpvYMUwAQMHs7Nw8YEI4s9SPS4cWNjI5ZaBotcEUi6au58tAe4Ch6q2o9lId//pLQM+zVDq2Kmu1x4YXf5ANioUanwo7J57PqHWhAIeD2fngH/OGEP/wsUghpuQXgorwCbAuBFvLkEzLbZ8Iv6OhhCyHFeS0vDk9kiOI+3uAamkwbiAGE6XY1DJMsZfX246dxz4KFgxEDr+MEP8YuOTvSOE7ST4vHgf/W1EDIy4LznHvgJZHAcGhsbceMNNx2iGYU37L0F+5AkH2q+D6+HwaNlDgGz33FDEsQHSUoI756N2m99COdCH/yBEgASr4CiDz1QWMVFX6AshXN4eNQHr0aaTj9mrRWjn2mhdHIc1IFMkk0GA+4sGjlwcTSA8KXRiF/NKhoyxUUWM/40inl8LIDw21mF+MxIXNGRNSPdRxW7wAdcIn0yGa4pm4de+VDQRFaG77W34YchhEAfJCXjj4E4gHyHHc/sHXQzvJSWjqeyc4YI94PWFlwR4l64pWQ2ynX6gwCCRSrDdxZOfHc/HCDcN6sI6wNuu1ABspxO/HdPxQBAaed5XDp/YWQKjJ8d10AMNBAHCDFQ6kzrkgzUZycl4uwHH4BSqcT2bdvxzDPPwGodn/DoeIsZvwm+rCUSOK+7Dp6bbkLl/ir84o5fzAhVPFC4F1ppdOhOc772IKFh0HrQPSsB3sXJsK5phnuhAF/IWqXqETBr7SAwaTpWDnP2we6CUIsELZzPZGbhp4Gqb7SDvnT+AvTI+YN0HQoQGhVK5LrEbA3KBrhw4SI4QjjX76mtxuoA6Y5FKoUuwJJJx08FQLirrgYnh7g3fltQyAIRR2qU1fB6+U5oAjI6JRJctGARcxFQIOibu3YMfEdBjT+eM3dIN4/v24uyQC46gYBzFy0e+D7UghArgECDvbFrBxICVoRuOY9LFiyMiHxrRjxocSFnnAbiAGHGXbLYCUwEMBKpBB73xHJ1s4xGPN7VAUNNzRChHPfcg3eTkvH3v/09dsJGsecHC/cwUqRoNLIe8DbRKkC+7XrtYJElT4kAb5hZihSvUPq2C7JAJuZrqWn4d24WXt++E8qAFeG/GZl4NjNrTIDwXHoGLujshNovzvOPefn4IDll4JwXK8qR7hbdLJQdcVFIpsJUAITQ8bvlcly8YNGYl+PK1lZ8v22QVjgUUIQCAPLtf3feAvTwIoCiIEgCF5SxQY2yF24snTOlAIFYSgnEBK0lGw0G3DWKFSga92S8j7gGJquBOECYrOaO8POIvvQ3v/0NimcVQLp+PZS33QaJVYz+9mk0uHnFsdjb1DwjtPSbWZUwyCYGisabUNnrLkgDRgG7RoJWyeDO3pcuwL1svB6Gfm+s9SH7mwB5jgSoOF8JjhdQ/KEbyj4RiNgMEqxZlYBN/YkotxlAFSCphVoQnsvIxPL+voHAvG16PX5WPJsdl+Z2gRZocm7QLvzWklI8FZINMBZAIGuDewy+i68SEvBobv64k3575/YBq8UurQ63zi4d85xktxuvVOwaOOaV1HT8PUc0z9A8f1c9SKP9n4xM/CcAoAj4/CQkJ/03BYX4PMRSEWpBIO0Od3EMF+qnJaVoUirZx8NdDBTr8XVIDALpV+f14rqWJqwMWGvIAkSulGAf4yoqfkBcA1OogThAmEJlHy5DSSQS/PS2W0GsiwOtvR2a006DxOVCuUqFW3PyIMyQyGyiXCbq5Wi0ua+4IAkYI8yZEnTY+IGsBUEO6DO9SKkceaz+HAmaVwz1uRd+7IY6kA3hTOBw4EwRcCRW+5C1ZbCf/d/i4dYRDbQE99eVwuqTHQQQmpQK3FlXJ4IKqRTnLVzMoufvqKvF6YFa9BsSjMyF8cze3QPqiCSLgeITKE5hvPbhjm0Du/qvDQm4u6h4vFOGzO/TxEQ8GJK++dauHdAHTPgH1GpcF3AzPLNnN/KdYu2L4e4F+izcNMery+ahLsBFEW6aIwVBkvXnf+lTT/s7rnLjB8Q1EK/mGL8HJqOBHyxbinPvufsgvnn+kUcg+ec/8cP8WWgJmHQn0/9UnkNsio8U74aEi6T80qDEQwBClgStiXLI6gcDDw2JXqQ0jAwQ+nIlaDouBCD4Bcx71T0AMNrnS9E1b5Dpbe6rLkgCXZmzJGg4UTx3fV8SXuvMOgggkBvirZCd+sN5+fg4KRmvle8c8Ic/UDALNSr1lAOED3ZsG3CZEGcCcSeM1z7dvpWlPlL7JDEJvyuYNXDKX/ZXMrIlarQQn7l4Kfv9vZ3bmZuB2ha9AXcUD/X5TCVAeDYjC//NzBxvmvHv4xo4ZBqIWxAOmepn5sCrzP34ZUc7fDfeKNZhCGmC14uHrr4GX5v6ZszkjjH04ntp0XOFDHExJHOoW85D8eUgQDDCiyTLxABC+g4vUvaJixlxKBw4Uw6/fLAvSpVUdwfiHZRA5flivEO/V457a+ccBBD+nZmFB6urcEyAbbBarcYtJaV4e9cORqhEwX5kVSAmwYlaEP6Umz/EjD78wpP7wToC58Lw40J3/MPjAka6mXKdDjy7Z9DK8WJ6Bp7Oyh449MzuLvysYbAeCMVcEOfAb0Jy1SkN8aPk5CHdhwIEkpssBGNxFPTLZAPfD7cgNCuUsMgG+SYo7iHf4UBoGOpmvQG/GAZSZszDExf0sNdAHCAc9pc4ehMscLnwREMdlFScSSaD4y9/ge+UU8QFTBDwwvMv4PXX34A/EAAWvZFj0xMttXeGwYHQ7xJQaRJg9wLJSg6liRz4YUkHxHZIrIfUfDyw91weyk8k4IIxkErAfQIVWhBrRpe+7R5wSYRaEMigUfqmC7Iw6BmIkdGWKgp0R/VcvLtVXPipUQwCAYRVvb24t04MKiWypDdSU3F5Wxv7+6OkZDyUX8AWsYkChGilOT63uxxZAYpjWpgJqIxVd+G2+jqc3TPImXBnUTE2hbA10mL8+q4dA+mgDUol00V2YAzK5Lhg4WIGikJbrLMYtD4v7q8+gAXBeB2Ow+Vz56MjwOMQmzs93mtcA5PTQBwgTE5vR9xZKSkpeOzWW5ByxeViUSZaAGfNgu3dd8HJZNi2bTt+9+DvZlS1skS5G3fn74d0Au4Ftx/Y0OrHSYE0xB6ngD09AoxqOeYbBzMgQnf9pKPOuVJ0J8rA7+Qg0fPwWz3wzPHDWwDInAJK33IjOHwoQOCtAWrlMDwfTj2HA2fxDHyQBeG1zbsOAgiUBkiESMEUO5I8uMcNLrKHAiBc19yES0IyJ4ig6JkQi0DoA0cuAsoCoAJO1EwyGb47fyE8wxb73x+owtFmsTYDgQ0uhIlxfYIR9xUO5YKg42INEGiMUpsVT+6rHJjSP7Ky8XI8DuGIe6fOhAnHAcJMuEqHWEaDQY/7H7gfubm5kK5dC9WNN4IL+HEd992H+hNPxE033jyj6tTLOAG/zNuPZH58giQqAf1Vmx8r0jnIQmpBNzpV+GtTISNZOjmxE0UqO5Ikbsx5azCTgWiU60+Qw1chRf5bZ8HyXgN6nt4Dz3IBuds90LYPciaEAoT8z9zQtYsLIJnpvxqllkGhw45cp5gDSW6IyvNFyuYH6mfjhU0VBwEEOu72+jqcFbL7ps9oJ33hgkXMqnAoAAJxG7xavnMgk4HiBohGeYdeP4QfgAIP762tYRkDwTYamDivswM3NTWO+PT8Ib+AxV8Mb1MBEGjM0KDMiQZyHuLXQHz4I1ADcYBwBF70cKbM8zx+/vOf4aijxYI0EASovvtdyHbuZH925ebhh8kpsAWIZ8Lp+1AdS9b9lcYunJ8imtbHagQONrb7UWrkkKQc9P/3eWX4c2Mx+rxDsw4yFQ5c3tmG06t7htQNsKs5yG9YDGezDa7XamD0eCEdZh0IAgSpS0DZG4PAZX1iAu4rGDloL9RlQPNoPloGU6EUv64txcuby0cECMPTAOm8t1NS8ZdA4adwAAJxFoxU1yFUp+sSk1i0/njtkvZ2XNvSNERv23U6FidglspZEaULO9qhCnFhtfMK/HDuvINcBTQWsTNSKuTwglUUU0BgiOIHxgIIfnBoVg7yWIwm/x1FJcxFMFEmRernpfJdSPWI17hcq8Mt46R1jqe7+PdxDcRCA3GAEAutHkZ9/vjyy3DmxRcNmZF03Tqof/ITuDkO1+fmozaQBz6dpx1c2jlOwLGGHlyUOljJbzS5yYL9Zq0PJ+dIYQghKmwiy0FzISvpPFq7qbEB53WNXyHSJwELWiNCpCBA0LX4kf/lIC/D7mNUuM1bBg/xMQ9r5Gt/b8e2ATeBTwbsvVCBe+tGdjHQ6RT5/85O8s8PukauLy3DvkDNgnAAwkSu+TspKRPiQqC+Jqo3OpY4BH4wdz6oKNNojSpPUgXK0EbWmHtGyZIIN4uB+r1y7nw0K5VhAYSn9u5BkUN01XXw/8/eeUDHUZ3t/zezvap3WbLkXrCNwfRuaoCQfyCFjxC+BFJI8qUASSANCCRAGhCSEEpIp6QTSuiEarAx7r1Isnrf3mfmf+6sLNtgI9morOx7z+EA2plbnnt355m3PK+di6XU8nCOkrxmjBGQBGGMAZ9Iw32yp5tL4zES996LvmjAgiAWoGm4TzmFW1Urz+fl5fSS/JY0/1u5g1Jb0qzAJtIa3cNQTeyOGyzrNFg8ScVhAWFJWB3J49HuCvoz9iFlccVDeHFfr1mYZ1+1flocDm6YNpWfbtlEXjIzSBCmP54aLORkug0utLMm5eee1rq9Yv3Nxu2c1ds7+JnIdvi/7nk8sfztvVoQxIW7+/yFIePcwxeSGJBeHk+CMBzcxPw3ud1cN206omTye7XzursGZal3XndD/RREAam9tbEiCCJQ8bhgNttHVnTM6Z+QQ3pykiAc0tu/78WfEQxwdWeHKQerlZURe+IJ8PnMG8yMhW9/h7+tXTfkg3I84T2rqJMzC7sQ8QbDbTvCBpsDBjMKFKo9ChtjXp7qLaM95SQpAgr2s4mqfbMjEY4L9lMbT5jWgh1OJy8UFrLS5zflmOdFwnj0DGdP6qSgJIW3c1dcgrAIxEoGlBF7S3m8d6Da027zKEmluDF/I05L9r5+v4WrWw9jUSg4GADZ5nQg0u52NmF+nzYQbCpEk9Z5vYOfuXSNw8JZDQHRNns8iBoQoon1iIqE+9O67HYaB8SEhnvfO3GzGzq9Nptpjn/Ln8d2t3tYZ8+nZZj1jpoia73efbpFZkcjeDP7J7u92uczXRwiPmLmbo3LXagAACAASURBVNgIgab+dxSb2rl+kaZZnsy6GAQJXO7zv2fWxnBxk9dJBEYSAUkQRhLNg6SvqdOmctvUKeTfdddgMGLq1FNJ3n23Wanx6aee5p577s3poMQLS1o5qWDXW/V7bY2gD60xC93RNGVuhUpP9p3/L51VLAkWInzRY9Hsqs6p+d2cU9y51xHjuoXvbZtF6h2uBpGF8bNpawan2JJ08eOmoYWGxmJNcgyJgERg4iIgCcLE3btRmXlZWSk/v+vnOBwOnNdfj/2RR7JvOS4X4TfeYO2WLdz0/ZtJDuSTj8ok3menZxZ2cm5x5157SegqOxJu2pJO0yrQkXSY//5EWTPzfFlftSAMf++q5JXAu6Pc3+fUhnV7lSPOx8paqXVmfdS7t6d7S3nyHVYEUWhKFJza2VaE8/hde+2wxpIXSQQkAhKBfSEgCYI8G4MIiHTG2++4naKiouzfwmE8p5wyWIRpx2c+w+eXvkViIK0uF6Gb4Q5zZfW7/f4J3cJrgUKe6it7V3ChKPUsCjbt1EPoTDm4pXHGsEzYo4WBsFmcX9zOqQU9e8hAd6cc3NyYLbK0sxXbkny3btPg/z/TV8oTPe92RYzWXGW/EgGJwMGJgCQIB+e+7veqRKzBTVd8mpkXXLDrXsPA8a1vYf/HPwhaLFw0Zdp7ys7u96AjfINN0bmxfsO7SjdHNZUfNmYLGO2tfaS0lRPys+4IYT34YeMMulJDp7eN8PT32t0Xq7cx3b3L5y9klK/fPmsP8jLJEeea2l3VC//cUc3S0N6D8MZiznIMiYBE4OBAQBKEg2Mf3/cqrmtrZbHNSuSll1B2K7RkffJJlKuu4rOT62ix58ZDc2+LFW/c19ZuotyxpzZxVLOYD9S9pQju7Od7dRtNsSPRhOvhtqY9C/i8b3DfRwfzvUE+Xdk02IPQXRDr2b1NtvXztbrmwT/d3VLHxlg2oFQ2iYBEQCJwoAhIgnCgyB1E9322u5OP9fWZgXGZY44h/tvfwoBsrdHfz88+fBEvD2Qw5OqyTyvo5oMl7XuKE2kWbmmaTugdYka7r2GWO8zndnNJiNiDl8cp9mBv2OZbU9xYv3Hwo80xL79s2VW10EjHoHcTlR74ynwVl1Ux1R23xT25ulVyXhIBicAEQUAShAmyUaM1zfPOP4/Pt7bgfughcwhRhCn6wgsYZWVmOuNvf/s7Hv3Xo6M1/Ij0W+WI8Y3arXv0JVwFf+6YxLJQwT7HUI0036nfNmg9EC4I8XaeEXlnOdJ81gw3168fnM2rgSL+2lU1+P9GJg49WV1/mwrT8xXandPp1yVByJEtlNOQCExYBCRBmLBb9/4nvnDhQq697ps4kkk8556L2pVV/ktdcAGJ227jsX8/xgMP/NYkCjnZdA2jfwvVjjjfWLinRsGyUD5/6qjZ57SNcBvWeAe3HmcdrMj4Un8x/+geWhJ4LLEQBaWur9tlQfh3dznP95fuSYZCzRDrHvybklcHrn0To7GcvxxLIiARmLgISIIwcffufc3c5XLxwG9/g9vtNvux/+IXOO66y/xvw2LhxXvu5dbb7yCTybyvcUbzZkM8FEPNFDrghqN3BSB2pBz8dMe095RCNjpXoaDxvUUWs8aCSH/8fsNMovsIZBzNdbxX3zWOGFfvZh35S1cVrwUGskx2u9HEItYDhoZSMBWsu0SRxmvuclyJgERgYiMgCcLE3r8Dnv2ZZ57JF7/0hcH7LW++ievSS1EUhXarlcunTCNbIzB3mxFuhWgnTgv86PgsQUgbCj9tmmZqG7xXM7rXgpbCb4drDrfweqScp3vLcm6xszwhPl/VODiv37bVsDKSn3PzlBOSCEgEDj4EJEE4+PZ0WCs6/4Pnc8UVl++6NhjEu2gRkYF0xvRAkOKwOhuni4xoF4RbzNG/eJjFlEf+ZXMdm+NDR/AboRaIZV0qIuLAVjqbtJp7b92L/P18onxXhsLtO6bQmJDxBeN05OSwEoFDCgFJEA6p7d61WL/fz/2/uc9UTNzZMuefz5UZna596MfnGlRGOg692QA9jw3m19fwRrB4eAJHmSRGz4D6oKKglM4DZf9rLYw2Jqe8oyy1JAijjbjsXyIgEdiJgCQIh/BZWHTUIj732c9SVFzE9u3bufumH7C1v39CIWIEtkMiAIqKWjYfYz/qJmRjGFogvw7FmZtm+/OKOzijcFfZaEkQJtTxlJOVCExoBCRBmNDb9/4nr6qqaUUQ8sk5m63wXsvU0xDpBPGAt++qSDhsZAzdJBe52j5W1sJxeX2D07u1cfqQ8RW5uhY5L4mARGBiISAJwsTaLznbQwwBoaIo1BR3NqHTINQUZZMISAQkAqONgCQIo42w7F8icKAIGAYViQ18rC7NZL9iOk++u33WeypDHuhQ8j6JgERAIvBOBCRBkGdCIpCjCBjxXghm6zCcUKFw4VQL39g6l4yRuy6RHIVSTksiIBE4AAQkQTgA0OQtEoGxQCBbZ2GXiqLLCmpeLTHbu4WSxmI+cgyJgETg0EJAEoRDa7/laicYAoNZGjvnrVpRSg8bUG+YYIuR05UISAQmFAKSIEyo7ZKTPeQQMAwMIegU6TBllDE1GxaY/5ZNIiARkAiMJgKSIIwmurJvicBIIWBoGKmIaTlQHP6R6lX2IxGQCEgE9omAJAjycEgEJAISAYmAREAi8C4EJEGQh0IiIBGQCEgEJAISAUkQ5BmQCEgEJAISAYmARGBoBKQFYWiMJuwVQjpZlG/O5TYR5pjL+Mm5SQQkAhKB0UJA+cff/2mMVuf72284EuIPv/8juq7v761jev2pp57C3LlzczrVLJGIc//9v8n5+gpTp07lnHPOzmksweCpp59my+YtY3rO9ncwm83GZz7zGSyW3KtKuftaVqx4m1dffW1/lzem1wtifdn/XobPO3Tp8DGd2DsGC4dD/P73f8jp77l4CTjhhONZuPCI8YRqyLF1Q+N3v/090Wh0yGvH84KamhouuOCDY/Kbqei6njMEoaOjg8s++b9kMpnxxH/Isb/6ta9w/vnnD3ndeF4QDAa56MKP5DzZOumkk7j+hu+NJ1TDGvumm27mvy/+d1jXjtdFTqeTfz36TwRRyOX2yCN/4d577s3lKSKKmP3pz3+krKwsp+fZ3t7OpZ/4ZM4ThM9+7rN8/OMfy2kstYzGxz9+MX19u4qj5eKEjzzySG770a1jMjXFyKESfh3tHXzyk5flPEH42te+ynnnn5fT5vtAIDBhCMINN14/Jof9QAcRX5Gbb7qZFycIQbDb7Qe61DG57+GHH5kwBKG8vHxMMBnOIJFQAIfTjW23/W1ra5swBOHiiz8+nGWO2zWZdGZCEYSxcB9LgnAAx1EShAMAbR+3CAuCJAgjg+dOC4IkCO8fz50WhFwiCOceOYn8ohLu+esLeP355iIlQXj/e72zB0kQ3o2lJAgHcL4kQTgA0CRBGDnQ9tGTJAgjB3EuEoSbrrmCF574O8efeg43/+pBSRBGbrvNniRBkARhRI6UJAgjAqPZibQgjByWkiCMHJa5SBCEq+uTH1iEoev86em3JUEYue2WBGEfWEoLwgEcMkkQDgA0aUEYOdCkBWHUscxFgiAW/fXLP8zm9St5dMl2SRBG+BRIC4K0IIzIkZIEYURglBaEkYPR7ElaEEYO0FwhCIahc+t1X2Dy1JlcfMVX+d6XP8nSV57jqRVtkiCM3HZLC8JEsCCIlJ2JkOYoCcLIfTOli2HksJQEYeSwzBWCoOsal569iLbmBu7523/52+9/xcvP/JunVrZLgjBy2y0Jwr4Iwtat23JGB6Gvr5dvXfdtNE0b4a0f2e4u/eSlnHTSiWMiVHGgM49EIlz1tatyOj9arO2II4/g85///IEuc8zuu+/ee1m6dNmYjXcgAzkcDu6483as1tzWQXjmmaf561/+diBLHLN7RArZbbfdSkFh4ZiNua+Blr/+Inf/8Bo++aVvs2XdClYte5WfP/yieXlvby/XXXtdTn/PRezERz76Ec4666xxx/K9JiDI2De+/k2Ehkwutzlz5/DVr35lTJ4/yiknn5ozBEFsyljkdr7fzc8h6Yghl5LreEosh9zC/bpgouCZ6+dSgD5uWGYSEO2EvJrsQ0BPQ/da8FRAOgqZOJQIJddsk1ju11dkyItzHc+xPJeyFsOQx0VeIBGQCByqCBipCAQbUYpmgmodExiMcGuWILiKUPJqzTGNjrfBXQKJfnMeSvHsMZmLHOTQRkAShEN7/+XqJQISgfdAwOheD1oiSxBs7rHBSk9jdK0B1YZSepgwZWB0rgCLHbQUOAtR8iePzVzkKIc0ApIgHNLbLxcvEZAI7BsB8WBeBYaOUjpv7xYELZm93eIYUSCNQAMkAihl8zGES6F3U7Z/xZK1HlhyO85kRMGQnY0bApIgjBv0cmCJgEQg1xEwOldmCYLw+Ys3+Hc0o3cj6Jns5yPZ4r0YwSbImwzxXkiFs/EIeTUorqKRHEn2JRHYJwKSIMjDIRGQCEgE9oGA0bcVUiGUwmlgf3fpZ6NnQ9YFUXb43ntIBk1XwX67J9JRDGE1EJYJYaVQLFly4CyQeyURGDMEJEEYM6jlQBIBicBEQ8AMUuzbDO5iFL/IKtizGeIzcU3JHJS9uBmMjhXgzEPJr9+/pWtpjO412XtEUGLRLOlW2D8E5dUjgIAkCCMAouxCIiAROHgRMLpW73IjvMPNMJhx4KtG8ZS+m0CY2QdFKP5sNsKwm6FjujcUBaV0PijqsG+VF0oERgoBSRBGCknZj0RAInBQIjBIAhx5KAVT9lyj+aa/1oxPMIMHFWWPz00XhKENGaNgCH2DdAzFVZztY5AgqNlAxUQQQjtQfFVm+qNsEoGxQEAShLFAWY4hEZAITFwERJph7wYQAkY2D/hrUGyuwfUYoR0Q6zE/M2MVdnvbN4SegdA1cJei+Kv3iYHRuxnSEbB7UQqmZgmCsFwogiAsMMWRTLLhKkQRgYuySQTGAIGDgyAoYHWAI08lFc2gxaymCtpYKk6NwV7JISQCEoHxQiCTxAg2mG/5ZjaBiCsQwkV2b1anQKQlioBEiyNLEgZcEUYyBP1bsw/6wun7DlbUM1kCIFQTPeUo7iKM7nVgdaEUz8KI95mCTXjKslYE2SQCY4DAhCcIFoeCY1KE0qkenF47jnQBNfaFdDX3s337Nnp7etF1fQyglENIBCQCBzUCggjEuiDWnRUsEk21gNUDFiuIh/jOJohDJpl94Jst63rIpkvuXcPAEBYKkTYpmrASBLaDtwLFW8GghaFwOoroWzaJwBggMLEJgmpQdbxKMN7L1JnVBHqjHFZzHEfPOh0jbqezvZNlS9/izTffgJyqODEGOyuHkAhIBEYJAQMj0pnVJxAEwNjHC4hwNQh5ZmFpEBkO4oEv1BGLZuxVU0FMNiuQlJVTRteyAYp6ClNvQdxbMmeU1iS7lQi8G4EJTRBsBWkmnWChpzPIrPn1tO/o4egZZ3L20R/FYXPR1xOkqaGRu395N7GYMA3KJhGQCEgERhgBXTO1CgxjZxVaFcXmzGoX7NYG4xGEJUG4G/ZiCRiMZxD3iXgHX3U2zRIjG3vgGv/qkiOMnuwuhxGYsARBUQz886I4CxQURaW0opBgT4KLT/sSM2rmYbPaSMYyRCIxfvWLX7Jp44BUaQ5vhpyaREAicHAjYAjrQKAxu0gRp+ApRXEWmq4KIxmGwLYBi4QyUHthQMrZPykb8yCbRGAMEZiwBMHizZA3L46WyVBQ7MdisWI3PFxy5pepLK7FbrNjtzlNEbINGzZw15130d/fP4bQyqEkAhIBicBeEBDWBtNF0TM0PFZntqKjsCbIJhEYYwQmLEFwToojsoGikThTZ9cQ7ItS6CnjnEWXMrliCg6HE6fdhZZSSCVT/O63v+O5Z58bY3jlcBIBiYBEYB8I6JmsCqN4izE05ru7qXQZZAzw26DKq1DmtfFqoJCXAsXEtLEpNy33SyKwE4EJSRAUq4F3TpiCChfhQIy6mdX0d4Uo9JVxxhEfo7Z8KgW+QlTFimpYSKc0Nm7cyE9+9BOi0ajcfYmAREAikFMILC7o5vyS9oFch3dPLW0ovBUqYG3ET3PSRTAjqznm1AYepJOZkATBVpjCMy1GXqEXLaPj8blIJTLk5eVx5hEXU1c2kwJPMRgqNpudTFIjFovz5ONP8te//vUg3cpDc1mKoqCqWRlaXddESrpsEoGcRsCm6Ex3R1jk76fKkSCsWahzxVH3I9UqnLGyLe6hM+WgL22nMQztgRA4ClCceTm9fjm5iYPABCQIBr65Uex5Bg6nDVVVzIeCz+/B5XFy5JQzmFJxGBX5NbgdXjOAUdN0YuE4S5Ys4d5f3ztxdkfOdK8IqIZBQVEhF37kIo466ii8Xi+k02gf/SjL+/p5uLCILpuNzDtkbyWcEoHxRsCmGHy9dhNl9qyOguCzmg66AfY9kx6ynxvw47czfHWBda+f71zPc806T+3QTWGldMGs8V6mHP8gQWDCEQR7UZqqo624fU6S8SQOt51Ad5ji8gJURcGrVHD03MUUecuYUjnTFCjR9AyBvhBNDS38429/Z/NmkTYk20REwKHr3NXXQ8mzz6J6BgK3UilcF1yAdfv2rCUB6HA4uHbB4bQEghNxmXLOByECwkLw3bpNFNpShFMGL7Qa6LrB1DwFh1VhWr6yVxdDLAMu606ppX0Dk9ZhdcTPHzqkFPNBeHzGZUkTiiAoqkH5sToltV4UVUXBwO60E48lcbkcBHrDxMMZFh95IUV5xUypnEOBTxQ2MUimUnS19bJt23YeuO83pNM7Fc7GBXc56AEgcHYgwJe6O1GvvJL0l7+c7cEwsN9wA46HHx7sMTNrFok77yRWWsZdP7+L11577QBGk7dIBEYWgXOLOljg6mRdn8GcIoVCh4J1BIs0CmvDLU3T6Uw5R3bisrdDFoEJRRAKpijkzxQ1FnQUVcHhsOH2OMlommk96O0KkUllKM2v4aTDz2Fy+UzKCsqx252mq6G3p49tW7bz4J8epLWl9ZDd9Im2cKth8IWuTi4I9JtvWJHHH8eYNs1chrpsGZ5LL83aYoHM/PnE774birIV75LJFFdfdTXNzc0TbdlyvgcRAg5V4wOuNUzyKtTnZS0F/WkbqyJ5vBXK56s127Aq7y+AZk3Ez/1t0npwEB2bcV/KhCEIdq/CjHPcxBIxYtG4GVeQV+AlmUjidNnJpA20TDZILRaJc/yCMzhyxqlUFtfgcrgHpJYVtm9r4r5f3UdTU9O4gy8nMDQCHo+HL590ImfccfvgxZGXX8YoKzPjDlwf/SjW9evNz3S3m9h//oNRXp4lDJEIanMzweZmPnP3PcRlTY6hAZdXjAoCqmJQoCbw2AzimoWIZiWu7wo6+J+yZo7O23+dlqSu0pxwsT7q4+VAMWljBE0So4KE7HQiITAhCIKrUGXq6R4Uq0Y0EiMZT5PRMlRPLmPH9nYzQFHXDHZ68MKhKCcv/AB1lbMo8pVQ5C+nJ9hhyi9rGXj4t39j+bK3J9I+HZJz9fv9XHvdtcwLh3BfdlkWA8MgsnQpRn4+ljfewHXZZWgDwYjJu+82iYP1mWewPfcc6pYtg7j9oKKSF/wyuvuQPEgTYNF2ReeWqeuGbUXoSjl4OVDEkmARGSNbCEo2icBII5DzBMFVpDLlVBf5ZR662/tMK0E6nTFdDB6vk2g4br4sioqNFtViZjWIawr8pRw35wOoqFitNtKZJE6HC6fNw0tLnuX1R9eiZ+QXa6QP1Ej153Y6+fHPfkJ1dXXWjfCJT+wiCEuWYBQVkbrhBv70/As8nl8AisIxVZVc898XyduLpSBgsfDRKdNkZsNIbZDsZ8QR+EbtZjPt8b2acEK8HijkL13VIz6+7FAi8E4EcpogeEpVppzsIb/cTX93mERCKI7pZDQdqyWbviiIQjKRMkmDqqi43A4zMlhYFArdFdRVzzAll2OJIAY6kWSAtZtWoabt9LxtRU9LkpBrXwthJL3/uGMouvZac2rCEuA+91yE5oFokWefRTiIvvX1bxKOx/eY/pREgl83NbB7xthOz+7lk+tpdDhybblyPhIBE4HDvEGuqHxv16ewGvy9q0oiJhEYEwRykyAoUDbLSeV8J/4SF6H+iJmpIBLYMmmNVCptBiiK4ETxzIjFEubDQ4gmCW0EYU0QCcYOpwOr1Y6WTpNIJbFYVRx2B6pFJRyIYNEcdCxTSEtxxTE5bMMdpCCT4Y9zZ6P96EfZW+JxvEcdhZJKmXnjT130Ee7aspVEYu9vW7d1dzHvA+eQOftsjMpKsNvBYuH6n93BitWrhzsNeZ1EYEwREPT3O3UbKbZlNRL21r61bTZRKbk8pvtyKA+WcwRBPPDrj/NTOMWKJ99BPJokEU9hsSgIV5twM4gQYJfbjm7o6JpOKpkmIwIUdQOL1YJhRgMbON1O7KJimqIQj8XQDB273YbL5SSZTJguCRIO2paniXbto6b7oXw6xmntJek0f7RZSP7rXzCgkuj49rex/u1vPFxYyO+KS9/TVXDF6Ys5//JPw06dhIF13Hbrbbz++pJxWpUcViIwNAL/r6SNUwr2XcTpm1vnkNgtuHHoHuUVEoEDRyDnCML0kwopnWXD5rASDaRI60ksFpW8Ig8tjZ0E+sL48z0YGFjFQySRNAmCsB6I2ANBEKw2lbSuYbVbcDmcWFUbmUzGJBo15VPQlCThTC/TihdSUVhHe0cbLzz2KuHm95dmdODbIO/cHQGLYfCnpgbcr7wCednAQn31av5+5ZX8uahkSEHar3W0cy4G6Y9/nNSVV4LLZfZxyy238saSNyTYEoGcRaDAmjLFlCz7SHl8pLOK14PZFF7ZJAKjjUBOEYSyOh8nf3I6wUgfFc6ZFBYXsKV5HVGjm+72AKFgxLQSiPTGRDKRJRHhuPnw19IammZgtarYnVbTDaFYVLx+DzWFM7FaLBiGwqJpp5HRU/Ql2sm3lZvxCqlMnI0Nq1n+yip6N0tLwmgfuuH0X5tM8sWrvkr5MccSDod54oknePKJJ4e8VZCLXzY1Mj2ZdT9odXXEHnwQCgv5zre/w5o1a4fsQ14gERhPBL5QvZ0Z7shep9CSdPGTpmlDkuTxnL8c++BBIGcIgsNl46ofXsGk8jp6OwKUlBWLiAP6Iz28su5Rmloa6Onso7isEHGtjo6h64RDMTRNw2Xxmi6ElBbF7rJlCYKqMKNuHrMqjjLdCSKDoaqgHtViAcVANzJEQjEiWjeammRly/M8d2cD6YQkCblyxEVsibEfFZg+bbNyydYtKLvFJ2hFRUSfe47PfPkrdHd158rS5DwkAntF4Ni8Pj5e1rJPdB7qrOaNYKFETyIw6gjkDEGYfXQt3/3WDRhpG06niC/QSKWTpmpiQ/tmfv/U7aS0OIVFfjQ0bDYrqWQKoXlgUawcPf0sPG4/61qW0J/oIJVKYbUrnDjnAnyOQjRRZF0xKHNNxu/PR7UqpLU4hqLR3tpJWo2yOfgKz9yxnXRcEoRRP3mjMMDs2bO4+Qc3Y0kkcH3qU1hWrRrUtt/2iU/wmWXLR2FU2aVEYGQR8FvS3DRlwz47DWWsfG/7bGlFGFnYZW97QSAnCIIITDz5ktkcWXc6hx++ELvNltU2MPUNNAKRblZtXMbatpfJKCmS6RhWm9VMe0xEk/jcBRwxZTHTq+ahKWnWtL7KquaXTdnlqpJ6Dp98CoFgLxva36SM2WYcgqGJjAY7Dq+V9v4GXnjyFXqaI4S79h1BLE9Q7iLg9Xm5//77cA3EG5BK4fzsZ7EJzQTgq5NqWeN25+4C5MwkArshcHXNFmqce6bw7g7QhqiXX7fWS8wkAqOKQE4QBLHCwmoX/+/KkziifjH5rhJULKQyaTp7WwiGAmY8Ql+4m23t6+iKNBJJ9JsZDA7VQ2XBVKaUz6OquM60OMQyIRq61vLS6n9TUzXFJBP9kS6CgQDN63spL64hkYrhTBUS2SFqNPSYgY77Ycke1U2Rne8fAj5V5Re/+gX5IqVx99baiufMM3nJ5eKHFVWDiov717u8WiIw9gh8oKiDs4q69jmwjsLtO6awIyFJ79jvzqEzYs4QBGHyr12Yx6QFPip90ynyVNHV285rK5+lvnoGp558BrqRJhQN0Bdvp8xfY2YnuO15WHQHFhxYrApOpxtNTxNK9NLSsxW308f23lV0hZvobOqnq7kfi4hBQMFqsZHscJBos2FoUjBpIh57l65zS8sO5hQVERNpkT7frmUYBl2PPMIX//wQqQGRpYm4Rjnn8UFA1E9Y5OtnaahwzM35M91hrqxueM+FJ3SV7zfMlLoI43M8DolRc4YgiN9vX30Ge3mCaCSKYlgw0IgnEjidDmbMms7cuYfhcfjNjaktmIuKg3QqRTKsEwz2E02GKPAVozsSbAm9hmo4qMqfytbut9nR3MiOTd2Danyqqpr9irLR6aCFaJONTFgWOplIp17QvK90tHNeMGBOO3388SR+/eusMBIQDAS56qqr6enZd175RFqvnOvYInBiXg8XlbVx3bY5xLTdtTlHfx7zMiEun9YItvcea2U4jz901KDJegyjvymH4Ag5QRAUFXyTDfLrRW6CRqAvRDwuaixkdQmcQtgonmbGvMlmgaaqvOlUuuaSyrhJRGOkY3GSySia4PlWm2k52ND2PB6/Qygz098TJhqMm/9ts2e/cRZVNbMZhDVBKCyqWIk2W4i2qujpQ/AkTMAlX/ShC/jM8rfMwkyiifMSu+ce9FNPNYNUb73lNpYvl4GJE3Brx33KLlXjh1PWoSpwS+N0OlLOMZ3TF1ubmB8Pka410CvB8ICR5b3van/umMTSUMGYzk8OdmggMP4EQYWCKZBfDxldFGJKmRaEdCpjqiOKFEaR6ibqLAi64PE5mVI9iwU1p6Bb3LjcwqKQTYXLZJJsbVrBklWPUBu43wAAIABJREFUk8okzeqOqrjXophxCCJmwS4yJLSs4qLoU/zb7rCZRZ4EefA5/Gx+IUwybAyUiD40DsJEW+WJJ57AVVdfhRqL4TnrLNQBK4FeVkb42Wf53Z8f5NF/PTrRliXnmyMI1DpjXFWz1ZyNKKn8164q1kb8e5RoHq2pCi2PO7euxzvDj+fkSvrvGShn7jXQqkGrwLQs7DQa6LrCQ+snsdSTP1pTkv0eogiMK0EQloPiOQr+SVn/v6izEA7G0JWU+cCORuJoZmU+RWQoYrXbTO0DIXg0q3ohlUWT8XlKsCgKgVgPyze/SF+oG03LDAQcGgPxBtndFTUYTNeCK1uPAV3B7rCiWlVTJ6Gg2GcSk1RcI9Rs0LtRl9aEHPxi1NTU8JOf/hjHQOElZe1avBdemLUiAI98+ELuW79hv/QTcnCZckrjiMBUV4T/m7R9jxkIM/6dzVNoGuXAQIeuc+uOjVRcWEfh52fTeOpj2ZSugWbJd6Dm2Uk3h7N/McB+dBlfS5XTH5Ep2uN4bA66oceFIAiLQGV1BaVzLLhKVELRXtLpNP0tCVR/3KzMKCwHQuxIvPHHwwlT9MjtdQ8oJmqmrLKCBZ+rAI/LT1+kg1QmYWojCGVFQQTEF0f8W5ABUflRSDYLeWabzWZaFERdhrwir/k3QU68flE1MmTGJdisVuy6j+Z1/QQaNPTMQbf3E3JBHouFux+4n7yC3UyqySSeo49Gjcd50+PhhspqkgM1HCbkIuWkxx2BSkeCb9Zuftc83gwV8GDHJIQk8jF5/UxzR3CqGiJ6KW2otCUdrInksT7mQz/AuIDZnjCfK2/A2q5g26jCO4TbJv3jTKzlbhpPfBRDyxKHyvtOZoXVw3dvaR537OQEDh4ExpwgCHP/uR88i3M/eC5Ol53ecDcNHRsJ9kZYuul5Iule8wGfSqTNh71wHQg5ZEEqxINdEWYHEb6Y0Uhn0qbbQFgYhHtAXJNOicJN2ae5uNckCAMPC0EUBAkQ14nYA1+eB5fHQSatm3EI8VgCI6Pg9XqxWqyU5FfT1rudSFeGhv++d532g+dI5O5K3LrOfQ3bKPrQh0jeeCNYrYOTtT3wAD0/+xlfqq0jZGapyCYROHAErIrB9XUb8Fv3fDPoTjkQ2QOT3kOjQIwqghq3x91mBsTqSN6wsyCEa+PyyibyrAOBUDqoPWBpBUungpIB34cmY6vx0nfX2kE3qG2yj01VRdzavVsWz4EvX94pETARGDuCoEBBpYtTzjuaC8+8FIdV5O8apNIp+oI9dPV00BrcytItzxAKh0jGk6YFQZj8hbPNYrOYgYWiKJOoxyAqOQoisJNA2O12M+ZA/E1YI0TfglgIcpC1HFgprSw0CYIgB+IzQQpclnyKnZNI6ynWNy2jpLAcm+Y16zzk5+fT0rvZdFesejgodRLG8Usj0hlvbmnm8HjMnEX8W98ic9llgzOK9fXxpcs+Ra9MZxzHXTq4hhYkQAgWvd8E6N60nf/2F/NqoAihX7B782gaR4UD1CbiTE7EyD8uieLdR9E4QRZCoPaDElMgDYr4qbOC4YAtfje3x6YcXJsgVzOuCIwZQfAU2Tjns/OZX3cy9SVzTOaroGJTHSYR6I20kdZStPY28OTSPxOJRIjHkugDFRprplSaboe2xm5i0YT5NUtnMqY1QNf1QX+0uCYz4KIQ5GGntcBqt+Jw2Mz4A8Wi4HI58Dj9HFZ3HB6bX1R24O1tL+J1+7FYrFhTHnP8iNpKIqCz8ekBf9+4btehObjVauWz55zNh//we9SurHiM4XAQfewxjNpaM+Pl61//Bs07pHn10Dwho7fqUwu6Ob+4Y5/VFfdn5Khm4bGectqSLjMtUVgpTt/Rw1GBYPZM2yBxpvnDeECtP23jhoZZB3SvvEkisDcExowg+ErsnP2FecytPMEkBaJcMzpEuzV8pTaCkQD94W4ymsbbW/9rCiLFonHTx5Zf4Ce/2GdaCBo2txINJ0zFRBE3YHocUMx4AtFE/IIu4heEFWGAiJsxB3arWb9BuDgEcfB4vJx77CXk+fLRRQZEOk0iHSMQ78Zt9xBJhOgJdLB5RROdGxKkY7IU9Hh8hQTBu+iiC7nkE5egdnTgWbwYRdPMqSQvuYTodddx++138Nqrr43H9OSYhwACpxV0c0FJ+4ivVLz9O5/exQa0coPUkQc+jCAdV285bNjujAMfSd55qCAwZgRBAFo23cOc4yZRWVJPkaeM5W+uYu3qdbgLrCxcPA2H3WXqEWxpX0lvT6/pGhDxAWWVRTjdDtO9sG3DDjNgUOS5C3eCeICIf4TokXjQi9gETdeIRURgo5n/YBIDm8OGVaQ2iuwFBQ6ffjyLZp9ouh7Eoz+VSpJMJMnzF5DOJOkNtbNm40pWPNVEIph9IMk29gicfvpivvR/XxoUuHLccAP2hx4yJ6KVl3Pf5Vfwl7/9fewnJkc8ZBC4pKyZo/L6R3y9ai84luwiCOlpBpkZ72+Y722fRTAzhLrS+xtC3n0IITCmBMF811ezD3QRGyAe5uJtvnCSk9MvPRzVsJFIxc2gxXAkJKIMTYJQUV1sBiGmEimatrbjy/PS09FvuhxEP6LPnQRBkAYRuBgJR804BBE/4Ha5qa2caloIDMVgcvlUpk+aT3FRMXabC6fNRTwdJZlO0tq1nVB3nOYN3axYupZMSpKD8fo+LPB6+dZv7sOxswCTmEgggPeEE4SpiH/nF3BXeYVJDGWTCIwWAtdO3kSFPTni3YvAQ/uKXQQhdZiBVvv+hpEE4f3hJ+/eE4GxIwjie2AVgTW7/Zi7LSh5NhYdX8VHzrnEjAV4ZvVfWN/wFsmU0EGwUODXKasqMElFZ1ufmdngcjvpau8z3QzZIMSs2JHoOZPMBimKjAQR2yBaZfkkFs48jqriyeY1bqeX8oJJWOyYpaKj8ThPvPE8VX4vT/7rKaIdmIGQO5Uc5aEZewSqUil+saMRx9VXk7788j0m4D7lFN4Ihbm5qopk1sckm0Rg1BC4vm4jhbaRr/Jq2QGlC2bgOa2K1k//l9Q83RRCOtAmftuEi0HKLh8ogvK+dyIwtgSh1gNN0T0UCmsXVFJ3+Gx8Tj8nLTyStv7NtHRuI5IMsX1HAKfdyZxZpWS0FMleBz3aVkLRfno7RWBPNqBnJ0EwHQoqpqUhFIwSCUbx5rmoKKzlgpMvI89TiEW1YbPasVsdZFBIJuJEw0GWrHmD1U1biPSvJ97oRItIM914fV18msb9jdspEVkqbjfRv/0NY8qu6OzW736Pa99eIdMZx2uDDrFxb6zfQP7OtMMRXLulBSpOnof3AzU0nfMkqbk6Ws2BDyBcC8KCIJtEYKQQGDuCIGbstkCBHVqzdc5dXjtXfvMyDp99DG1dPTz66tOU5Oczp74Oh90USub5ZUvx5SnMqZ/GhvUbsBWmTBfC2s0r0TRhIVBMJcTD6o7G4/LS0LmevkA3WlqhvbUDVI2Swgo+fsbnyfMUY7XYsah2dFQiKR1d14jHY/T1d/DoCw/QF89Q6E0R2Wgn1ifdCyN10Ibbj9vt5sfXXMWMT38aNZk166bOOYfkHXeY/x0MBvnKl79Cf3+2QJNsEoHRRkDUZPBYRv63QO0Ex3IVkZkrgrHTMw0yUw98NRujXu5urT/wDuSdEoF3IDBmBGFnuqG9zEsik2RWST3Tj6jm3A+cj8vqwa7aSDz5b/7y8lO85bIxd+HRHHvYQtLpMP9+/QWqiwvY2riM88640ExPjEcTdAXbTEEjm8VGTdk0wol+IpEwkViEuvIZNDRv4+8v3k95eRmLF32Y6VXz0RUXibSo8aCT0TKkknECoV42Nb5FeOlzFCrFvFHoYlIJNL4UJSmlS8fsSyOyTa6+5iqOPfZY7LfdhuOBB8yxDa+XyCuvIBQQvviFL9HX1zdmc5IDSQRuql//LsGkkUBFDYLjlV0xCJlqg/SCA+/5H51lbE/48Vgy2JRdkstBzWYKNwkLg1B7lE0iMFwERo0giNgAkb9eUlLMoqMWceIJJxIrsHD1E3fhbQxyzUc/R0EhVBcIxmsRr4bEvvm17Lw9bvqv/irPrHmbVRvXMa2mlGVr1zGj3sNZx5xHdfEUPHa/GVSY1BIUeIrN1Ma0lkbUZRQiSNFUiKUrX+HppY9QUJzHEbNOoLZsJuUFU9AMO+FomM7ORtrbtvH6hmfwxlNc31NspiD/y+/gpWIH+fY4HW8m0dMHmJg83F2Q15kIXHjhh7n0k5dmMxY0Dc9RR6FGIuZn4Rtu4Btvr2TTpk0SLYnAmCIwWgSBDLie2vXborshedqBBdyu7NEpdCjU+Pb9W5UxFO5qrqcx4RlT/ORgExeBESUI4od98uRazjvvPJMUFBcXIxQOBVkQlRov/OO3aQv3oOgGp3mnUFno4pTDj0czHKQTCfw//xmW7l4is6bTcv65dPe0sHbja6zdsoqM4cHmLGXhrNmccsTxTC6rNQMOrarVTGUUpMAQckeGCC7UaOlu4Ef3fQerw6CoNI+CokIcNicZPUOhr4yu9l6am5vR9JSZFulJGdzUW4IFhVanzsMLHHQFXRjhKOH1GfSRj1GauKdmFGYu4kgeevjBQcErMYTroouwrllj7vMdk2p4zC1/2EYBetnlEAiMlotBDGt/HSx9ux7qQihpX2Wd9zXNjG7wcpvBadVDWwfEd+lXzfVsjnvlvksEhkTgfRMEQQoEGTj77LOZNXMmhUWFZs2Edzbx4L5v6WPct+zfFLh8/Pmj3+Lex39lWgIWzjmclGaBZBKtt5ewzUZXYAcr171Ic/u2rOiRqHBqcVFedRQlhWW4nB66+3qZWl3LvCkzmFRWaaY0xjIZGptW8sd//ZqOnjYzVVJoH4iaC0JmWWgipJIagb4QTqczq42gZms4THP4mWU4We3NkPLayS/207IjQ7zfIL4xjiELNg15oA70AkEkH37koT2qb9q//30cf/4zDxcWcm9J2YF2Le+TCBwwAlZF5yfT1h6ouOGQ44pARfvKXQQheYyBXjzkbXtc8FSTzqnVKo5hliDpSjn4QeP7FFzYvynKqycoAgdEEIRFoK6ujjPOOJ3jjj+eysqKwYJI74WDeFNv6G+nwldEd18za5uWsa6hGVW1UlNRQyweJxJsp7FjE83tm4nFoiSTyQGrAKbpefHR/49Ixkb9pJlMrZlJb6CLjt5OAuEAsUTULOC0ftMSAv2t6JkkuiYKPgnFRQWHw47VZjPnKuR5PR4XVqvNJBAifbKwOM+s7iikm21WGw5RSTImMiIU+rpUklvjZqlps/RqSpZVHekz//VvfJ0TTjh+sFvLf/7DK9+7np+UV6DJGgsjDbfsbxgInFvUwZlFWXnvoZoorPhYg87RZQoVnuG5JZU4OJ/fLQ5hkkF6/lAj7fr8+WadBSUKRc5dfcR1lWjGSkwX9lDMapPF9tQeJOfrW+eS0oe2OAx/JvLKgxGB/SIIPp+PY489hrPOPou5c+fu1VIwHJAEAbj70ZvMB39lUR0rNm0hmohjVQLoWhrFYpCIp0whpGRC2Paz9RbE27/fk8+5FYfzVneI2gXHc+y8o0zXQsZIEY4EePTpP7B5+2pQHSjmPxYUwyIUmlBUHVXRUBWddDqF3W4xLQg76znkF/lMUpDRDGw2O1oGYtEMhjm+IBEK8X4NQ2RhxEc+qnk42B3M1xQVFfF///clZs+Zbe73K088yW9+/wcSkhwczNues2sTgX4/mLIehzq8l4HGkEG+A1oiBpG0cH8qzC9WsA3xHHa8oZgVG82mQOIUA2MY3rQV3Tpeh42U6qY56aIh7qEl6SKi7apyuhPcT5TvYJF/V+bPDdtn0p+x5yz2cmK5gcCQBEG8bZeXlyMkby+86EIESXg/LZVJ8v3ffY7O/jbzIZDJaOY/sbiddEbB44oOlmwWtRaE1UE4oUWNBqfDQW3Gzpe78ui3qtxX4qdy4SJOXTSfTEbn5SXP8eqbjyGKswuVRuE6EM+WT8VK8Nry6Lfo/MvThW61oWuKWa/d7nSaJaSFFcHtc9ER9Zo+b78tTJlPx2oVlSAtOJ129IxBV49Kx+ooercMSng/5+C97hWqmSKVVRBE2SQC44XAPG/QLL08nNaXMFjXZ3Bi5S42EE7BvzvyOaE0SbUjsc+CT0oMnC8qeBZXk9ocIJ4Jk144nFHh1qbptCedQ14sik59aLd6Ej9snEFnyjHkffKCQxuBfRIEkYEwefJkrvjMFRx55BHDciEMB8pwLMC1915KKp00Uw3FQ8CW0jmrVeVZm59WbxqL3oWhayaBEGWdBa02RMVGp4N5URuX9nhNc1lDvp3/zCuno0+nOt/JinUvm/0KN4K2sxS0pvODxCQqDTsaBjeW9BJxirBGhXg8gdfnMa0IDpcN/HlsspSby3DEgkzT+8yqjwILUQlSTKUwrZLemODVTXG03VUhh7N4eY1EYIIhIIJHRUyRmas/EGAvLG5WVfDw7MNQsYnvpwGCzwkyL2x675C/FtbCne7CiQCB35rmpvoNw5pqQoOXWnXOqtnTVPBcXwmP9VSYfbhUjbOLOlnoC+C2aGYlx92b41WF+r+fT3xFD53XLCE9xyBTN/Tw4iH/o6bpiAyF92rvLDg1XGIx9AzkFQczAnslCMJ9cM3Xr6G6umrEiMFOEHVDY+Xm13l2+T/Z0LjCfPM/vlPh9C6rKO7I/SUaq+wu7EonhqjKpJCttyB+lKxWkyic3u+gNKnwSEmclKKTTKRJKxUYmT4MLYzP7yYSjKEJgqHpnKL5+Z9UEcudCR7Oj2CxWqkormZHWyMev9O0EIgARovTwQqj3HQpuHtaqNDDFBUXmARCuDfEj+WHXg/RNSmf/zrtrH62FUO+5B7M349Dfm0lpWUsW7kMRI0TBTMDyZXR+GplDfMU6CtK4rtuDsk3wrj+1oGOix93NLJOSaOZFMKKpibJ93upKqsjkRj5mgYjvUkqBlfXbjHf+odqmmHwzA6Ds2uygkc72wv9xfy7u/JdlRWzivMG1Y44x+f3MN8bxK4aJrHyrfVihDJo/Unzdy89dXjFm/7TW8pTvdkXm321Dxa3s7iwe/Djmxtn0C0tCENt7yH/+SBBEA/hU089hYv/52Jqa2v3iCYfaZQ2t6zmF/+4nlAkaLoCZgQVPrYjW1Xx51URdlg1klo+FsJY1ZRZ1VG8ve+sxCj+R6gnChdCKpUhk0qTTGTQVT+K6sLnipqiSHar0yQjilXDZbOhm9drpvVgWu1c0kRIKRGTIJg1HawqDY19uPN82LUk4UCE0tIiXG6X+bkgCmcvjeCceRjdx87l9aUvsvyJHaRikiWM9BmR/eUGAlNmVVEwZSt5kRD2tB0VCzG/mxNeTjCvEbpK+7D8eia2JwLk/TZOQrXw6FlWWooz+IJJrIZCwG8hRjlbXoVoJKuimktNPLRrnTFTYEgoJi4u7KJ8GMWZmsIGbRGDRWWqaVERLaJZuK91Mk0Jz7DKLouxXRYNj5phUizO5Y0t2HazvugeSB1jYLj2jZhwlf6uvYZVkbx9XnRxeQvH+HcJjF2/fRYBWfUxl45hTs5FOfcD5xnnnX8e5513LlVVVYNldUdntgabW9Zwz2M3E02EzDd/s2SzAWVphVQyTZs1TTqTMQMEM+QjqjPbLWGsdguqoppuCXGDiA0QBZqikQTRcNyUTBaxBBndgcMzmcULjqaquISuQAsvr3oc1ZKtIikyGcrya6kqq6En0kY42QVqtiS0KBG9Y3sHFdUlZt+dLT0mOaiaVIqhKcysWciRVceSj5Nep8EbW59g05qtrHy8c4/6EqODnexVIjD2CBx2bDXnXRWmqLcDd8xJyJ0hXurB840mypeVsn6Sgf2aqWSW91P0zyDFsR467iwnWa+R35MELU2wwkd7qJY/X9tFsF9UWc2NJoIPLyhu43B/ELc6fJIfTBm80mowq1ChPk+hJ2XnrXABW2JeGhPu91Usya1p5GkZVMMgpSgEbTameiOcX9xB5XtYNKKahdt3TKU7vfe4giurtzPTnRUdE+3arXOI68PMi8yN7ZKzGAcElPb2dkMEIY52EzJG29rW8pv/3EpaiZFOZQgHYmYMgkhBFA/4dDpj+i7TybTpGlBUFV3xkUpbKfAnUBTDtBqIoEbhanC6HSaR8FqKKcovoTPSzVpsqCkb7mCKI+unccT0GSzf8F/a+5uwWBUqyqo4ed4FtPU0snLba/SFuvH63ObyRfXH/u4QJeWFWG1W000R7I8wY8ZUDp96ElMr5lNeWIXD5iCajJgEYUPDCl6+f8egf3a0cZT9SwTGEoF5J0zixG92kwzuQE06SVmseJMGtT8IoLfU8+ysyXTlgSXtZF57iGO3vEnzd310zhb2QB3VSOAs8JLqmcaD3+wn1L/rITWW63jnWHnWNFdUNlLjHJ5FQ4RYiCyFQMrApiocVqSY1oK/d1WxMpyHPmpKCdmZC0vDifk9nFPUacYw7K01xN3c0bz3Yg7fmbyREns2sFpUe7x6y1zTlSqbROC9EFCMMahpLIbY1LKK+/9zB6ojbM4nEoqTjKfMB71iEQ/9jJmxIIKdErGUSQ48Lp95hPtDUTSK8LpjOByameUgiIR4668sruPYGedQVlTJay0beGTbW2b/pQ4vn5p6LMs3beTwqXMo8DpNfQWX12HWbVi59TWWrHiOaDRGcVkBInJeEJVkPInT5TQtDaKF+qPMql3IaUd+iLK8KpwOF4LsxJIhdvRt4vk3HuWVPzRIgiC/ZwclAgtOqOHEbwToj7ZgpEWgrw1fKsOUG/rR2up4ct40+u0ubAZM7+ni1PVraPm2g5Z5KVIWGygJ/F471q46HvxmmEAOEASvJcOV1Q1mHMC+mjDbhzSrmTIYylhJZjQqbVHK3NmHajhj5damaUS0sa36WmBLcUlZC9N2swbsvoZftdSxKfbuTLOfTlszGBjZnbJzc+PMg/K8ykWNLAKjThDEw3RTy0oefulO1m+LMKXeQiqVQtXsZmElXclkCycNZB34nPkUuMvJ6GnqK2cRjgXpCrTSqaXY0ZAg3xXFpoaw2FRURcHnyufSM6/B7y6gPxbkzrf/QyAV41NzT2NheT3JVIp/vvwEkUSC2lI/HreTsqJy/vnKbwiFgySTafz5Xrx+l0kKhGRzLJygsEj48xRqimZwRP1iaiummFLNVovNLEXdG24nGO/jr3/4J2uXNIzsrsjeJALjjIBwx+Xn5zPtaB/HfqGHUKSbTFoxhcK8CQuVtwbJ31LF6no3O44EX4eFqesV6tuaafmOg4bDk2BG1ut48h0oXZN48laDrtZ+Eomhg/9Ga/mqYvB/1duod4nSX3u2pK6aegIv9xezJuo306B3tq+bQYtZQpE2FG7cPovwXvQGRmve7+x3kb+fC0vbzOyI3dvmqJdfvqOio7jm1qnrBi9bFfHzQNvksZqqHGcCIzCqBEFYDlY1vsrfX/s1hlVoGqhs2ZKkvkbFZfXRE+wwH/TCkiAyDioKJ3P09DOwqBbzQSyqNMbiCbq1JL9Y/TyKruPrDGFPJSjIi2BRNOx2BxedeCX1FTPNt3hR3dHUV9CERSJDV18HXb3thGJBXlj5FrXlldRXFfHGhqfM+hBCiEmkMBYU5eF02UmnNawpD8cvXExL7zYW1p9MbckMkxyIIElNy5DIxGkPNNDW1M09P/qjSXhkkwgcTAiIjJ1UKgk1O/jafbMJBHpEIgOGYlAUtTP5h13ULveyozyN+ot5KM93U35PACxR1n+/mMZ5GQxFN61t7nwnencJ11+whNn1RxIOZ62I49EuKd/BUbsJBu2cQ1vSaZrnBUl4Zyu3J7hu8ubBP78dyuf3HTXjMf09xhTZFkLIaXeXg0h7FBoHu7ciW4rv1W0c/NMzvaU8MUTWw7gvTk4gJxAYNYKg6WmeXvkQb2x6Bs1I43DbyaQyBPo09FQ+C6bX43Z6aO3dRmP7JnyuAk6e/2HcjnJUoYoY7aEkvwpDV9ge6eGny/5tAna424Uj0k5rb9zsr7gwzbzJx3L0rNPJF1UdDY2uQIf5WW+oi8bWzazcuJT66hkYikZ5UR3/Wb6cPF8Il0PIMBum9aKoON+MO7BZHZw080NMrZqDzWo3az7YLHbzulgqQiDabboifK488qxl3Hn7Xbzyyis5sZlyEhKBkUJgJ0EwJjXxtftnEwz0ktGsaIqFwrDCjFs6qV/moK08BnfPwvpUJxX3JAk4M6z9fjEt81MmORCsXRAEpa+cH37kbabXLqC3t3ekprlf/dQ4YnytZhvCirB7Ew/M//SW7TOO4IvV25k+YNIX1oNvb51DMkfKJgttBRGXsLOJ1EWRwrh7ExkaV9VsHfzTI51VvB4s2i/s5MWHJgKjQhDC8X7+tewetrStxmKx4vF4iSbCGBmd2qI5tLVnKMovYEpltWktaOrahN9TSHFePYrqY/n6RynJK2dGlZATM7BYbbzWuoFIMsLC4klkMjGeWvYgXX0hIlE3fm+Kw+pnc+ycM82aCuKNPhgJsaV5NWu2LiUQCFBUUMphFTM4f10P25MJHs+30+PRcTnToAWprZnE7LojqC+fQ3l+DR67z5y7IANCyjkU76c/0mvGIJT4y6nIq0VVLaa1Yu3addxx+x00NjYemqdIrvqgQ0AQBCFHblQ38rXfzCHQ34OWsWAoFvKjNmp/2MG0t920lEWx3TULnu+l8N4YKWuajTfm03R4wiTVws3gynNAbynfPudV5s88hlAoNOZ4iXoEN9ZvwPkO2eS3Qvn8cQhrgDDP7zTlr4v4uLdtGApGY7TCAmuKG+p3WQeEJeS2pum7jW7gDG3lkslR5hVnrSP3tE5mfdQ/RjOUw0xkBEacIMRTUd7Y8jQ9oXZiqTDFeRUoWGjvayDPVYTHUYjXmceTr77OUbPnU1tWQSqTQjN0dPJIpMI8+OQPKfFM4uhP65JHAAAgAElEQVQ5p9HR28qRs4830w1FaqRIZRTm/m1t63hx5aMEwn0kUm50zcb8KdOoLqkiHIrw+soX0NQEVrtKf4+4T6FWt/ON3ixzbvDDIzMMgmGDtOZgZu0sLl78cQr9BabrQbg4BDHQjTSBaB8NLVtYt3U5nzrvGqpLagfiindtvSj+9Phjj/Pww4/Q398/kc+EnLtEwNRBSaeTGNVNuwiCZtoEyI85qb25m+lvu2gvjcDdM9Gf76bqV3HSVo21NxbTtCCFpmSVUD0FTpTecq496yUWzDp2zAmCECb6XFXDoBVg5/Y2J1z8bMfU98xAOL2wy0wx3Nly8eF6x/TVg/kIm2MeftkyZXC+RjoGvRtNnYaTKlVOrlS4v3O6WbNBNonAUAiMKEEQbwxrW96kqWsjHme+6UIwCy6lkrjsHhzWbDqh+FsmneGfLzzLacccT4EvH82wkNatvL78n7yw5F9mNoOo8iiqKn754hspLakglgya5n6Xw0NvqJO3t7zMmsYlppVBuEuDYaeQNCCT6CES7Ke4tMjUPwj0hU0xJBsqH40XUJOy8HwdtOerxKMJSooqqMybT0pz4rY7mVk3hcnlVaSVCI2dm9i0cROrNi+lN9DJ5IppfOmj32NW3YK9akZ0d3fz2wd+x3PPPWe6LmSTCExEBPZGEPS0iO+x4Ym5qf5RJ/Wr7LSWhHDcuQDbM73kPRAk4ErS8c0SmuelSFuTZmE008XQW8q1Z71sWhDGNAYhFaHeEeQr0/Z0awgNgDt2TKEjtY86Bloae6qXW+Z1D0b/d6Qc3JKDZZLvnL568IgtCRbycGf1riNn6Bjd60BPD/7NUjgV3S4tCBPxeznWcx5RghBJBHm78SUzWDDPXYiCVQQx47C5zUTeeCpiqhgKeWLXb37P293tPF1byf+cdzFup5dwpI/7HvkOkUhoQMvdwGqxc+Hpl1NXvxBNC+N3OEx3RH+ki2Wb/sv6HW+aZMJI65zZoLBZ9/KmWyWa6qAwT4TxZEz1Nps16y4QGQsOp80MjhTSzfFonCNmnUBd8WGUlpazIxDi139/EL/NyexplWze8ibRSD8KojZENuPC6/ZzxQXXsPioD+Kwv/sHxkzr3LiJn/70ZzQ0NJhuCNkkAhMJAZMgpFLo1Y1c9Zu5BILdZFIOgq1+7r/hVaq2uCkIawRdGeKT3bj70vg6IWrP0FvjZMoZPs7832oy1n58BT7o9XHtWUuZP/1YwpGxcTEYmQT0rDdLL193xJ6iQA91VPNGqHCfW2IEGrCn+7n1WOugSuJDndW8Edz3PeOxv3ZV58dT1w4O/VRvmRlPsUdLRRDrGSQJ/hoUd/F4TFeOOcEQGFGC0B1pYV3rUmyqA7vqZkv7KqoLp1HirzLJQSIdw2vPJxMI47vlVtNH+WJxHiumTeEDxy3m8efvpaltk2lhEEJJwpwp1BNPWngOiw7/gCmF7LFr5HuLTYXE51b8he6gqAppUBOE/9mQ9bGtd6f5idqBu3AqdjVGOt6Hy23D5hBVGR3YHDZTNllkJQjhlkXzjmdh/al4vfl8+enfkdQyuFSYZ+1my7o2dPwY2FEQynARMCII6nH03FP44se+S2lBxT4VKF9/7XXuuusXdHV1ZX2yskkEJgACZpBiOgkiSPHe2QT7g/S0OmhZYuGhn7yBTS9EtwrCrGKoCpqqYdFV7LoI/HVSe5SL0z5RTd2CJJ4SB1pfPtee9SILpp9AJDI2YklGpAMibfjtcPMxu0ogvxYs5C+7v2XvZT+M7vWgJbh0hoVFZQq5qh1QYkvynbpNgyt4vKecZ/tK93rCjHgfiJc0fzUoQ9SgngBnVE5x9BEYUYKQzMR4btODbG1bAxkFi2Lj9MMuQVUsZtyB2+6js6+NvniEgh//GEswQPC4E9m6YB6PPPMI0dDarDXArOKYLWAivJ5Om4vLP3ojHq8Xt8NCoTePHZ2beOrtP5BIJkxLhdeAS97S8KcVnixL8tdIKzWTK003hUWdgqLopDMNWO3g8ogKjRZTrlkopM2vO47jZ30A1WrjysfvIZSM4bNq5O9YQyw8kC898IUSFYiFDKrIzBBxDULM6cOnXcZFiz9lWkH21tLpNE88/gR3//rXpsiTbBKBXEdA1B4x0LBOaucLPz2M/9/el8DXcVfnfrPdfdG9V1e7LEuWLFnedzt7QhaSAA1LSdJHA+S9kr62tKUt8F4plFKg0BZCS3iPJEBTCkkhCeBAAlnteIvjLd43Sda+Xt19n7kz837njGTSV1LHie3Y8Yx/imLrzsx/zszo//3P+c73pcZ0bP7JNH7xneOQtSAMUYcp5SGbEgRTZAElAxIkoQDRcECXVbiiGv7yG9fBNy8NLd2AL925CR1N3cjnz4/cspkbA3ITXJ//8noJXkVATHPgqwPzoZ2mC8FMngTKKd73+jkiJpQ2HLoAiX12h8KF/iZd3OM7qwCBQqHpKspagUEB8QUkUWGiUr6Yw9M7NiBXSCFa2w6jWMTRAxtxaOIIVF1HOpdHRYzALA0zOfDUZppwOr2467bPIBSuhsOhwO90YGz6MF46/iTC7iaE/DUYiw9gYvA4HAaQQAUDJ0fRNr8ZkUA9blnzISSzGTy353kkcinU13rg9BQsEqJh4N1r7kZX43KoRhEj6TEciw+i79h27Nuz/dSqn8AAgRVBN7G26MY2p/VLjhQfabVVG27ANatuxvVr3ouG6mbucHj1RtkDau/a8LMn8Nhjj7H1rb3ZEbiQI+ByudCxNIrg8pN49IF9yA65gKILuknGaQa7rcoEDARSQCXlURGGWIRJNtCmExLl3UIpLHt3AAs65qP3V0Ek4xnOEJ6PzSylgNRJPtXSiICPdkv4fP8CpF+PSVEpBXNmX37Pq7sB+TX4CufjYl7jHIu8afxe4+Cpn353rAUH/gvTprdwqPapL8IInHWA8JtiQC2O3378q3hm18twOR3wKiUE/bUYm+xDoZjlSZhKCrohQ3DVQc8TSKhwCyRBeEVy4t3vuAed7Uu4zCCZJkqlSUwXB6GYHpZojqencHxoH8p6gcWPBnpH0NHVgjk1nbhu+fu5VEHZi4A/jJNjo3h2z4vweEtY3d2Fm9d8EA7Jg2RhEsSjqBgqHv/FI+gZOnzKhIkAAv+iME2sLbix3UUAg0oGAiRRYKBAnIZIsBrLutbj1vV3YF5T938qPdC1jo+P49FHH+Osgk1kvAjfmktoyPOXNKJ6+TR+9E+7kY35iA4MiTxRDIFbHskhFWYZHS2dGJ+cQj6fgyBoEOnFNURoko7Vt4WwaGEjDvzCgWLhPKoovoqg55RFBOoXYPo1zIz+0y01dZjTVGbQANkNIdKF/+DnfIE8A5cF47i9dvTUaB4cbcGh/Gu7Ol4gw7aHcZFE4JwDhEQ6hm89+kW8dGAjqyWSX7wpBAGzALOSAUyL+KdXKqhoOiDIULyN0ApjEAWdV+e04ogEanHPXZ+Hovgs/YFKAbnSECoVcn/UEEuPYio5gvH4MKbGprlzoaW9Ee1N3Vi34CZ4PdUQFT+csoGXR4/ixzs3Qs6VsbKxDSG/H/XRCOY01ELX80gnstjwwsPctcCgQCBq5UxnoylAMkyqoFibYP2cZJ9nQQJ5RLhdHly1/Gbcuv5O1IabfiNQICLjw488gl07d9kZhYvkhbnUhtm+uB7VKyfx43/aDdn0o6pJglRxwDGsodlZjwVXrcH+1EEE0wayO06gJClIzRNQ8FVgqBIG+pJYfVMtlixuxYFfSOcXIFB/UzEOpAcBhw9C+NX6AK/jThoaiMcg+OoA8fx6LryO0fFHboxM4tZXCSXZAOH1Rs7+3OuJwDkFCGOxIXz9h3+FI/37WaKYsgSU0ieeAaQAJKUWlUoSlVICFa0InVwaTROi7IDT14xKcQIwVYuwaJr42If+FI21SyArXuqFgKEmUDSS6J88gt6RIyzZ3Hu8D4V8CVRDJRLiqmVrccOq34bLHYTiDvOE/qXtP0CiaDGpP3vVHYi63TjaP4hDJ4/C1PMw1QKOD1B3hMrnod5JykC8euNxirROImAwk12YyTIQQJCIBCkIiIbr8aGbPo6V869k4aXftB0+fBjf++6/YP/+/XbHw+t5au3PnLcItC+qQ/WqcfzogZ1YfkUTbvtIJ0KFKyA/N4raCRkZZxHZW9IIbR5B8+MFFBUNA/+rDmOLKyjE3fjyHz2LFVfMxcKONhx4ykSx8BaU1sjy9TXevfMWyHN0og9ER3Fl6NctnDZAOEeBvkQPe04AAlk3944exV9/+w+RLaR44mftgwqBA4uA2F1x431aHX4c9GBQ0lEsJ1DKjQM0KQv0Pitw+Fuh5sZQoTYdmFhz+VJcu/J9CHrnkNgBSkYa6WIcR0a2IT6VwonDAygVyjxh86peFNDdugIfvP73uHMBTj8k2YnD8T786OiLaPRH8LGVt0ISRKiVEo4NbcELGzcgmy/AiSYUmaiVYuIV+T5Y879lkkq8CgYhBBIoy0pAgX5AeEIUWHeBMh1EYiRw8a7Lfwe3rL+DBZh+00aA48CBA/jK333V7ni4RF/GC/Gy5y2sRfiyE5jT1AJEynArQLW6AIu3+iBsHkAivQfZT0Xg31JE2480FOUyjn2+GgPLVei6A8aUD9OpFFK9Xhx+ijIIbwFAuBADe5bGdEe0H2ursqz/QhsJPw2WLL0Ze7Mj8GYjcNYBQqGUx083/St/FYoFnqipdMC1dtJH8EYQS07gT0t1WKJ7uIr/FXEIB4UyHN5aKK4I1Pw4DDXJ3AKnvxmVcg5qYRoNc6K47Mo1aI50cYdEujCN0WQPCzHt2XoIhVyJMwSUOaD3hcoTbqcH9/zWZxCuijJHQHK6IEkmdFFCxaTyRBZlXcf+49ux+aUNIHCzrujBHekQ4pKIDYE0DrgqMEUf+dJxvJ1SFrKY5/HRMWmjTAIBA7peypLQuf2+AK5d8V4GCpv2/hQ3rfttvO+qu1+zJZKOQ/tu27oNX//6vUin02/2/tr72xF4UxHoWFyH0Po+GEU/GpvrUdMQhKNQwfwNabRsOImx6jTin2uFZ1sCrf+uoaj8GiComoierSJMRYWU8uDwk04UC7ax2Zu6Ia/emTq9pvaj1W/iD5ZIcIjAPw62Y7hsA4SzFuNL/EBnDSBUdA1bXnkaP37uO5iIj7CbIrf0CQJqQ02ojzRjeKIfq7uvwot7f4ngdAp/Wq5DD4q4VxgGW7twNl+CpLihuGsgObxQ8zEWKJKdfmj5Yay9ZhECQfI7FyxnxWIZ+146ikKB2h1nMgcSdRbMrO5FAYtaV+HmtbczL0Ak7SaxAs0oYSo3gsmpcQyM9mJg7IRlOQ0Tt2T9uDlneao/Gsxgm68ICBIqqIZu+uF1xCAJRYtcaZigksKpkoMoMDhQVQ3RcC3eue4ONEXn4djgHmw9/CR+54Y/wFWL333ax45awZ55+hk88MCDNj/htNGyP3CuIjBvQSOaV2k4ujOPzoX1WHylB4KaR9P/2YmOvSLGwgUkP9cK7/YUWn+koqSoVgZhmYp8zIG//cgerLi6AUu7WnDgl3YG4WzeJ7OcAZKWCZNXAd7XJmJLuQODJWshY292BN5sBN40QCiUctjXtxWb9z+J/UdfAXkS0MqaJkwCCKFAFJcvvQlelw+jk4MIBaPYeXATJqfH4FKcrGOQyqUsbsJMVwA3FJIXO2kYKF7IzhBcvlpo5QzcjjQ6umpAC/epiRRG+ieglqgsQZ8nrgBlECRIM+l/WtUTmIiGGlAbaoRTcbJo03R2HLqgoVgocDmAxswkSdOEbAKX53wwRCe2eSWUBRGKqeG6rA+LyhXsrcpht98qhVR0i0hJgGS2vEBkRQYMgoQPvuP3sbR9HY+HZKH3ndyKu2/636iPvD672NhUDD/bsAGPP/a4bSv9Zp92e/8zigC9UwuWzMOSqxpwcNsgXJEKln+AgPgE2r80ge7dLgzVFBD7XAf82wggaCjNZhCWqShN+PC3H92OFdfUYnFXF/b/yrBLDGd0B07zYdOEOXUALE07s4muAMyq9rN5FvtYl3AE3jBAKGsl7D6xEVsOPYmx+CDKpTLisRQ0jboS9FO8g47mxVjcvpo9FWLJSYT81aAyhESTP6+0Vew//jIO973Ckyq1NlImgVL9VH6gFbrUuQSKrxYy8QvicSiKG0YlA13TYFTKMM0ykxkFVE51FNCETV8MHEjDYIb7wAJJiszlAOrzVrUKRNZqkKHpInR9lkhIrAINsliGABU1mohPT0S4dPF0qIhN1XQ+i6BIDpJOl3OGj0ClBiI0Esgxsa77etx+/e8zD4GsqE8MH8DRob34H7f+7/+y1PAfM4kmhoaG8PAPH8bGjZvs1shL+IU9X5dO743H7UHXkja0rHThJw9tQrTbxC0f8yNQUVHz90ks3UEAIYfYFxrg35zHvH/XUHCoOP75CAaWaShM+vGFuzdj1dWNWNzVgQO/hA0QzvYNLGdgpgcAY8b3RRAh1C4722exj3eJRuANAYRYehwbX/kpth55iidwWv2T30E+W+DJUqNuBMoIEBmxdSU65y5hTwVZlJErZrmlMVfIIuALwaE4MRUfwzPbf4pIMIrudvJc0LF933NQtRIM0kJYcx0RCggtwNi5CS4lxGWISmmS2yIlhUoHLoiSE4rgAL0qokCKhQQYSHSJWIQmkyMJlJAjpMA93C5UBCf7w3tEIvqoEMwiDF3l8esETmZAhmgCt0/7ENIl/DxSwISHiJSSpfZI2QIqadAXtTsKVN4gYAJEfPX4xJ1fZrMq6t5IZKfxg2fvxV9/5H7IZ8isZjOsQ4fwnQe/iyNHjpw3wZlL9N24pC+bAILP50PbgjqEuuL4/j9vxNJr6/GePwkjoJpo+GIMXbsCGK1JIvaFZri35LHoYRUJt4a+z4XQv1RHIRbGF+7eiHVX1KK7ez72/1KwAcK5eKp0asccAzQSbxMgVC84F2exj3kJRuCMAcJwrBfP7n0csujA3p5NiAabEPbX4ejJfRidGOZ6+ayXAgGHZfMvQ1tjFxTZgenUFDK5NKaTE+gZPIwb1v8WoqF61jGg1XhHSzfUSpl/9sLOn7P4EZUdzGgTxKZ2iPEYij37uYwgKS44vHOgaykmNEqSAEWS8Il8A7yCE2mxgvurpqjeYHUZzGQlZEngiZyAQqymA6rLB8nU0ZLog2iSIZPBIIe+s8kS6R7IFumRxkKaDZQhYAKky42mulaMxvot/gSTI6n9kToYRM4urF94A65e9i6EfbW8fzqXxA+fvRd/+bvffM2OhtM9hzSuFze9iO9857uYmJiwPR5OFzD752ccAXq+vV4P2pfWwd3Vg0fu34ml61tww0fqEJA11P3TGFr3+jARSaH8yXmQXs6i6ac55J0GEp+IoK8bSI6HcO+nnsfKy8NYMH8RTjzjYY0R27zsjG+HvYMdgbckAmcEEIiI+OAvv4iaYAv39A9P9WBOtAOiIHOb4FPb/h2x6RinwMnOmfQLFravwvw5izlTUNE0aHqF0+3DEyfRSsBBkuH3BlEfbWahoanEGEYmB/Czjd9HuUyqawIaauagOljH3Qo9gwdRMegYlsihpPiheOdCLw0gAB3/kGqABAEF0cBnG+IWq4H1CgCtQuqMIpcY6Gs0Mg+awwPRNNCeG4ZL1PkzZAFN/gk069O+9AuNShMWMZKyIyYEAiSygtpIPXyeIEZi/QjXBPia/XIUTfUtSKsT6Gpei0VNaxH21pEMI5KZaYwn+nHV0lvf9A2ncVHZ4aGH/tX+pfumo2kf4NURIICr6xr06Bg+/IV21FXX4LmfDOFXG3bjL79xJSLlAhTNB1VUkQoWEcy74S7rKEtexIM57Hg+gSd+2INv/ctHUFbGMdEP3HvPbnS3LkYhX7SDbUfAjsBFEIEzAgjpfAK/2PFv7G8Q8tVC1YpW6UBSoFVUTCZGcWLgCA727GSFw6JawMK5q1AfnQOX08OkPQIHAkQ4HW5UeUNch3c4XBbnwDQxONmL3sHDeOnAC0wAjIbq0FTTyuv3dCaFgfETPNHyxll8K6UvOS2lxNXFHK7NK3i6qoDjTtUiD860INLkTsDG5yYooaIEEQVfNdxqDg0BiUmOBAoI4FDJpJArciZAr1BWwAIL9HNNI00EEw6nde3LOtdyZiCjTWJ+y2LU++ejOlKLkDcKl+KFz+WHS/FY2gmChCp/FXMwzsZGMZucnMSXvvhlkOCSvdkROBsRsNwci9Bq+vHRr8yFPyih70AJvVsrcMs+VIQMyg4dnrIbmiDDlMqQTRWyIbLKaEV3wnCVcMudtSjJGSROhvC1D+/F8vlrkc2dH7OmsxEH+xh2BC7lCJwRQCAQsPXQs3DKLq6p04RHv0jYxdgEr65p5Z3KxrnN8fDJ3SiUCqDMA7H2KYtApQmX0w2R/nD63xIaogkz4A2if/wEtr3yLPrHTvCkShMuaylUVPQOH0WZQAm1FRpWqp+7H6jzgDQOHE4YQgAC3HAo5MSmWlkAAhDEYYCJltr5qKtuRknNo3/iGPsueANuKIoEQ7eIhTT5UxOFVtaQzxSh68Rf0JlfMMs30NQKlxTIPIoyCVevuBWJ4hgaa+bCLYTRWrcAteFGvjYCUQSMXA4al5OzGGd7o7i/9NIO3PfN+zA9PX22D28f7xKLgAUQclCjA7j7K/NZO8Ttc6GU8uGzdz8HcUxAuSJAF2TIugxRKEHQPYBgwFmrYtV7G3DXn7UiNp1ARdBRGg3j63ftxpKudchmz4/d8yV2y+zLtSNw1iNwRgCBJkfiERwb2odENsZZgYi/FqZpqSMqkoJ0LoXhqZMwdB3T6QnsObqVfeV97iBqQo3svNhc08YraSIhErbweQKQRRGK4sTgeC+e37kBmWwacxvmw+Pyo1QuIJOPY3x6xCoPyDKfj9L+dO6KWuFWRafLAYdTgQkFqu6DYYhQxBwUSYMsK2isnou5tZ0woONA3w7UhBsxnR+G4pS568KozAAEkfgEApcR6N9T8RxzEfiXn0tBqDrIQIEyDCTvTAAkWBXELZffjlwpBQcCWN1+LRyKg3kHxL+gjbIkZCbVEJ571m/k7AETiQT+7fs/wJNP/gKVyvlxzTtnF2Mf+C2LgAUQ8tCqh3H3V1ohuwpw+hQ4vR7oiWp8+8ObMbpHRkUyUFYocwAGCmWphE//yzWoW1+C6K4gMUlgQEBpOIh/vGs3li64HJmsJXNub3YE7Ahc2BE4I4BAl8ITYzmHvSe2QCTZYHPWrEiCy+HB8GQ/soU0yuUidh7ZiEQmxjX7eQ3dGBzvQ7FcwrKOdcwnoIyA3x3A4s7VgGlAURwolYvY+sozCPmi3OVQVkvoHz3G5QpaeSsO5ZSBE/0/ARHSMHC5nAwQ2JaZuxVECKYEJVWFaYeA1oZqXLfieoR8EcTSY/j59n9DKBBGIODj0oFPDqNUyWMyMQR9pq+YhJhEWUA+Y3Eh6O9VER/cXhcDB0oP0HetbCAc9aMqEMK69lswNjmCdyz7AIMDyhxwlgVAJp/A0/t/gA9f90l4HOfOcY2yKnv27MG37vsWhoaGL+wn0B7dBRkBemY1vQy9bggfv68LuXKCS3se2Ys6fxVO3DMI7y4ZmUAB7ntWAvtG4Ho2gZxTR+cDnUgtLCCez0Ar5+B1BlGJV+Ozt23B8vnrkLEzCBfkPbcHZUfg/4/AGQOEVx+ASgwqdSCYAkpqAfv7XsbgRC8yuQSGYycxOnWSFQVJyZAyC6R1QORFJvrNlCWoQ4BW90FfCGsXXwO9YrCgEqXiCRwQmTGemeL0PtX8XW7Lk514AqRgSB0H5LPgOgUOALWswelUsDQp4v2TbrzsUXC4bQ5ygSDmNc5BUzSCl4/8HFktzhmFttpF8LtD3Jq4p3cTky9fXTKp6AbcXieSsQzq51RztiKbLPA11NTUoqNpMaazIxiZGITPGcSd1/4JqgMNTPKi+BDvgTILmUISx8d34bcv+wN4XYFz/jRSR8lXv/r32LJ5i90Sec6j/fY6AQMEyqo19uHPH+xCIkuGaiLccKEt0Aj3J46hdYeJWE0ayj9fhvKmEdQ+mEZOMJG5rx2DXRkk8lkUJR2ukAfydBiffud25utkM9m3V7Dsq7Ej8DaNwJsCCLMxSeZieOSFb2FsagSJzBSKpTxzEcplFSu7rmBm/0sHX2CwMOvMSJPrKY0BUUQ4GMXqRVeyKmImn0UqE8fJkaPIF7PcLkjZArfbzVkCrv+TaqIooFQsweNz81BIZIlUFIklHQqF8O5yIxYdHuGfGdffCOmW9yCWmsaTO57D8eE+KI4kOppacNXim9EUbeEWxp6x/Xh61yMzIkam1dVQKKJQKPPYgyEfPF4XtLLOGZN13TfB5XEhW0hg277nqKsSc+ra8OEbPonR6SEeU5W3hrMT6UIMg7GjeP9l98CpWGM+H9vmzZvxj//wNeRydu33fMT77XAOCyBUYDT24i++04XpeBbQFJAeiLvoQ/i+XjTtcyEdMpH/i3bIO2Oo/1kOhrOIgT9vxOgiDQZzbXR4QzKMZACfuXE3lnatQS5rA4S3wzNiX8PbPwJvGiBMpoZx/1N/g5Gx4RntAJMnbQIDKxdcxuZMz+98gksKJL1Mwkq0zTohstmRAPi8fiztWI+KqqN/5AT6R48z0ZEyB8Q7IGDg8Xg4a0C+C8Q1oGwEEQpJsMg0AEVR4HK60NGwHE11LfAoHrTvOARfsBrFa65FCQb8gSpupSxoWZyc6MXwRBKjU2nMa2zB1UvXAGIRT+z4HlS1yGUBKldQR8bYcAwujwPFgoaauhDzHxa2rkFTdRsTJ185sZ1NqIjsSBmFyxe/E13NK3B8dB+q/Y3QjQomM4MYT/fi9sv/+D/ZR5/rR406HT71yU9jeNguOZzrWL8djk8AoawWgaYRfOqBFdi5Yy/MtAhdVmAYEmpSZXjUKqiSjniwDH8ZcD52YdcAABBnSURBVJfccFQMjIQNaFIFhCY0MYkFnfVwuDrxuRu2YNGClcjZJYa3wyNiX8MlEIE3DBBo4jwyshOPb/82JiYnoWtWN0GhUOTWw0XzVqGjaRF+svEh5PK5mT59S2iIJnPOAHBnAa38RfgCHpiaxJN/Jps8JbVMnALOHrhcDBIkWebMhCQKLOtMtQD6ZUbggIDEdStuw5K29TBQ4dJEa10nPE4fTo4eQzqT4PZDIkWarLAI1mFwO31IpNMYT8RwqP8YTo71IV2Ygtejw+HQIUs6UokMyiUCPhXuXJjbMhcr2q/lckOhlMGBge3I5/LsMnnD6g9yK2XQF0ZztA35Yo4FoHaeeBahYAjvWXP3W/JopdMZfP1rX8OWLVvfkvPbJ714IkDvXShcheh8AYveOw2jkkPwcBFVewx4DTcglJCe54V7fT0STw1AbnfB01INY8NJKKobDl1HokpH4hYXDJ+OXKoVe78nIJdRUSgULp5A2CO1I3AJR+ANAYSKrmL7iV9h44HH2VchkyqgUq6cagHsbF6GVV1X4/tPfQO5Qo4zB7TaPyVJPGOkZEkdkfuhyDwC6gjIZfOWl4NObYUi2zR3tS1hTsKJkX3clmiJFRk8WVtlCuqAkBEKRnD79X+Ian+d5ckgCvC7q3iCHk31IpNNcUcEZSaWdaxnLQYqAVgbjYNWRxXsGT2Of37hcZiFMub6XZAqRYiQkcuWoRkVRH0erF+2ggFASctjLNmHieQAcxLKJQ1rO29EJFjLx66rbkJDqBX9sSMYiR/HjcvvhNdpOUW+FVuxWMJDDz2ER3/86FtxevucF1EEqLQ3f0kDqtbtwYJFNYjuTqHpUQ11I06koyamrpVR9aFujPz9NkhX1qFq8RxUPr8LTf0+qG4Ngx0qkh+fi57cBKYPR3HsSTdyWRscXESPgD3USzwCZwwQiIx4YHg7nt3/CE+GfqUaqVQSiRz5IgBtdQtww8r34/4nvoxsPsvpeVrpz5olUfaAMgZUFqBfQDSrOmQHwsE6ZPNpxOKT3JkgS050ty3H/JZF8HmDDAReOvw0xuNDrElA4EIt6QhVhUCOkuw8N3cFrl7xLjRF2libQJAkFMsF9PYfhSsgIJvPYP+RXQwwqqtqEaqKQBYVBLwReP0NiATCUCQB9+3cgO0jx/jRuG7OfFzT1AxFdiIVzzAQoT5uWXAg7I9gujyMfX2bIUhWi+S8+sVojS6GKFI7psgxWdiyBkFPFbdnEuh5rY1In3Qd9OdcbkTw/N53v4e+vpPn8jT2sd8GEaiZ40Ki7gm0LgzCJ1TQdNyLwDeOQ7t7IQaXZVDyinDmgZJThOnQUT3lQM294zDrXJi8M4B4WMTIxDS0k82o9C5FuTRjKvQ2iI19CXYE3u4ReN0AgSav8eRJ7Dr5PDxKFUqlIuKpOKaSI7xSHk/2oybQhHet/1388NlvMlnR7QggX8ghk0tZ2gWGweRFAgcymSaJIupCzTyBktRyPp/FcKyfQQXpH/g9QTgdLt63qGbw4oGfI1/MsG4BDAkr26/BvOZuTCSGcKR/FxbMXYn5c5agPtIGVVcRL+RQKGYRG+mH061g76GX8PLBjfA7w/B5A/AHfIjWRLiDorVlLdzuMGRRQm98GI/3vcST+UeWXI6WoA+6anErEskkkxUVeCA7TByLb0cyN8Wqjy6nEwF3BHOi8yFCsTwSJAM3rbgdYX/N63iWCGRYbaPnY7M18c9HlC/uc8QyJ3H/ix+D7kxDElW4c05U95qYblNQDORgiAYMauXVnRAEHYKpo/qEDN0hINOkQpMVqKqAeY6rcdd1X2HnVHuzI2BH4OKIwGkBAvXypwox7Oh9EgeHt6ExuAALG9ZC1TR2JjwytBODE8cRDdbjzmv/GI9veRCx9AQWtayDS/YyE3oyOYIqb4Tr8Pt6trKOAjkZzmtciEVz16HKG0ZVIGzpJJQKPEESr4AmaFIr5PMfe5pJU0R+pMl+Xu1SrF5wHSCQSiFlKHRexUuKD4IcgKpXUNJy6O07gOMHX2axJjKUInBRyFu6BkSA9Pq8WNi5GK1zOzG3aTV87jCZN7ACIpGwFVGHoaUxHZ9GwFuFRCxFppKs83BsbA/EYJ5LGbphcOsl6THQ3ylu+VyB/23J3Cvx367/I3hdb11p4eJ4HO1RXmgRyBanseXwIyibWW5nFgwBgg6okgmZ9EYAqLIJR8UBwTChKWXAcFjCYqJqvUuQUevpxLqF72IXVXuzI2BH4OKIwGkBQr6cxn3P/Tk0nYiBMtbMuRkN4TYWLiLZ5LH4ALYdfhK/986/wtN7f4zxxBC6GldBNBW4HC60Ny3k8sJUchzTmUlkCylsOfAkWmrmY2339VAEF8JVEcSSkwwcyqWy5YpIgkcwuba/p3cjHC7SPNBYnIjKC01V87Fu+fsgyz7IYgFOhZmPqJjkeaAwINi5eyOe3/IwioXsqZW57JAtLwWCCMRToC4Jh4z6SBM6OjvQ1fEOKLKb0/wTseMo5CfZNKqsF1EV8qEQEzCVmMBEYgTpfBz1DVG0ts+ZsYc2mGtBHRZUSZAdEibHEyhkSuiauwT/87bPIeSvPu2TYck9n58swmkHY3/AjoAdATsCdgQuyQicFiAU1Rz+7wuf4sm7ylODy9vfg6AnwoZL1LqXK6cQ9tVhd88LGE8MozW6iA2KqnxhrttH/DUsqUwujqlcnAECeTqQ7LFpCCirKnLFFHKlNK+2qQtCNzVk80n0jB5AojgBh8uyTy4Vy3C4FBgVA6W8hqvX3YHm2iVwOGRIguUSScl/Ek86eGgbHnvy24BIk7ZlBDULBnh1w9uvTZ+obOD1+hCtrUFDYwNcig+lUg66oVomU04D42PjmBybtkoHM0CFztnW2Yx5XQQSTGRSeRRzJQYHmTQBHo07PChjUltdj/dedTdWd11z3tscL8mn275oOwJ2BOwI2BF4wxE4LUAoqBl889k/Q8XQ0B5djrboUvhcVeyB4FJcqPJUYzB+HIOTPaj1z4UiObkV0SGRD4E1BxMgcDu9kASRMxFU+6ZyA9Xz0/kkk/koa3CwZxdeOfoSTEFnvwTKGgSCPgYFlLanlT9lI7i0L4usabCk7RZUB1otd0QTUEsa4skpfO/hv0K+kOfPkScBeTdYVs/STOeCBRIoS0H/pTGRRgPlLXwBP0LhAILBKu7lJg+FTDqD6ckEd0zM7sdkQsqkCiIWrmhHbWMEe7YdQamo8jjpvOFwFbdfcslEEuF2ubFm8RX4rfV3s9sjH8De7AjYEbAjYEfAjsAFFoHTAoTp7Cge2PQZnsaWNF+DGv9cGGYFDtmN5vA8OGQXhmI9LCk8iwhotT9LtqNVtW4SR8ASR6L5lboXaJXPoj1Uv1RkJjVu2PgDaLrGYkPkdxCOBhCo8nHKnidl09JRoK9ZG2fqdgg5OxFyt0OCkzsUpuLDeOyJr/GET6ZLxA841T3BZk9kES1xFkAwCSKY7OfA/gom4GDZZkuZkQiVBB5Yv2HGrpl+xlkE2ggjzGg1+ANe5LPFU34QBEbIIbK6NgR/wMOtnPRvJLLkkny4ovM9WNd9Pes02JsdATsCdgTsCNgRuJAicFqAkMxP4f5Nn+YJsdbfgrnVS3i13ljVgbCvFon8BJcbCuUsVL2MilGGWimxxbHXEWBL6Nm/04qbZJKpVBCLx1Ao5thvYTI+gt1HtiCTTwEi4PO52fOgKhKA0+3g7MFsTZ7GQceg79l0ARMj04iNpxAJNKJ1zlIE/NXoHdiDYz27eHKmydwAZQYImEhQqNVQBmTZAgGzpX7qriAfCPq0w2GZPhFaIDEn+v/ZDAPdPAIndP5ZkGCRKikLYhGw2BYaYMJiMOyHL+BiDwnKNNA+xUIZaqnCrZit9V24cdUHsGDOilOujxfSA2KPxY6AHQE7AnYELs0InBYg6IaGJ/Y9gJ7JV3gF3Vm3DnMjCzEn3IWRZC9INIlX9zBQKKfRG9vHoKGzbhV3MUxlxjAeH0C9pxM+udqygU5NoW/4KIYn+zCVGIehazApc0/zMy/PaYVu8OqcTJI8PhcDBdrKRY1tlnOZIpcNKENBpQMuFOg0aRMcsDIN7Pswc19pyiZdBFJcJMBB6oyc0ZjJAGiayiUB5ipQKUKeUXmcIUxSNoJAApUOWKtgBgRwEoGPQa6NFrmSMxMAvH4PojVhJOIpqOUKqsJ+VoPUKyZCwTC73JHbJfEkFrauwG2XfRTRQKNddrg030X7qu0I2BGwI3BBReC0AIFGSyWF/cNbsGfwBQScYdzQfRd6Jvex+ZAFDoBEbhzDqWNQK0WenIkLQO6HY8OTyGbynGUgbQPSOMgWMlzrFymFT6JJksSrfJrsuQbBEz9mXB+NGSBA32nSJ+8FkcsH5NjIKYeZQfCqnrgE9DkDzB1gXgGX+QUuGVCan04xK89MYIGugAiSJOFMrY00vc92UtAYCSxYDpQmg47fKGg0o9xIe5MUs9fnhi/oga6ZcHoc3AmRnM4iHAnC7/fjqkW38Xj6J45iPNMLX8jFpYYPrPk45lZ3X1APCYd3JmNiaydccLfGHpAdATsCdgTOSQReF0CYPTN1LdAKvayVMBTvwZ6+jUhmp5k/kMtnkUwlkU3nUaYUelnliZnkkAlAqJpFTpxVCiSLZ6rH0wRsTT4GT8z0R5+ZjIgTQBMyHYBX74QauFRgrdKpe8Gk3uxZTgBnHkzmEpAIE/EKCCAQaGAwIklMeKTveqXCGggW2LD4B4V8wSIdSgRSLBBBY3e7Xafkn62xAhVN42Nak+evswo+TxAOlwhflZszBZRVkJ2WamS5oLKOQnU0gpvX3wGfpwqCKUI1cxhOH0KqPAWP0497rvo7OBXPObnhb+aglGHZvfcVHDx4yLaPfjOBtPe1I2BHwI7ARRCBMwIIXD9XC+gZ34++ycOYTo4hnp5CxNcIwZBwfHA/ZNGJsakheJ1V8Hjc6Bs8jkwmbU2wMwCBWv6ICKg4ZA4ReTVYKX3yT7BW69SaSJMwT8CUTaB9qUwwI0JkEQgpezDTBWAlAjgLwS6QEik30sRPWQcdoizD6VCs8yoyGysFgn5WdKSMAO3jln1QJBdiyRH+Nzo2Ew1n5KEJOMzyDpgsWfmPsrELWldgzeKroKGAlw8/x+2akoN8IhR2dgy4wxiO9+DQsVfQWrcA16y5lbsaDEHHaOoYhpJHmL/w4cv/BtXehgv28SkUSxgcGcWxo8cwMT5ug4UL9k7ZA7MjYEfAjsAbj8AZAYRMIYm9/S9iOjvOfIGQtxay4GRyoQgJIV81tzlSCYFUEald8WjPAew9ss3iBMzU951OB9fiidRHaX1aktMkqsgOREO1GIuNcAaCVBOptk8ZAK2i8Yp+llRIGQhJYurhTKuhwCt7FhkiEGGaLKxEmQeSQSYgQOd0OAkgKCgWinDN/J2ABGk2rF90A6qDtTjYuweH+l5mLgMBFTqFJQ1tHXfWsprLDYQeZrYrVtyIlYvWs7z0M7se5QyHoBiY37wUrbWLeOyUhSFp6OZoO4IBqwWyqGVwaHwzSmqeMwf//fIvw+O48DsbyloFE7E4BgaGMDRwEulU6o0/ifaedgTsCNgRsCNwQUXg/wFEYOZCDCuVCgAAAABJRU5ErkJggg==;" vertex="1" parent="2">
                    <mxGeometry y="20" width="816.38" height="460" as="geometry"/>
                </mxCell>
            </root>
        </mxGraphModel>
    </diagram>
</mxfile>